<?xml version="1.0" encoding="utf-8"?>
<!-- Generator: Adobe Illustrator 21.0.0, SVG Export Plug-In . SVG Version: 6.00 Build 0)  -->
<svg version="1.1" id="Layer_1" xmlns="http://www.w3.org/2000/svg" xmlns:xlink="http://www.w3.org/1999/xlink" x="0px" y="0px"
	 viewBox="0 0 105.188 150" style="enable-background:new 0 0 105.188 150;" xml:space="preserve">
<style type="text/css">
	.st0{fill:#5BAF5D;}
	.st1{fill:#66C468;}
	.st2{fill:#76E378;}
	.st3{fill:#4D944F;}
	.st4{fill:#9AC4F0;}
	.st5{fill:#E0E1E2;}
	.st6{fill:#958079;}
	.st7{fill:#444B52;}
	.st8{fill:#6D6E71;}
	.st9{fill:#8D8F92;}
	.st10{fill:#855E3C;}
	.st11{fill:#A37C50;}
	.st12{fill:#805E3A;}
	.st13{fill:#6C4A30;}
	.st14{fill:#FFFFFF;}
	.st15{fill:#FCD75F;}
	.st16{fill:#EB5252;}
	.st17{fill:#B09A7D;}
	.st18{fill:#325743;}
	.st19{fill:#8C6645;}
	.st20{fill:#B58A64;}
	.st21{fill:#6E5036;}
	.st22{fill:#52351C;}
	.st23{fill:#D1D3D4;}
	.st24{fill:#6B6A6E;}
	.st25{fill:#68696B;}
	.st26{fill:#757578;}
	.st27{fill:#737476;}
	.st28{fill:#F1F2F2;}
	.st29{fill:#BABCBD;}
	.st30{fill:#38B077;}
	.st31{fill:#40A7FF;}
	.st32{fill:#4081FF;}
	.st33{fill:#4B5582;}
	.st34{fill:#3ECFCF;}
	.st35{fill:#89E2E2;}
	.st36{fill:#FF84C1;}
	.st37{fill:#FFB3D1;}
	.st38{fill:#FF99C1;}
	.st39{fill:#FFC642;}
	.st40{fill:#14E398;}
	.st41{fill:#FF91F6;}
	.st42{fill:#6BFFC9;}
	.st43{fill:#FF6BF3;}
	.st44{fill:#FFD67D;}
	.st45{fill:#425B80;}
	.st46{fill:#F2AC32;}
	.st47{fill:#F268EB;}
	.st48{fill:#00A7E8;}
	.st49{fill:#C7A983;}
	.st50{fill:#AD895D;}
	.st51{fill:#5E5755;}
	.st52{fill:#F24129;}
	.st53{fill:#C73522;}
	.st54{fill:#423E3A;}
</style>
<g>
	<g>
		<g>
			<path class="st52" d="M68.359,136.01c2.24,5.28-1.12,11.49-6.73,11.94c-0.24,0.02-0.48,0.03-0.73,0.03
				c-4.87,0-8.81-3.93-8.81-8.77c0,4.84-3.95,8.77-8.82,8.77c-0.24,0-0.48-0.01-0.72-0.03c-5.61-0.45-8.97-6.66-6.74-11.94
				l3.81-9.01l1.31-2.74l0.29-0.19c3.3,5.08,7.49,8.19,11.39,8.19c3.77,0,7.73-2.79,10.92-7.4l0.27,0.19l1.18,2.95L68.359,136.01z"
				/>
		</g>
		<g>
			<path class="st52" d="M35.159,102.3c0-1.39,0.07-2.76,0.21-4.09l0.4-0.06c2.2,13.03,9.98,22.67,16.84,22.67
				c7.04,0,14.76-9.75,16.88-22.89l0.34,0.05c0.15,1.41,0.23,2.85,0.23,4.32c0,9-2.72,17.07-6.53,22.56
				c-3.19,4.61-7.15,7.4-10.92,7.4c-3.9,0-8.09-3.11-11.39-8.19C37.669,118.61,35.159,110.87,35.159,102.3z"/>
		</g>
		<g>
			<path class="st52" d="M35.159,90.86c0-1.7,0.11-3.36,0.31-4.98l0.12-0.02c1.93,13.58,9.96,23.77,17.02,23.77
				c7.23,0,15.18-10.26,17.04-23.9l0.09,0.01c0.21,1.66,0.32,3.37,0.32,5.12c0,2.44-0.2,4.81-0.57,7.07
				c-2.12,13.14-9.84,22.89-16.88,22.89c-6.86,0-14.64-9.64-16.84-22.67C35.379,95.82,35.159,93.38,35.159,90.86z"/>
		</g>
		<g>
			<path class="st52" d="M103.089,42.93c0,8.25-6.97,14.94-13,14.94c-6.15,0-13-6.69-13-14.94c0-3.29,1.2-6.33,2.98-8.8
				c2.92,1.86,4.83,4.95,6.07,8.74c-0.53-1.55-0.83-3.21-0.83-4.94c0-3.79,2.53-7.3,4.78-9.94
				C95.359,27.99,103.089,34.68,103.089,42.93z"/>
		</g>
		<g>
			<path class="st52" d="M35.179,78.97c0.3-15.76,9.99-28.48,16.93-29.07c0.17-0.02,0.33-0.03,0.5-0.03c0.12,0,0.24,0,0.37,0.02
				c7.18,0.42,16.75,13.19,17.06,29.05c0.02,0.27,0.02,0.54,0.02,0.81c0,2.05-0.14,4.05-0.41,5.98c-1.86,13.64-9.81,23.9-17.04,23.9
				c-7.06,0-15.09-10.19-17.02-23.77c-0.28-1.97-0.43-4.02-0.43-6.11C35.159,79.49,35.159,79.23,35.179,78.97z"/>
		</g>
		<g>
			<path class="st52" d="M25.019,34.13c1.78,2.47,2.98,5.51,2.98,8.8c0,8.25-6.85,14.94-13,14.94c-6.03,0-13-6.69-13-14.94
				s7.73-14.94,13-14.94c2.25,2.64,4.79,6.15,4.79,9.94c0,1.73-0.31,3.39-0.84,4.94C20.189,39.08,22.099,35.99,25.019,34.13z"/>
		</g>
		<g>
			<path class="st52" d="M69.739,85.74l-0.09-0.01c0.27-1.93,0.41-3.93,0.41-5.98c0-0.27,0-0.54-0.02-0.81
				c-0.31-15.86-9.88-28.63-17.06-29.05c-0.13-0.02-0.25-0.02-0.37-0.02c-0.17,0-0.33,0.01-0.5,0.03
				c-6.94,0.59-16.63,13.31-16.93,29.07c-0.02,0.26-0.02,0.52-0.02,0.78c0,2.09,0.15,4.14,0.43,6.11l-0.12,0.02
				c-0.2,1.62-0.31,3.28-0.31,4.98c0,2.52,0.22,4.96,0.61,7.29l-0.4,0.06c-0.14,1.33-0.21,2.7-0.21,4.09
				c0,8.57,2.51,16.31,6.06,21.77l-0.29,0.19l-1.31,2.74l-3.81,9.01c-2.23,5.28,1.13,11.49,6.74,11.94
				c0.24,0.02,0.48,0.03,0.72,0.03c4.87,0,8.82-3.93,8.82-8.77c0,4.84,3.94,8.77,8.81,8.77c0.25,0,0.49-0.01,0.73-0.03
				c5.61-0.45,8.97-6.66,6.73-11.94l-3.38-8.01l-1.18-2.95l-0.27-0.19c3.81-5.49,6.53-13.56,6.53-22.56c0-1.47-0.08-2.91-0.23-4.32
				l-0.34-0.05c0.37-2.26,0.57-4.63,0.57-7.07C70.059,89.11,69.949,87.4,69.739,85.74z"/>
		</g>
		<g>
			<g>
				<path class="st53" d="M69.739,85.74l-0.09-0.01c0.27-1.93,0.41-3.93,0.41-5.98c0-0.27,0-0.54-0.02-0.81
					c-0.31-15.86-9.88-28.63-17.06-29.05c-0.13-0.02-0.25-0.02-0.37-0.02c-0.17,0-0.33,0.01-0.5,0.03
					c-1.251,0.106-2.591,0.612-3.949,1.453c6.237,3.826,12.62,14.683,12.872,27.587c0.02,0.27,0.02,21.89,0.02,23.36
					c0,9-1.7,33.71-1.7,33.71c1.691,3.985,0.189,8.497-3.06,10.665c1.341,0.822,2.916,1.305,4.608,1.305c0.25,0,0.49-0.01,0.73-0.03
					c5.61-0.45,8.97-6.66,6.73-11.94l-3.38-8.01l-1.18-2.95l-0.27-0.19c3.81-5.49,6.53-13.56,6.53-22.56c0-1.47-0.08-2.91-0.23-4.32
					l-0.34-0.05c0.37-2.26,0.57-4.63,0.57-7.07C70.059,89.11,69.949,87.4,69.739,85.74z"/>
			</g>
		</g>
		<g>
			<g>
				<path class="st53" d="M90.089,27.99c-0.617,0.724-1.254,1.516-1.855,2.359c3.669,2.655,6.849,7.292,6.849,12.581
					c0,6.458-4.273,11.943-9.021,14.029c1.325,0.579,2.691,0.911,4.027,0.911c6.03,0,13-6.69,13-14.94S95.359,27.99,90.089,27.99z"
					/>
			</g>
		</g>
		<g>
			<g>
				<path class="st53" d="M25.019,34.13c-2.328,1.483-4.005,3.756-5.222,6.533c0.124,0.74,0.195,1.495,0.195,2.267
					c0,6.458-4.2,11.944-8.973,14.029c1.318,0.579,2.67,0.911,3.979,0.911c6.15,0,13-6.69,13-14.94
					C27.999,39.64,26.799,36.6,25.019,34.13z"/>
			</g>
		</g>
	</g>
	<path class="st54" d="M93.313,59.352c5.987-1.811,11.776-8.339,11.776-16.422c0-4.287-1.804-8.53-5.08-11.948
		c-2.919-3.046-6.512-4.882-9.669-4.975c-0.032-0.004-0.064-0.004-0.096-0.007C90.193,26,90.14,25.99,90.089,25.99
		c-0.025,0-0.048,0.006-0.072,0.007c-0.075,0.003-0.148,0.011-0.222,0.022c-0.058,0.009-0.115,0.017-0.172,0.03
		c-0.068,0.016-0.134,0.039-0.201,0.062c-0.056,0.02-0.112,0.039-0.166,0.064c-0.063,0.029-0.122,0.063-0.182,0.099
		c-0.052,0.031-0.104,0.061-0.153,0.097c-0.053,0.038-0.103,0.082-0.153,0.126c-0.051,0.045-0.1,0.09-0.146,0.14
		c-0.018,0.02-0.04,0.034-0.057,0.055c-1.834,2.152-3.872,4.866-4.778,7.982c-0.775-0.829-1.614-1.551-2.528-2.148
		c-0.009-0.006-0.015-0.015-0.024-0.021c-0.01-0.007-0.02-0.011-0.03-0.017c-0.022-0.014-0.042-0.032-0.065-0.046
		c-0.039-0.025-0.08-0.039-0.12-0.061c-0.064-0.035-0.128-0.071-0.195-0.098c-0.058-0.024-0.118-0.041-0.177-0.059
		c-0.065-0.02-0.129-0.04-0.195-0.053c-0.064-0.013-0.128-0.018-0.193-0.025c-0.063-0.006-0.125-0.013-0.189-0.013
		c-0.066,0-0.131,0.007-0.197,0.013c-0.062,0.006-0.123,0.011-0.184,0.023c-0.064,0.012-0.126,0.031-0.188,0.049
		c-0.061,0.018-0.121,0.035-0.18,0.059c-0.06,0.024-0.116,0.054-0.174,0.084c-0.057,0.03-0.114,0.058-0.168,0.093
		c-0.055,0.036-0.106,0.077-0.157,0.119c-0.051,0.041-0.101,0.08-0.148,0.126c-0.048,0.047-0.09,0.099-0.134,0.152
		c-0.032,0.038-0.068,0.069-0.097,0.11c-0.021,0.029-0.039,0.06-0.059,0.089c-0.001,0.002-0.003,0.003-0.004,0.005
		c-0.001,0.001-0.001,0.003-0.002,0.004c-2.151,3.025-3.291,6.435-3.291,9.871c0,7.579,6.14,16.324,14.189,16.886
		c-0.492,5.469-3.786,10.524-8.935,13.711l-12.227-36.68c-0.463-1.387-1.646-2.41-3.087-2.669c-1.443-0.259-2.91,0.287-3.877,1.491
		l-8.557,11.547l-7.735-11.421c-0.87-1.186-2.318-1.794-3.775-1.595c-1.456,0.201-2.682,1.18-3.198,2.557l-13.674,36.43
		c-4.84-3.208-7.928-8.101-8.404-13.372c8.049-0.561,14.19-9.307,14.19-16.886c0-3.436-1.14-6.844-3.29-9.868
		c-0.002-0.002-0.002-0.005-0.004-0.007c-0.002-0.004-0.006-0.006-0.008-0.01c-0.02-0.028-0.036-0.057-0.057-0.085
		c-0.028-0.038-0.062-0.068-0.092-0.104c-0.046-0.055-0.09-0.11-0.141-0.159c-0.045-0.044-0.093-0.081-0.141-0.12
		c-0.054-0.044-0.108-0.087-0.165-0.125c-0.051-0.033-0.104-0.06-0.157-0.087c-0.061-0.032-0.122-0.064-0.186-0.09
		c-0.054-0.021-0.108-0.037-0.163-0.053c-0.068-0.021-0.136-0.041-0.206-0.054c-0.054-0.01-0.108-0.014-0.163-0.02
		c-0.073-0.008-0.146-0.015-0.219-0.014c-0.055,0-0.109,0.007-0.164,0.012c-0.073,0.006-0.145,0.013-0.218,0.028
		c-0.058,0.012-0.115,0.03-0.172,0.047c-0.067,0.02-0.133,0.039-0.199,0.066c-0.061,0.026-0.12,0.059-0.18,0.091
		c-0.043,0.023-0.088,0.039-0.13,0.066c-0.024,0.015-0.045,0.034-0.068,0.049c-0.008,0.006-0.018,0.009-0.026,0.015
		c-0.008,0.005-0.013,0.013-0.021,0.018c-0.912,0.595-1.75,1.316-2.524,2.143c-0.91-3.108-2.948-5.822-4.783-7.976
		c-0.017-0.021-0.039-0.035-0.057-0.055c-0.046-0.05-0.096-0.096-0.148-0.142c-0.049-0.043-0.097-0.085-0.149-0.123
		c-0.051-0.037-0.105-0.069-0.159-0.101c-0.058-0.034-0.115-0.068-0.175-0.095c-0.056-0.026-0.115-0.046-0.174-0.067
		c-0.064-0.022-0.126-0.044-0.192-0.059c-0.059-0.014-0.119-0.023-0.18-0.032c-0.071-0.01-0.141-0.019-0.213-0.021
		c-0.026-0.001-0.049-0.008-0.075-0.008c-0.054,0-0.109,0.01-0.163,0.011c-0.029,0.002-0.057,0.002-0.086,0.006
		C8.046,26.194-0.001,33.918-0.001,42.93c0,8.082,5.789,14.61,11.775,16.421c0.344,7.078,4.445,13.653,10.993,17.662l-8.361,22.274
		c-0.389,1.034,0.135,2.188,1.169,2.575c0.231,0.087,0.47,0.129,0.703,0.129c0.81,0,1.571-0.495,1.872-1.298l8.216-21.889
		c1.512,0.599,3.153,1.087,4.925,1.438l1.897,0.373c0.031,1.61,0.144,3.218,0.343,4.807c-0.017,0.071-0.039,0.139-0.049,0.213
		c-0.216,1.748-0.325,3.507-0.325,5.226c0,2.115,0.16,4.256,0.458,6.385c-0.125,0.227-0.208,0.481-0.237,0.756
		c-0.146,1.396-0.221,2.843-0.221,4.299c0,7.786,2.074,15.589,5.687,21.682l-1.069,2.239l-3.811,9.011
		c-1.354,3.206-1.081,6.9,0.729,9.883c1.708,2.814,4.513,4.574,7.692,4.829c0.294,0.024,0.588,0.037,0.882,0.037
		c3.639,0,6.857-1.803,8.819-4.553c1.961,2.75,5.175,4.553,8.81,4.553c0.306,0,0.599-0.013,0.891-0.037
		c3.184-0.255,5.988-2.017,7.694-4.833c1.808-2.983,2.075-6.678,0.718-9.878l-3.365-7.975l-0.941-2.353
		c3.928-6.192,6.164-14.345,6.164-22.605c0-1.504-0.081-3.028-0.242-4.531c-0.025-0.234-0.096-0.451-0.193-0.652
		c0.283-2.058,0.435-4.155,0.435-6.256c0-1.801-0.113-3.607-0.336-5.371c-0.005-0.041-0.02-0.079-0.027-0.119
		c0.196-1.565,0.305-3.165,0.335-4.78l1.762-0.346c1.478-0.289,2.872-0.683,4.186-1.159l7.183,21.548
		c0.279,0.838,1.06,1.368,1.897,1.368c0.209,0,0.423-0.034,0.633-0.104c1.048-0.35,1.614-1.482,1.265-2.53l-7.321-21.962
		C88.578,73.457,92.958,66.685,93.313,59.352z M79.089,42.93c0-2.307,0.686-4.286,1.501-5.838c1.534,1.505,2.737,3.617,3.648,6.4
		c0,0,0,0.001,0.001,0.001c0.003,0.008,0.004,0.016,0.007,0.024c0.044,0.127,0.118,0.232,0.183,0.344
		c0.039,0.068,0.064,0.146,0.11,0.208c0.081,0.108,0.185,0.191,0.285,0.28c0.054,0.048,0.098,0.109,0.157,0.151
		c0.117,0.083,0.25,0.135,0.381,0.191c0.057,0.024,0.107,0.063,0.166,0.082c0.195,0.063,0.401,0.096,0.61,0.096
		c0.199,0,0.401-0.033,0.601-0.096c0.007-0.002,0.014-0.001,0.021-0.003c0.004-0.001,0.006-0.003,0.01-0.004
		c0.005-0.002,0.01-0.002,0.015-0.004c0.065-0.022,0.122-0.056,0.182-0.084c0.058-0.026,0.119-0.048,0.173-0.079
		c0.06-0.035,0.112-0.079,0.168-0.119c0.051-0.037,0.105-0.069,0.151-0.11c0.052-0.046,0.094-0.099,0.141-0.149
		c0.041-0.044,0.086-0.085,0.122-0.133c0.042-0.055,0.075-0.116,0.111-0.175c0.031-0.05,0.066-0.098,0.092-0.15
		c0.031-0.063,0.052-0.131,0.077-0.197c0.02-0.054,0.045-0.105,0.061-0.161c0.02-0.072,0.028-0.146,0.04-0.22
		c0.009-0.054,0.023-0.106,0.027-0.16c0.006-0.078,0-0.157-0.004-0.236c-0.002-0.052,0.002-0.104-0.004-0.156
		c-0.01-0.082-0.034-0.164-0.054-0.246c-0.012-0.046-0.015-0.093-0.031-0.139c-0.002-0.005-0.004-0.01-0.005-0.015
		c-0.001-0.004-0.001-0.007-0.003-0.011c-0.479-1.401-0.723-2.846-0.723-4.292c0-2.856,1.928-5.734,3.652-7.86
		c4.235,0.711,10.128,6.306,10.128,12.86c0,7.168-6.018,12.94-11,12.94S79.089,50.098,79.089,42.93z M3.999,42.93
		c0-6.555,5.893-12.15,10.128-12.86c1.729,2.131,3.662,5.013,3.662,7.86c0,1.426-0.247,2.87-0.733,4.292
		c-0.001,0.004-0.001,0.007-0.003,0.011c-0.002,0.005-0.004,0.01-0.005,0.015c-0.015,0.046-0.019,0.093-0.031,0.139
		c-0.021,0.082-0.044,0.164-0.054,0.246c-0.006,0.053-0.002,0.105-0.004,0.158c-0.003,0.078-0.01,0.157-0.004,0.234
		c0.004,0.055,0.019,0.108,0.028,0.163c0.012,0.073,0.02,0.146,0.04,0.217c0.015,0.055,0.041,0.107,0.061,0.161
		c0.025,0.066,0.046,0.134,0.077,0.197c0.026,0.053,0.062,0.1,0.092,0.15c0.036,0.059,0.069,0.12,0.111,0.175
		c0.037,0.048,0.082,0.089,0.124,0.134c0.046,0.05,0.088,0.102,0.14,0.148c0.047,0.041,0.101,0.074,0.152,0.111
		c0.055,0.04,0.107,0.084,0.167,0.118c0.054,0.031,0.115,0.053,0.173,0.079c0.061,0.028,0.118,0.062,0.182,0.084
		c0.005,0.002,0.01,0.002,0.015,0.004c0.004,0.001,0.006,0.003,0.01,0.004c0.007,0.002,0.014,0.001,0.021,0.003
		c0.2,0.063,0.402,0.096,0.601,0.096c0.209,0,0.415-0.034,0.61-0.096c0.059-0.019,0.109-0.058,0.166-0.082
		c0.131-0.056,0.264-0.109,0.381-0.191c0.059-0.042,0.102-0.103,0.157-0.151c0.1-0.088,0.204-0.171,0.285-0.28
		c0.046-0.062,0.071-0.14,0.11-0.208c0.065-0.112,0.139-0.217,0.183-0.344c0.003-0.008,0.005-0.016,0.007-0.024
		c0,0,0-0.001,0.001-0.001c0.911-2.784,2.114-4.895,3.649-6.401c0.815,1.552,1.502,3.531,1.502,5.839c0,7.168-6.018,12.94-11,12.94
		S3.999,50.098,3.999,42.93z M61.884,123.723c-2.875,4.154-6.256,6.537-9.275,6.537c-3.121,0-6.752-2.721-9.713-7.279
		c-2.14-3.291-3.725-7.254-4.685-11.483c3.731,6.849,9.067,11.323,14.398,11.323c5.369,0,10.706-4.466,14.426-11.314
		C66.015,116.07,64.263,120.295,61.884,123.723z M38.265,100.388c3.73,6.778,9.045,11.242,14.343,11.242
		c5.311,0,10.61-4.426,14.328-11.157c-2.602,11.085-9.212,18.348-14.328,18.348C47.523,118.82,40.877,111.514,38.265,100.388z
		 M68.039,78.979c0.001,0.035,0.003,0.07,0.005,0.105c0.017,0.222,0.015,0.443,0.015,0.665c0,1.934-0.132,3.853-0.392,5.71
		c-1.808,13.262-9.246,22.17-15.059,22.17c-5.632,0-13.193-9.056-15.039-22.051c-0.272-1.917-0.411-3.878-0.411-5.829
		c0-0.127,0.006-0.254,0.009-0.38c0.002-0.008,0.005-0.016,0.007-0.024c0.036-0.192,0.033-0.38,0.013-0.565
		c0.357-14.199,8.821-25.666,14.605-26.815c0.246,0.033,0.496,0.022,0.741-0.038c0.286,0.073,0.582,0.077,0.868,0.023
		c2.824,0.478,6.216,3.383,8.997,7.75C65.901,65.199,67.904,72.046,68.039,78.979z M27.778,75.065l13.815-36.964l7.212,10.652
		c-3.244,1.436-6.572,4.577-9.338,8.919c-3.502,5.498-5.645,12.128-6.161,18.891l-1.238-0.244
		C30.511,76.009,29.08,75.585,27.778,75.065z M66.063,143.038c-1.032,1.703-2.706,2.767-4.596,2.919
		c-0.187,0.015-0.374,0.023-0.568,0.023c-3.755,0-6.81-3.037-6.81-6.771c0-1.104-0.896-2-2-2s-2,0.896-2,2
		c0,3.919-3.396,7.058-7.38,6.747c-1.887-0.151-3.562-1.215-4.595-2.918c-1.146-1.888-1.319-4.225-0.464-6.25l3.772-8.926
		l0.037-0.078c3.39,4.145,7.343,6.474,11.148,6.474c3.555,0,7.261-2.01,10.478-5.606l0.049,0.124l3.382,8.014
		C67.376,138.815,67.206,141.15,66.063,143.038z M73.023,76.317l-1.102,0.216c-1.014-13.608-8.29-24.727-15.469-27.804l7.869-10.617
		l12.393,37.181C75.573,75.714,74.358,76.057,73.023,76.317z"/>
	<g>
		<path class="st14" d="M53.029,102c-5.51,0-10.142-7.381-11.524-18.366c-0.138-1.096,0.639-2.097,1.734-2.234
			c1.095-0.138,2.097,0.639,2.234,1.734C46.629,92.316,50.295,98,53.029,98c1.104,0,2,0.896,2,2S54.133,102,53.029,102z"/>
	</g>
	<g>
		<path class="st14" d="M15.999,51.807c-3.769,0-7.983-3.796-7.983-8.877c0-1.191,0.26-2.369,0.771-3.501
			c0.455-1.006,1.639-1.455,2.646-0.998c1.006,0.455,1.453,1.64,0.998,2.646c-0.276,0.61-0.416,1.234-0.416,1.853
			c0,2.783,2.416,4.877,3.983,4.877c1.104,0,2,0.896,2,2S17.104,51.807,15.999,51.807z"/>
	</g>
	<g>
		<path class="st14" d="M42.458,142.647c-0.385,0-0.773-0.11-1.117-0.342c-2.544-1.718-1.12-4.649-0.436-6.059
			c0.148-0.306,0.298-0.61,0.424-0.908c0.43-1.019,1.604-1.493,2.62-1.063c1.018,0.43,1.494,1.603,1.064,2.62
			c-0.152,0.36-0.331,0.729-0.51,1.099c-0.18,0.37-0.454,0.934-0.573,1.298c0.615,0.666,0.716,1.69,0.188,2.475
			C43.732,142.339,43.101,142.647,42.458,142.647z"/>
	</g>
</g>
</svg>
