<?xml version="1.0" encoding="utf-8"?>
<!-- Generator: Adobe Illustrator 21.0.0, SVG Export Plug-In . SVG Version: 6.00 Build 0)  -->
<svg version="1.1" id="Layer_1" xmlns="http://www.w3.org/2000/svg" xmlns:xlink="http://www.w3.org/1999/xlink" x="0px" y="0px"
	 viewBox="0 0 70.068 150" style="enable-background:new 0 0 70.068 150;" xml:space="preserve">
<style type="text/css">
	.st0{fill:#5BAF5D;}
	.st1{fill:#66C468;}
	.st2{fill:#76E378;}
	.st3{fill:#4D944F;}
	.st4{fill:#9AC4F0;}
	.st5{fill:#E0E1E2;}
	.st6{fill:#958079;}
	.st7{fill:#444B52;}
	.st8{fill:#6D6E71;}
	.st9{fill:#8D8F92;}
	.st10{fill:#855E3C;}
	.st11{fill:#A37C50;}
	.st12{fill:#805E3A;}
	.st13{fill:#6C4A30;}
	.st14{fill:#FFFFFF;}
	.st15{fill:#FCD75F;}
	.st16{fill:#EB5252;}
	.st17{fill:#B09A7D;}
	.st18{fill:#325743;}
	.st19{fill:#8C6645;}
	.st20{fill:#B58A64;}
	.st21{fill:#6E5036;}
	.st22{fill:#52351C;}
	.st23{fill:#D1D3D4;}
	.st24{fill:#6B6A6E;}
	.st25{fill:#68696B;}
	.st26{fill:#757578;}
	.st27{fill:#737476;}
	.st28{fill:#F1F2F2;}
	.st29{fill:#BABCBD;}
	.st30{fill:#38B077;}
	.st31{fill:#40A7FF;}
	.st32{fill:#4081FF;}
	.st33{fill:#4B5582;}
	.st34{fill:#3ECFCF;}
	.st35{fill:#89E2E2;}
	.st36{fill:#FF84C1;}
	.st37{fill:#FFB3D1;}
	.st38{fill:#FF99C1;}
	.st39{fill:#FFC642;}
	.st40{fill:#14E398;}
	.st41{fill:#FF91F6;}
	.st42{fill:#6BFFC9;}
	.st43{fill:#FF6BF3;}
	.st44{fill:#FFD67D;}
	.st45{fill:#425B80;}
	.st46{fill:#F2AC32;}
	.st47{fill:#F268EB;}
	.st48{fill:#00A7E8;}
	.st49{fill:#C7A983;}
	.st50{fill:#AD895D;}
	.st51{fill:#5E5755;}
	.st52{fill:#F24129;}
	.st53{fill:#C73522;}
	.st54{fill:#423E3A;}
	.st55{fill:#CC2121;}
	.st56{fill:#E0E0E0;}
	.st57{fill:#A31A1A;}
	.st58{fill:#2E292A;}
	.st59{fill:#EBEBEB;}
	.st60{fill:#58595B;}
	.st61{fill:#D2D3D4;}
	.st62{fill:#AFB1B5;}
	.st63{fill:#4CE637;}
	.st64{fill:#F03E3E;}
	.st65{fill:#DADADB;}
	.st66{opacity:0.3;}
	.st67{fill:#DFE0E1;}
	.st68{fill:#2CD4F5;}
	.st69{fill:#1BCDF0;}
	.st70{fill:none;stroke:#2CD4F5;stroke-width:4;stroke-linecap:round;stroke-miterlimit:10;}
	.st71{fill:#373F61;}
	.st72{opacity:0.2;}
	.st73{fill:#FF82A0;}
	.st74{fill:#E6E6E6;}
	.st75{fill:#FF5C83;}
	.st76{fill:#D4335B;}
	.st77{fill:#A0A2A5;}
	.st78{fill:#436C8C;}
	.st79{fill:#EDEDED;}
	.st80{fill:#2BAF73;}
	.st81{fill:#50DE9D;}
	.st82{fill:#D6D6D6;}
	.st83{fill:#1B8555;}
	.st84{fill:#3B434F;}
	.st85{fill:#73DEEF;}
	.st86{fill:#DCA0FF;}
	.st87{fill:#D78DFF;}
	.st88{fill:#DC92FF;}
	.st89{fill:#73D0E4;}
	.st90{fill:#726097;}
	.st91{fill:#C8CACC;}
	.st92{fill:#9D9EA1;}
	.st93{fill:#474747;}
	.st94{fill:#DBDBDB;}
	.st95{fill:#282829;}
	.st96{fill:#F7FFE0;}
	.st97{fill:#C862D4;}
	.st98{fill:#C8CFB5;}
	.st99{fill:#793B80;}
	.st100{fill:#46385E;}
	.st101{fill:#FFE9BC;}
	.st102{fill:#4C4450;}
	.st103{fill:#363038;}
	.st104{fill:#1E232B;}
</style>
<g>
	<g>
		<circle class="st101" cx="50.568" cy="106.5" r="4.5"/>
	</g>
	<g>
		<circle class="st101" cx="19.568" cy="106.5" r="4.5"/>
	</g>
	<g>
		<polygon class="st102" points="60.068,125 55.068,139 45.238,139 47.068,125 		"/>
	</g>
	<g>
		<path class="st102" d="M44.068,120l3,5l-1.83,14l-1.05,8.06c-0.07,0.54-0.53,0.94-1.07,0.94h-16.1c-0.54,0-1-0.4-1.07-0.94
			l-1.05-8.06l-1.83-14l4-5H44.068z"/>
	</g>
	<g>
		<polygon class="st103" points="23.068,125 24.898,139 16.068,139 11.068,125 		"/>
	</g>
	<g>
		<path class="st102" d="M66.068,89v32c0,2.21-1.79,4-4,4h-2h-13l-3-5h-17l-4,5h-12h-3c-2.21,0-4-1.79-4-4V89
			c0-17.12,13.88-31,31-31S66.068,71.88,66.068,89z M55.068,106.5c0-2.49-2.01-4.5-4.5-4.5c-2.49,0-4.5,2.01-4.5,4.5
			s2.01,4.5,4.5,4.5C53.058,111,55.068,108.99,55.068,106.5z M24.068,106.5c0-2.49-2.01-4.5-4.5-4.5s-4.5,2.01-4.5,4.5
			s2.01,4.5,4.5,4.5S24.068,108.99,24.068,106.5z"/>
	</g>
	<g>
		<path class="st103" d="M34.948,147.06l-1.05-8.06l-1.83-14l4-5h-9l-4,5l1.83,14l1.05,8.06c0.07,0.54,0.53,0.94,1.07,0.94h9
			C35.478,148,35.018,147.6,34.948,147.06z"/>
	</g>
	<g>
		<g>
			<path class="st103" d="M20.068,121v-10.05c-0.166,0.019-0.329,0.05-0.5,0.05c-2.49,0-4.5-2.01-4.5-4.5s2.01-4.5,4.5-4.5
				c0.171,0,0.334,0.032,0.5,0.05V89c0-14.353,9.758-26.424,23-29.952c-2.553-0.68-5.233-1.048-8-1.048c-17.12,0-31,13.88-31,31v32
				c0,2.21,1.79,4,4,4h3h12l0.091-0.113C21.389,124.474,20.068,122.896,20.068,121z"/>
		</g>
	</g>
	<g>
		<rect x="30.068" y="134" class="st104" width="2" height="10"/>
		<rect x="34.068" y="134" class="st104" width="2" height="10"/>
		<rect x="38.068" y="134" class="st104" width="2" height="10"/>
		<path class="st104" d="M70.068,110v-8h-2V89c0-18.196-14.804-33-33-33s-33,14.804-33,33v13h-2v8h2v2h-2v8h2v1c0,3.309,2.691,6,6,6
			h1.591l5,14h8.481l0.825,6.317c0.199,1.529,1.512,2.683,3.054,2.683h16.1c1.542,0,2.854-1.153,3.054-2.682L46.997,141h9.481l5-14
			h0.591c3.309,0,6-2.691,6-6v-1h2v-8h-2v-2H70.068z M17.477,137l-3.571-10h7.406l1.306,10H17.477z M42.309,146H27.827
			l-2.665-20.416L28.029,122h14.906l2.059,3.432L42.309,146z M53.659,137h-6.14l1.306-10h8.406L53.659,137z M64.068,121
			c0,1.103-0.897,2-2,2h-2H48.201l-3-5H26.107l-4,5H11.068H8.23H8.068c-1.103,0-2-0.897-2-2V89c0-15.991,13.01-29,29-29
			s29,13.009,29,29V121z"/>
		<path class="st104" d="M19.568,100c-3.584,0-6.5,2.916-6.5,6.5s2.916,6.5,6.5,6.5s6.5-2.916,6.5-6.5S23.152,100,19.568,100z
			 M19.568,109c-1.379,0-2.5-1.121-2.5-2.5s1.121-2.5,2.5-2.5s2.5,1.121,2.5,2.5S20.947,109,19.568,109z"/>
		<path class="st104" d="M50.568,100c-3.584,0-6.5,2.916-6.5,6.5s2.916,6.5,6.5,6.5s6.5-2.916,6.5-6.5S54.152,100,50.568,100z
			 M50.568,109c-1.379,0-2.5-1.121-2.5-2.5s1.121-2.5,2.5-2.5s2.5,1.121,2.5,2.5S51.947,109,50.568,109z"/>
	</g>
</g>
</svg>
