<?xml version="1.0" encoding="utf-8"?>
<!-- Generator: Adobe Illustrator 21.0.0, SVG Export Plug-In . SVG Version: 6.00 Build 0)  -->
<svg version="1.1" id="Layer_1" xmlns="http://www.w3.org/2000/svg" xmlns:xlink="http://www.w3.org/1999/xlink" x="0px" y="0px"
	 viewBox="0 0 106.204 150" style="enable-background:new 0 0 106.204 150;" xml:space="preserve">
<style type="text/css">
	.st0{fill:#5BAF5D;}
	.st1{fill:#66C468;}
	.st2{fill:#76E378;}
	.st3{fill:#4D944F;}
	.st4{fill:#9AC4F0;}
	.st5{fill:#E0E1E2;}
	.st6{fill:#958079;}
	.st7{fill:#444B52;}
	.st8{fill:#6D6E71;}
	.st9{fill:#8D8F92;}
	.st10{fill:#855E3C;}
	.st11{fill:#A37C50;}
	.st12{fill:#805E3A;}
	.st13{fill:#6C4A30;}
	.st14{fill:#FFFFFF;}
	.st15{fill:#FCD75F;}
	.st16{fill:#EB5252;}
	.st17{fill:#B09A7D;}
	.st18{fill:#325743;}
	.st19{fill:#8C6645;}
	.st20{fill:#B58A64;}
	.st21{fill:#6E5036;}
	.st22{fill:#52351C;}
	.st23{fill:#D1D3D4;}
	.st24{fill:#6B6A6E;}
	.st25{fill:#68696B;}
	.st26{fill:#757578;}
	.st27{fill:#737476;}
	.st28{fill:#F1F2F2;}
	.st29{fill:#BABCBD;}
	.st30{fill:#38B077;}
	.st31{fill:#40A7FF;}
	.st32{fill:#4081FF;}
	.st33{fill:#4B5582;}
	.st34{fill:#3ECFCF;}
	.st35{fill:#89E2E2;}
	.st36{fill:#FF84C1;}
	.st37{fill:#FFB3D1;}
	.st38{fill:#FF99C1;}
	.st39{fill:#FFC642;}
	.st40{fill:#14E398;}
	.st41{fill:#FF91F6;}
	.st42{fill:#6BFFC9;}
	.st43{fill:#FF6BF3;}
	.st44{fill:#FFD67D;}
	.st45{fill:#425B80;}
	.st46{fill:#F2AC32;}
	.st47{fill:#F268EB;}
	.st48{fill:#00A7E8;}
	.st49{fill:#C7A983;}
	.st50{fill:#AD895D;}
	.st51{fill:#5E5755;}
	.st52{fill:#F24129;}
	.st53{fill:#C73522;}
	.st54{fill:#423E3A;}
	.st55{fill:#CC2121;}
	.st56{fill:#E0E0E0;}
	.st57{fill:#A31A1A;}
	.st58{fill:#2E292A;}
	.st59{fill:#EBEBEB;}
	.st60{fill:#58595B;}
	.st61{fill:#D2D3D4;}
	.st62{fill:#AFB1B5;}
	.st63{fill:#4CE637;}
	.st64{fill:#F03E3E;}
	.st65{fill:#DADADB;}
	.st66{opacity:0.3;}
	.st67{fill:#DFE0E1;}
	.st68{fill:#2CD4F5;}
	.st69{fill:#1BCDF0;}
	.st70{fill:none;stroke:#2CD4F5;stroke-width:4;stroke-linecap:round;stroke-miterlimit:10;}
	.st71{fill:#373F61;}
	.st72{opacity:0.2;}
	.st73{fill:#FF82A0;}
	.st74{fill:#E6E6E6;}
	.st75{fill:#FF5C83;}
	.st76{fill:#D4335B;}
	.st77{fill:#A0A2A5;}
	.st78{fill:#436C8C;}
	.st79{fill:#EDEDED;}
	.st80{fill:#2BAF73;}
	.st81{fill:#50DE9D;}
	.st82{fill:#D6D6D6;}
	.st83{fill:#1B8555;}
	.st84{fill:#3B434F;}
	.st85{fill:#73DEEF;}
	.st86{fill:#DCA0FF;}
	.st87{fill:#D78DFF;}
	.st88{fill:#DC92FF;}
	.st89{fill:#73D0E4;}
	.st90{fill:#726097;}
	.st91{fill:#C8CACC;}
	.st92{fill:#9D9EA1;}
	.st93{fill:#474747;}
	.st94{fill:#DBDBDB;}
	.st95{fill:#282829;}
	.st96{fill:#F7FFE0;}
	.st97{fill:#C862D4;}
	.st98{fill:#C8CFB5;}
	.st99{fill:#793B80;}
	.st100{fill:#46385E;}
	.st101{fill:#FFE9BC;}
	.st102{fill:#4C4450;}
	.st103{fill:#363038;}
	.st104{fill:#1E232B;}
	.st105{fill:#FFBFC2;}
	.st106{fill:#AB0F19;}
	.st107{fill:#99D96F;}
	.st108{fill:#80B55C;}
	.st109{fill:#E3E3E3;}
	.st110{fill:#89C263;}
	.st111{fill:#68944B;}
	.st112{fill:#4D594D;}
	.st113{fill:#E0AFA9;}
	.st114{fill:#FFC7C0;}
	.st115{fill:#78584B;}
	.st116{fill:#FD244B;}
	.st117{fill:#D4D4D4;}
	.st118{fill:#8C6758;}
	.st119{fill:#453F3D;}
	.st120{fill:#523D34;}
	.st121{fill:#519E6C;}
	.st122{fill:#E83651;}
	.st123{fill:#ACBF6B;}
	.st124{fill:#3C7550;}
	.st125{fill:#91A352;}
	.st126{fill:#AD293D;}
	.st127{fill:#E8E8E8;}
	.st128{fill:#4D393C;}
</style>
<g>
	<g>
		<path class="st121" d="M6.65,69.7c0.21-0.04,0.43-0.07,0.67-0.1C7.09,69.63,6.86,69.67,6.65,69.7z"/>
	</g>
</g>
<g>
	<g>
		<g>
			<path class="st14" d="M95.56,65.33c2.65,1.15,5.17,2.63,6.7,5.13c2.44,4.02,3.87,9.1,3.87,14.24c0,25.96-20.28,45.3-46.24,45.3
				H47.8h-8.58l7-15.05c3.45,1.08,7.17,1.56,11.03,1.31c14.85-0.99,26.89-13.01,27.9-27.85c0.08-1.27-0.32-4.66-0.86-8.43
				c-0.57-4.04-1.31-8.53-1.77-11.36c-0.59-3.57-0.58-7.2,0.61-10.62c1.36-3.9,4-7.06,7-9.02l0.26-0.78
				c1.12,0.54,2.15,1.26,3.04,2.11c1.5,1.42,2.64,3.23,3.26,5.26c0.34,1.14,0.53,2.34,0.53,3.59c0,2.25-0.61,4.36-1.66,6.16V65.33z
				 M92.22,56.82c0-0.83-0.67-1.5-1.5-1.5s-1.5,0.67-1.5,1.5c0,0.83,0.67,1.5,1.5,1.5S92.22,57.65,92.22,56.82z"/>
		</g>
	</g>
	<g>
		<g>
			<path class="st122" d="M38.72,93.85c7.88-15.21,20.45-24.62,35.55-29.52c-0.73-1.57-1.14-3.32-1.14-5.17
				c0-6.72,5.39-12.16,12.04-12.16c1.87,0,3.64,0.43,5.22,1.2l-0.26,0.78c-3,1.96-5.64,5.12-7,9.02c-1.19,3.42-1.2,7.05-0.61,10.62
				c0.46,2.83,1.2,7.32,1.77,11.36L84.13,80c-19.07,3.56-30,16-37.91,34.95l-7,15.05l-9.09,8.35l0.31-13.42
				c0.33-4.55,0.92-9.08,1.95-13.52C33.9,104.86,36.04,99.02,38.72,93.85z"/>
		</g>
	</g>
	<g>
		<g>
			<path class="st122" d="M84.29,79.98c0.54,3.77,0.94,7.16,0.86,8.43c-1.01,14.84-13.05,26.86-27.9,27.85
				c-3.86,0.25-7.58-0.23-11.03-1.31C54.13,96,65.06,83.56,84.13,80L84.29,79.98z"/>
		</g>
	</g>
	<g>
		<g>
			<path class="st123" d="M23.7,86.01C23.84,86,23.99,86,24.13,86c6.09,0,11.46,3.12,14.59,7.85c-2.68,5.17-4.82,11.01-6.33,17.56
				c-1.03,4.44-1.62,8.97-1.95,13.52l-0.31,13.42l9.09-8.35h8.58c-1.91,11.35-11.78,20-23.67,20c-13.25,0-24-10.75-24-24
				c0-6.77,2.8-12.87,7.31-17.24c-0.53-1.66-0.81-3.43-0.81-5.26C6.63,93.98,14.23,86.23,23.7,86.01z"/>
		</g>
	</g>
	<g>
		<g>
			<path class="st124" d="M43.36,67.27c0.23,0.09,0.36,0.15,0.36,0.15s-1.85,7.54-7.33,10.17c-5.19,2.48-11.76-0.33-12.45-0.63
				c0-0.14,0.02-0.27,0.04-0.4c0.08-0.29,0.22-0.73,0.43-1.27c0.05-0.14,0.1-0.28,0.16-0.43c0.1-0.25,0.21-0.51,0.33-0.79
				c0.05-0.11,0.1-0.22,0.15-0.33c0.05-0.12,0.1-0.23,0.16-0.35c2.54,0.65,6.21,1.11,9.37-0.4c2.98-1.43,4.88-4.31,6-6.64
				c0.3,0.08,0.58,0.16,0.84,0.23c0.09,0.03,0.18,0.06,0.26,0.08c0.58,0.18,1.07,0.36,1.42,0.5C43.2,67.2,43.29,67.23,43.36,67.27z"
				/>
		</g>
	</g>
	<g>
		<g>
			<path class="st124" d="M43.36,67.27c-0.07-0.04-0.16-0.07-0.26-0.11C43.2,67.2,43.28,67.23,43.36,67.27z"/>
		</g>
	</g>
	<g>
		<g>
			<path class="st121" d="M41.42,66.58c0.09,0.03,0.18,0.06,0.26,0.08C41.6,66.64,41.51,66.61,41.42,66.58z"/>
		</g>
	</g>
	<g>
		<g>
			<path class="st121" d="M40.58,66.35c-1.12,2.33-3.02,5.21-6,6.64c-3.16,1.51-6.83,1.05-9.37,0.4c1.12-2.33,3.02-5.2,6-6.62
				C34.37,65.25,38.04,65.7,40.58,66.35z"/>
		</g>
	</g>
	<g>
		<g>
			<path class="st121" d="M24.24,55.85c1.81,2.71,2.01,6.1,1.79,8.66c-2.45-0.78-5.53-2.24-7.35-4.96c-1.82-2.72-2.01-6.11-1.8-8.67
				c-0.39-0.13-0.77-0.24-1.13-0.33C18.32,51.21,22.13,52.69,24.24,55.85z"/>
		</g>
	</g>
	<g>
		<g>
			<path class="st124" d="M26.03,64.51c0,0.02,0,0.04,0,0.05c-0.03,0.26-0.05,0.51-0.08,0.75c-0.03,0.26-0.06,0.5-0.1,0.73
				c-0.03,0.2-0.06,0.39-0.1,0.56c0,0.06-0.01,0.12-0.03,0.18c-0.03,0.16-0.06,0.32-0.09,0.46c-0.04,0.19-0.07,0.36-0.11,0.5
				c-0.03,0.12-0.05,0.22-0.07,0.3c-0.05,0.18-0.08,0.28-0.08,0.28s-7.72-0.75-11.1-5.8s-1.14-12.48-1.14-12.48s0.07,0.01,0.19,0.02
				c0.07,0.01,0.15,0.02,0.26,0.04c0.06,0.01,0.12,0.02,0.18,0.03c0.11,0.02,0.22,0.04,0.35,0.06c0.2,0.03,0.42,0.07,0.66,0.13
				c0.3,0.07,0.63,0.14,0.98,0.23c0.36,0.09,0.74,0.2,1.13,0.33c-0.21,2.56-0.02,5.95,1.8,8.67C20.5,62.27,23.58,63.73,26.03,64.51z
				"/>
		</g>
	</g>
	<g>
		<g>
			<path class="st121" d="M25.95,65.31c0.03-0.24,0.05-0.49,0.08-0.75C26.01,64.82,25.98,65.07,25.95,65.31z"/>
		</g>
	</g>
	<g>
		<g>
			<path class="st121" d="M25.85,66.04c-0.03,0.2-0.06,0.39-0.1,0.56C25.79,66.43,25.82,66.24,25.85,66.04z"/>
		</g>
	</g>
	<g>
		<g>
			<path class="st121" d="M25.63,67.24c0.03-0.14,0.06-0.3,0.09-0.46C25.69,66.95,25.66,67.1,25.63,67.24z"/>
		</g>
	</g>
	<g>
		<g>
			<path class="st124" d="M25.52,67.74c-0.03,0.11-0.05,0.21-0.07,0.3C25.47,67.96,25.49,67.86,25.52,67.74z"/>
		</g>
	</g>
	<g>
		<g>
			<path class="st124" d="M25.05,73.74c-0.05,0.11-0.1,0.22-0.15,0.33C24.94,73.96,24.99,73.85,25.05,73.74z"/>
		</g>
	</g>
	<g>
		<g>
			<path class="st121" d="M24.57,74.86c-0.06,0.15-0.11,0.29-0.16,0.43C24.46,75.15,24.51,75.01,24.57,74.86z"/>
		</g>
	</g>
	<g>
		<g>
			<path class="st124" d="M22.87,81.19c0.12,0.61,0.16,0.98,0.16,0.98s-7.4,2.34-12.49-0.97c-5.1-3.31-5.96-11.02-5.96-11.02
				s0.81-0.26,2.07-0.48c0.21-0.03,0.44-0.07,0.67-0.1c0.28-0.05,0.59-0.09,0.9-0.12c0.1-0.01,0.21-0.02,0.32-0.03
				c0.8,2.46,2.32,5.57,5.1,7.38c2.68,1.74,5.98,1.91,8.53,1.69c0.03,0.08,0.06,0.16,0.08,0.24c0.09,0.27,0.17,0.54,0.24,0.79
				c0.07,0.26,0.13,0.5,0.18,0.73C22.75,80.62,22.82,80.93,22.87,81.19z"/>
		</g>
	</g>
	<g>
		<g>
			<path class="st124" d="M22.67,80.28c0.09,0.35,0.15,0.65,0.2,0.91C22.82,80.93,22.75,80.62,22.67,80.28z"/>
		</g>
	</g>
	<g>
		<g>
			<path class="st124" d="M22.49,79.55c-0.07-0.25-0.15-0.52-0.24-0.79C22.34,79.03,22.42,79.3,22.49,79.55z"/>
		</g>
	</g>
	<g>
		<g>
			<path class="st124" d="M22.18,78.52c0.03,0.08,0.05,0.16,0.07,0.24c-0.02-0.08-0.05-0.16-0.08-0.24H22.18z"/>
		</g>
	</g>
	<g>
		<g>
			<path class="st125" d="M15,126c0-5.201,1.652-10.006,4.463-13.935c1.555-2.174,2.234-4.807,2.07-7.474
				c-0.022-0.361-0.033-0.724-0.033-1.09c0-6.976,4.088-12.987,9.995-15.796C29.221,86.623,26.687,86,24,86
				c-0.14,0-0.29,0-0.43,0.01C14.1,86.23,6.5,93.98,6.5,103.5c0,1.83,0.28,3.6,0.81,5.26c-4.839,4.689-7.709,11.369-7.265,18.732
				c0.679,11.249,9.333,20.67,20.489,22.261c3.867,0.551,7.58,0.159,10.966-0.956C21.922,145.645,15,136.63,15,126z"/>
		</g>
	</g>
	<g>
		<g>
			<path class="st121" d="M17.08,71.14c2.77,1.8,4.29,4.92,5.09,7.38c-2.55,0.22-5.85,0.05-8.53-1.69c-2.78-1.81-4.3-4.92-5.1-7.38
				c-0.11,0.01-0.22,0.02-0.32,0.03C10.8,69.21,14.29,69.33,17.08,71.14z"/>
		</g>
	</g>
	<g>
		<g>
			<path class="st121" d="M15.75,50.55c-0.35-0.09-0.68-0.16-0.98-0.23C15.07,50.38,15.4,50.45,15.75,50.55z"/>
		</g>
	</g>
	<g>
		<g>
			<path class="st121" d="M14.11,50.19c-0.13-0.02-0.24-0.04-0.35-0.06C13.87,50.14,13.98,50.16,14.11,50.19z"/>
		</g>
	</g>
	<g>
		<g>
			<path class="st121" d="M13.32,50.06c0.07,0.01,0.16,0.02,0.26,0.04C13.47,50.08,13.39,50.07,13.32,50.06z"/>
		</g>
	</g>
	<g>
		<g>
			<g>
				<path class="st126" d="M40.448,119.926c0.33-4.55,0.92-9.08,1.95-13.52c1.51-6.55,3.65-12.39,6.33-17.56
					C53.94,78.787,61.212,71.279,69.901,65.92C56.752,71.149,45.826,80.135,38.72,93.85c-2.68,5.17-4.82,11.01-6.33,17.56
					c-1.03,4.44-1.62,8.97-1.95,13.52l-0.31,13.42l9.09-8.35l1.047-2.252L40.448,119.926z"/>
			</g>
		</g>
	</g>
	<g>
		<g>
			<path class="st127" d="M59.89,130c1.472,0,2.922-0.07,4.354-0.192c14.596-5.658,26.09-18.808,26.393-35.652
				c0.032-1.751-0.44-6.413-1.183-11.6c-0.784-5.559-1.803-11.738-2.436-15.632c-0.812-4.913-0.798-9.908,0.839-14.614
				c0.289-0.827,0.632-1.62,0.999-2.397c-2.46,1.965-4.563,4.753-5.727,8.088c-1.19,3.42-1.2,7.05-0.61,10.62
				c0.46,2.83,1.2,7.32,1.77,11.36c0.54,3.77,0.94,7.16,0.86,8.43c-1.01,14.84-13.05,26.86-27.9,27.85
				c-3.86,0.25-7.58-0.23-11.03-1.31l-5.953,12.798L39.22,130h8.58H59.89z"/>
		</g>
	</g>
	<g>
		<g>
			<path class="st126" d="M84.818,83.951c-0.145-1.211-0.327-2.564-0.528-3.971L84.13,80c-19.07,3.56-30,16-37.91,34.95
				c2.624,0.822,5.406,1.293,8.285,1.363C61.31,100.281,70.361,89.006,84.818,83.951z"/>
		</g>
	</g>
	<g>
		<circle class="st128" cx="90.72" cy="56.82" r="1.5"/>
	</g>
	<g>
		<path class="st128" d="M103.2,52.33l-6.51,3.24c-0.62-2.03-1.76-3.84-3.26-5.26C98.42,48.34,103.2,52.33,103.2,52.33z"/>
	</g>
	<g>
		<path class="st128" d="M23.7,89.02l-1-0.01c-0.04-0.974-0.07-1.986-0.07-3.01c0-2.083,0.104-4.135,0.312-6.1
			c0.004-0.171,0.025-0.333,0.051-0.496c0.784-7.413,2.9-14.451,6.283-20.871c0.258-0.488,0.862-0.676,1.351-0.418
			c0.489,0.258,0.677,0.862,0.419,1.351c-3.265,6.194-5.307,12.99-6.07,20.199c-0.019,0.13-0.034,0.209-0.034,0.295
			c0,0.035-0.002,0.07-0.006,0.105C24.732,81.975,24.63,83.971,24.63,86c0,0.996,0.03,1.983,0.069,2.97L23.7,89.02z"/>
	</g>
</g>
</svg>
