<?xml version="1.0" encoding="utf-8"?>
<!-- Generator: Adobe Illustrator 21.0.0, SVG Export Plug-In . SVG Version: 6.00 Build 0)  -->
<svg version="1.1" id="Layer_1" xmlns="http://www.w3.org/2000/svg" xmlns:xlink="http://www.w3.org/1999/xlink" x="0px" y="0px"
	 viewBox="0 0 77.068 150" style="enable-background:new 0 0 77.068 150;" xml:space="preserve">
<style type="text/css">
	.st0{fill:#5BAF5D;}
	.st1{fill:#66C468;}
	.st2{fill:#76E378;}
	.st3{fill:#4D944F;}
	.st4{fill:#9AC4F0;}
	.st5{fill:#E0E1E2;}
	.st6{fill:#958079;}
	.st7{fill:#444B52;}
	.st8{fill:#6D6E71;}
	.st9{fill:#8D8F92;}
	.st10{fill:#855E3C;}
	.st11{fill:#A37C50;}
	.st12{fill:#805E3A;}
	.st13{fill:#6C4A30;}
	.st14{fill:#FFFFFF;}
	.st15{fill:#FCD75F;}
	.st16{fill:#EB5252;}
	.st17{fill:#B09A7D;}
	.st18{fill:#325743;}
	.st19{fill:#8C6645;}
	.st20{fill:#B58A64;}
	.st21{fill:#6E5036;}
	.st22{fill:#52351C;}
	.st23{fill:#D1D3D4;}
	.st24{fill:#6B6A6E;}
	.st25{fill:#68696B;}
	.st26{fill:#757578;}
	.st27{fill:#737476;}
	.st28{fill:#F1F2F2;}
	.st29{fill:#BABCBD;}
	.st30{fill:#38B077;}
	.st31{fill:#40A7FF;}
	.st32{fill:#4081FF;}
	.st33{fill:#4B5582;}
	.st34{fill:#3ECFCF;}
	.st35{fill:#89E2E2;}
	.st36{fill:#FF84C1;}
	.st37{fill:#FFB3D1;}
	.st38{fill:#FF99C1;}
	.st39{fill:#FFC642;}
	.st40{fill:#14E398;}
	.st41{fill:#FF91F6;}
	.st42{fill:#6BFFC9;}
	.st43{fill:#FF6BF3;}
	.st44{fill:#FFD67D;}
	.st45{fill:#425B80;}
	.st46{fill:#F2AC32;}
	.st47{fill:#F268EB;}
	.st48{fill:#00A7E8;}
	.st49{fill:#C7A983;}
	.st50{fill:#AD895D;}
	.st51{fill:#5E5755;}
	.st52{fill:#F24129;}
	.st53{fill:#C73522;}
	.st54{fill:#423E3A;}
	.st55{fill:#CC2121;}
	.st56{fill:#E0E0E0;}
	.st57{fill:#A31A1A;}
	.st58{fill:#2E292A;}
	.st59{fill:#EBEBEB;}
	.st60{fill:#58595B;}
	.st61{fill:#D2D3D4;}
	.st62{fill:#AFB1B5;}
	.st63{fill:#4CE637;}
	.st64{fill:#F03E3E;}
	.st65{fill:#DADADB;}
	.st66{opacity:0.3;}
	.st67{fill:#DFE0E1;}
	.st68{fill:#2CD4F5;}
	.st69{fill:#1BCDF0;}
	.st70{fill:none;stroke:#2CD4F5;stroke-width:4;stroke-linecap:round;stroke-miterlimit:10;}
	.st71{fill:#373F61;}
	.st72{opacity:0.2;}
	.st73{fill:#FF82A0;}
	.st74{fill:#E6E6E6;}
	.st75{fill:#FF5C83;}
	.st76{fill:#D4335B;}
	.st77{fill:#A0A2A5;}
	.st78{fill:#436C8C;}
	.st79{fill:#EDEDED;}
	.st80{fill:#2BAF73;}
	.st81{fill:#50DE9D;}
	.st82{fill:#D6D6D6;}
	.st83{fill:#1B8555;}
	.st84{fill:#3B434F;}
	.st85{fill:#73DEEF;}
	.st86{fill:#DCA0FF;}
	.st87{fill:#D78DFF;}
	.st88{fill:#DC92FF;}
	.st89{fill:#73D0E4;}
	.st90{fill:#726097;}
	.st91{fill:#C8CACC;}
	.st92{fill:#9D9EA1;}
	.st93{fill:#474747;}
	.st94{fill:#DBDBDB;}
	.st95{fill:#282829;}
	.st96{fill:#F7FFE0;}
	.st97{fill:#C862D4;}
	.st98{fill:#C8CFB5;}
	.st99{fill:#793B80;}
	.st100{fill:#46385E;}
</style>
<g>
	<g>
		<path class="st96" d="M54.898,80.56c9.37,9.37,6.36,27.58-6.72,40.66c-13,13-31.05,16.05-40.48,6.89l-0.35-0.35
			c-9.16-9.43-6.11-27.48,6.89-40.48C27.318,74.2,45.528,71.19,54.898,80.56z M41.818,114.86c9.18-9.18,11.87-21.37,6.01-27.23
			s-18.05-3.16-27.23,6.01c-9.17,9.18-11.86,21.37-6.01,27.23C20.448,126.72,32.638,124.03,41.818,114.86z"/>
	</g>
	<g>
		<path class="st97" d="M65.148,90.81c11.77,11.78,12.95,30.14,3.52,43.23c-1.04,1.46-2.21,2.84-3.52,4.15l-6.76,5.23
			c-5.21,3.05-11.07,4.58-16.92,4.58c-8.58,0-17.15-3.27-23.69-9.81l-10.08-10.08c9.43,9.16,27.48,6.11,40.48-6.89
			c13.08-13.08,16.09-31.29,6.72-40.66L65.148,90.81z"/>
	</g>
	<g>
		<path class="st96" d="M47.828,87.63c5.86,5.86,3.17,18.05-6.01,27.23c-9.18,9.17-21.37,11.86-27.23,6.01
			c-5.85-5.86-3.16-18.05,6.01-27.23C29.778,84.47,41.968,81.77,47.828,87.63z M35.448,108.49c5.28-5.27,7.65-11.44,5.31-13.79
			c-2.35-2.34-8.52,0.03-13.79,5.31c-5.27,5.27-7.65,11.44-5.3,13.79C24.008,116.14,30.178,113.76,35.448,108.49z"/>
	</g>
	<g>
		<path class="st96" d="M40.758,94.7c2.34,2.35-0.03,8.52-5.31,13.79c-5.27,5.27-11.44,7.65-13.78,5.31
			c-2.35-2.35,0.03-8.52,5.3-13.79C32.238,94.73,38.408,92.36,40.758,94.7z"/>
	</g>
	<g>
		<path class="st98" d="M6.957,102.171c13.08-13.08,31.29-16.09,40.66-6.72c5.151,5.151,6.553,12.975,4.605,21.149
			c9.552-12.471,10.986-27.73,2.677-36.04c-9.37-9.37-27.58-6.36-40.66,6.72c-5.891,5.891-9.731,12.818-11.325,19.511
			C4.132,105.2,5.476,103.651,6.957,102.171z"/>
	</g>
	<g>
		<g>
			<path class="st99" d="M65.148,90.81l-10.25-10.25c5.318,5.318,6.644,13.485,4.408,21.945c5.743,11.064,4.908,24.656-2.525,34.975
				c-1.04,1.46-2.21,2.84-3.52,4.15l-6.76,5.23c-0.586,0.343-1.182,0.66-1.783,0.964c4.75-0.462,9.427-1.92,13.671-4.404l6.76-5.23
				c1.31-1.31,2.48-2.69,3.52-4.15C78.098,120.95,76.918,102.59,65.148,90.81z"/>
		</g>
	</g>
	<g>
		<path class="st100" d="M24.168,116.669c3.587,0,8.355-2.427,12.692-6.764c6.25-6.238,8.535-13.382,5.309-16.622
			c-3.235-3.222-10.379-0.938-16.615,5.312c-2.744,2.744-4.861,5.829-5.96,8.687c-1.304,3.387-1.069,6.204,0.66,7.932
			C21.239,116.198,22.588,116.669,24.168,116.669z M23.326,108.719c0.891-2.313,2.732-4.972,5.057-7.296
			c4.118-4.125,7.922-5.633,9.837-5.633c0.528,0,0.913,0.115,1.121,0.321c0.96,0.965-0.042,5.709-5.307,10.964
			c0,0-0.001,0-0.001,0.001c-5.259,5.259-9.994,6.268-10.951,5.31C22.663,111.966,22.576,110.67,23.326,108.719z"/>
		<path class="st100" d="M22.931,126.005c6.413,0,13.964-3.399,20.3-9.729c0.001,0,0.001-0.001,0.001-0.001
			c10.112-10.112,12.753-23.315,6.011-30.059c-6.736-6.738-19.94-4.1-30.06,6.011c-10.101,10.112-12.74,23.314-6.008,30.059
			C15.693,124.799,19.11,126.005,22.931,126.005z M22.011,95.055c5.454-5.448,12.188-8.497,17.565-8.497
			c2.753,0,5.15,0.8,6.838,2.486c4.983,4.984,2.231,16.159-6.01,24.401c-8.243,8.233-19.418,10.986-24.401,6.012
			C11.027,114.473,13.779,103.297,22.011,95.055z"/>
		<path class="st100" d="M66.562,89.396l-10.96-10.96c-0.114-0.114-0.241-0.206-0.373-0.287
			c-10.394-8.915-29.041-5.648-42.406,7.718c-12.842,12.841-16.366,30.716-8.606,41.282c0.095,0.286,0.248,0.557,0.476,0.785
			l1.603,1.603c0.003,0.003,0.005,0.006,0.007,0.008c0.002,0.002,0.004,0.004,0.006,0.006l10.053,10.054
			C23.067,146.309,31.983,150,41.468,150c5.783,0,11.47-1.428,16.559-4.112c1.322,1.176,2.982,1.773,4.646,1.773
			c1.792,0,3.585-0.683,4.949-2.047l2.831-2.83c2.433-2.434,2.689-6.226,0.783-8.954C80.385,119.812,78.533,101.376,66.562,89.396z
			 M15.652,88.694C27.934,76.412,44.905,73.4,53.483,81.973l0.002,0.002c8.576,8.578,5.562,25.548-6.721,37.831
			c-12.153,12.151-29.046,15.237-37.664,6.878l-0.317-0.317c0,0,0-0.001-0.001-0.001C0.413,117.751,3.495,100.852,15.652,88.694z
			 M19.192,136.776l-1.805-1.806c1.417,0.238,2.881,0.355,4.378,0.355c9.162,0,19.543-4.407,27.828-12.692
			c9.677-9.677,14.054-22.12,12.354-32.197l1.787,1.787c10.975,10.983,12.367,28.078,3.307,40.656
			c-0.947,1.33-2.029,2.61-3.218,3.808l-6.554,5.07c-4.786,2.775-10.246,4.242-15.8,4.242C33.051,146,25.14,142.725,19.192,136.776z
			 M67.624,139.956l-2.83,2.83c-0.862,0.862-2.12,1.084-3.192,0.675l4.769-3.689c0.067-0.052,0.131-0.108,0.19-0.168
			c0.667-0.667,1.305-1.36,1.91-2.07C68.559,138.4,68.285,139.294,67.624,139.956z"/>
	</g>
</g>
</svg>
