<?xml version="1.0" encoding="utf-8"?>
<!-- Generator: Adobe Illustrator 21.0.0, SVG Export Plug-In . SVG Version: 6.00 Build 0)  -->
<svg version="1.1" id="Layer_1" xmlns="http://www.w3.org/2000/svg" xmlns:xlink="http://www.w3.org/1999/xlink" x="0px" y="0px"
	 viewBox="0 0 71.068 150" style="enable-background:new 0 0 71.068 150;" xml:space="preserve">
<style type="text/css">
	.st0{fill:#5BAF5D;}
	.st1{fill:#66C468;}
	.st2{fill:#76E378;}
	.st3{fill:#4D944F;}
	.st4{fill:#9AC4F0;}
	.st5{fill:#E0E1E2;}
	.st6{fill:#958079;}
	.st7{fill:#444B52;}
	.st8{fill:#6D6E71;}
	.st9{fill:#8D8F92;}
	.st10{fill:#855E3C;}
	.st11{fill:#A37C50;}
	.st12{fill:#805E3A;}
	.st13{fill:#6C4A30;}
	.st14{fill:#FFFFFF;}
	.st15{fill:#FCD75F;}
	.st16{fill:#EB5252;}
	.st17{fill:#B09A7D;}
	.st18{fill:#325743;}
	.st19{fill:#8C6645;}
	.st20{fill:#B58A64;}
	.st21{fill:#6E5036;}
	.st22{fill:#52351C;}
	.st23{fill:#D1D3D4;}
	.st24{fill:#6B6A6E;}
	.st25{fill:#68696B;}
	.st26{fill:#757578;}
	.st27{fill:#737476;}
	.st28{fill:#F1F2F2;}
	.st29{fill:#BABCBD;}
	.st30{fill:#38B077;}
	.st31{fill:#40A7FF;}
	.st32{fill:#4081FF;}
	.st33{fill:#4B5582;}
	.st34{fill:#3ECFCF;}
	.st35{fill:#89E2E2;}
	.st36{fill:#FF84C1;}
	.st37{fill:#FFB3D1;}
	.st38{fill:#FF99C1;}
	.st39{fill:#FFC642;}
	.st40{fill:#14E398;}
	.st41{fill:#FF91F6;}
	.st42{fill:#6BFFC9;}
	.st43{fill:#FF6BF3;}
	.st44{fill:#FFD67D;}
	.st45{fill:#425B80;}
	.st46{fill:#F2AC32;}
	.st47{fill:#F268EB;}
	.st48{fill:#00A7E8;}
	.st49{fill:#C7A983;}
	.st50{fill:#AD895D;}
	.st51{fill:#5E5755;}
	.st52{fill:#F24129;}
	.st53{fill:#C73522;}
	.st54{fill:#423E3A;}
	.st55{fill:#CC2121;}
	.st56{fill:#E0E0E0;}
	.st57{fill:#A31A1A;}
	.st58{fill:#2E292A;}
	.st59{fill:#EBEBEB;}
	.st60{fill:#58595B;}
	.st61{fill:#D2D3D4;}
	.st62{fill:#AFB1B5;}
	.st63{fill:#4CE637;}
	.st64{fill:#F03E3E;}
	.st65{fill:#DADADB;}
	.st66{opacity:0.3;}
	.st67{fill:#DFE0E1;}
	.st68{fill:#2CD4F5;}
	.st69{fill:#1BCDF0;}
	.st70{fill:none;stroke:#2CD4F5;stroke-width:4;stroke-linecap:round;stroke-miterlimit:10;}
	.st71{fill:#373F61;}
	.st72{opacity:0.2;}
	.st73{fill:#FF82A0;}
	.st74{fill:#E6E6E6;}
	.st75{fill:#FF5C83;}
	.st76{fill:#D4335B;}
	.st77{fill:#A0A2A5;}
	.st78{fill:#436C8C;}
	.st79{fill:#EDEDED;}
	.st80{fill:#2BAF73;}
	.st81{fill:#50DE9D;}
	.st82{fill:#D6D6D6;}
	.st83{fill:#1B8555;}
	.st84{fill:#3B434F;}
	.st85{fill:#73DEEF;}
	.st86{fill:#DCA0FF;}
	.st87{fill:#D78DFF;}
	.st88{fill:#DC92FF;}
	.st89{fill:#73D0E4;}
	.st90{fill:#726097;}
	.st91{fill:#C8CACC;}
	.st92{fill:#9D9EA1;}
	.st93{fill:#474747;}
	.st94{fill:#DBDBDB;}
	.st95{fill:#282829;}
	.st96{fill:#F7FFE0;}
	.st97{fill:#C862D4;}
	.st98{fill:#C8CFB5;}
	.st99{fill:#793B80;}
	.st100{fill:#46385E;}
</style>
<g>
	<g>
		<rect x="11.068" y="126" class="st14" width="33" height="11"/>
	</g>
	<g>
		<path class="st14" d="M58.938,128.08c0.13,0.02,0.28-0.01,0.39-0.1l2.14-1.61c0.19-0.14,0.25-0.39,0.14-0.59
			c-0.79-1.47-2-2.45-3.5-2.86v-2.44c0-0.27-0.22-0.48-0.5-0.48h-2.82c-0.27,0-0.5,0.21-0.5,0.48v2.5c-2.1,0.64-3.39,2.22-3.39,4.2
			c0,2.06,1.34,3.64,3.88,4.57l1.61,0.59c1.19,0.47,1.53,0.74,1.53,1.19c0,0.84-1.1,0.93-1.58,0.93c-1.28,0-2.35-0.65-3.17-1.93
			c-0.08-0.12-0.2-0.2-0.34-0.22c-0.14-0.03-0.28,0.01-0.4,0.09l-2.17,1.61c-0.19,0.14-0.24,0.39-0.14,0.59
			c0.91,1.71,2.35,2.87,4.17,3.36v2.56c0,0.27,0.23,0.48,0.5,0.48h2.82c0.28,0,0.5-0.21,0.5-0.48v-2.5c2.42-0.55,3.96-2.3,3.96-4.53
			c0-2.13-1.29-3.64-3.96-4.62l-1.76-0.61c-0.99-0.39-1.29-0.64-1.29-1.05c0-0.64,0.76-0.74,1.21-0.74c0.96,0,1.66,0.42,2.33,1.4
			C58.678,127.98,58.798,128.06,58.938,128.08z M69.068,52v96h-67V52h5.05c-0.02,0.17-0.05,0.33-0.05,0.5c0,2.49,2.01,4.5,4.5,4.5
			s4.5-2.01,4.5-4.5c0-0.17-0.03-0.33-0.05-0.5h7.1c-0.02,0.17-0.05,0.33-0.05,0.5c0,2.49,2.01,4.5,4.5,4.5s4.5-2.01,4.5-4.5
			c0-0.17-0.03-0.33-0.05-0.5h7.1c-0.02,0.17-0.05,0.33-0.05,0.5c0,2.49,2.01,4.5,4.5,4.5c2.49,0,4.5-2.01,4.5-4.5
			c0-0.17-0.03-0.33-0.05-0.5h7.1c-0.02,0.17-0.05,0.33-0.05,0.5c0,2.49,2.01,4.5,4.5,4.5c2.49,0,4.5-2.01,4.5-4.5
			c0-0.17-0.03-0.33-0.05-0.5H69.068z M44.068,137v-11h-33v11H44.068z"/>
	</g>
	<g>
		<g>
			<path class="st94" d="M11.068,137v-11h13V55.3c-0.616-0.77-1-1.735-1-2.8c0-0.17,0.03-0.33,0.05-0.5h-7.1
				c0.02,0.17,0.05,0.33,0.05,0.5c0,2.49-2.01,4.5-4.5,4.5s-4.5-2.01-4.5-4.5c0-0.17,0.03-0.33,0.05-0.5h-5.05v96h22v-11H11.068z"/>
		</g>
	</g>
	<g>
		<path class="st95" d="M58.108,128.87l-1.76-0.61c-0.99-0.39-1.29-0.64-1.29-1.05c0-0.64,0.76-0.74,1.21-0.74
			c0.96,0,1.66,0.42,2.33,1.4c0.08,0.11,0.2,0.19,0.34,0.21c0.13,0.02,0.28-0.01,0.39-0.1l2.14-1.61c0.19-0.14,0.25-0.39,0.14-0.59
			c-0.79-1.47-2-2.45-3.5-2.86v-2.44c0-0.27-0.22-0.48-0.5-0.48h-2.82c-0.27,0-0.5,0.21-0.5,0.48v2.5c-2.1,0.64-3.39,2.22-3.39,4.2
			c0,2.06,1.34,3.64,3.88,4.57l1.61,0.59c1.19,0.47,1.53,0.74,1.53,1.19c0,0.84-1.1,0.93-1.58,0.93c-1.28,0-2.35-0.65-3.17-1.93
			c-0.08-0.12-0.2-0.2-0.34-0.22c-0.14-0.03-0.28,0.01-0.4,0.09l-2.17,1.61c-0.19,0.14-0.24,0.39-0.14,0.59
			c0.91,1.71,2.35,2.87,4.17,3.36v2.56c0,0.27,0.23,0.48,0.5,0.48h2.82c0.28,0,0.5-0.21,0.5-0.48v-2.5c2.42-0.55,3.96-2.3,3.96-4.53
			C62.068,131.36,60.778,129.85,58.108,128.87z"/>
		<path class="st95" d="M44.068,65h-33c-1.104,0-2,0.896-2,2s0.896,2,2,2h33c1.104,0,2-0.896,2-2S45.172,65,44.068,65z"/>
		<path class="st95" d="M52.068,69h8c1.104,0,2-0.896,2-2s-0.896-2-2-2h-8c-1.104,0-2,0.896-2,2S50.963,69,52.068,69z"/>
		<path class="st95" d="M52.068,80h8c1.104,0,2-0.896,2-2s-0.896-2-2-2h-8c-1.104,0-2,0.896-2,2S50.963,80,52.068,80z"/>
		<path class="st95" d="M52.068,91h8c1.104,0,2-0.896,2-2s-0.896-2-2-2h-8c-1.104,0-2,0.896-2,2S50.963,91,52.068,91z"/>
		<path class="st95" d="M52.068,102h8c1.104,0,2-0.896,2-2s-0.896-2-2-2h-8c-1.104,0-2,0.896-2,2S50.963,102,52.068,102z"/>
		<path class="st95" d="M52.068,113h8c1.104,0,2-0.896,2-2s-0.896-2-2-2h-8c-1.104,0-2,0.896-2,2S50.963,113,52.068,113z"/>
		<path class="st95" d="M44.068,76h-33c-1.104,0-2,0.896-2,2s0.896,2,2,2h33c1.104,0,2-0.896,2-2S45.172,76,44.068,76z"/>
		<path class="st95" d="M44.068,87h-33c-1.104,0-2,0.896-2,2s0.896,2,2,2h33c1.104,0,2-0.896,2-2S45.172,87,44.068,87z"/>
		<path class="st95" d="M44.068,98h-33c-1.104,0-2,0.896-2,2s0.896,2,2,2h33c1.104,0,2-0.896,2-2S45.172,98,44.068,98z"/>
		<path class="st95" d="M44.068,109h-33c-1.104,0-2,0.896-2,2s0.896,2,2,2h33c1.104,0,2-0.896,2-2S45.172,109,44.068,109z"/>
		<path class="st95" d="M44.068,124h-33c-1.104,0-2,0.896-2,2v11c0,1.104,0.896,2,2,2h33c1.104,0,2-0.896,2-2v-11
			C46.068,124.896,45.172,124,44.068,124z M42.068,135h-29v-7h29V135z"/>
		<path class="st95" d="M69.068,50h-5.05c-0.572,0-1.117,0.245-1.496,0.673c-0.38,0.428-0.558,0.998-0.489,1.566l0.035,0.26
			c0,1.378-1.121,2.5-2.5,2.5s-2.5-1.122-2.501-2.474l0.037-0.286c0.068-0.568-0.109-1.138-0.489-1.566
			C56.236,50.245,55.691,50,55.118,50h-7.101c-0.572,0-1.117,0.245-1.496,0.673c-0.38,0.428-0.558,0.998-0.489,1.566l0.035,0.26
			c0,1.378-1.121,2.5-2.5,2.5s-2.5-1.122-2.501-2.474l0.037-0.286c0.068-0.568-0.109-1.138-0.489-1.566
			C40.236,50.245,39.691,50,39.118,50h-7.101c-0.572,0-1.117,0.245-1.496,0.673c-0.38,0.428-0.558,0.998-0.489,1.566l0.035,0.26
			c0,1.378-1.121,2.5-2.5,2.5s-2.5-1.122-2.501-2.474l0.037-0.286c0.068-0.568-0.109-1.138-0.489-1.566
			C24.236,50.245,23.691,50,23.118,50h-7.101c-0.572,0-1.117,0.245-1.496,0.673c-0.38,0.428-0.558,0.998-0.489,1.566l0.035,0.26
			c0,1.378-1.121,2.5-2.5,2.5s-2.5-1.122-2.501-2.474l0.037-0.286c0.068-0.568-0.109-1.138-0.489-1.566
			C8.236,50.245,7.691,50,7.118,50H2.068c-1.104,0-2,0.896-2,2v96c0,1.104,0.896,2,2,2h67c1.104,0,2-0.896,2-2V52
			C71.068,50.896,70.172,50,69.068,50z M67.068,146h-63V54h1.175c0.679,2.863,3.257,5,6.325,5s5.646-2.137,6.325-5h3.35
			c0.679,2.863,3.257,5,6.325,5s5.646-2.137,6.325-5h3.35c0.679,2.863,3.257,5,6.325,5s5.646-2.137,6.325-5h3.35
			c0.679,2.863,3.257,5,6.325,5s5.646-2.137,6.325-5h1.175V146z"/>
	</g>
</g>
</svg>
