<?xml version="1.0" encoding="utf-8"?>
<!-- Generator: Adobe Illustrator 21.0.0, SVG Export Plug-In . SVG Version: 6.00 Build 0)  -->
<svg version="1.1" id="Layer_1" xmlns="http://www.w3.org/2000/svg" xmlns:xlink="http://www.w3.org/1999/xlink" x="0px" y="0px"
	 viewBox="0 0 98 150" style="enable-background:new 0 0 98 150;" xml:space="preserve">
<style type="text/css">
	.st0{fill:#5BAF5D;}
	.st1{fill:#66C468;}
	.st2{fill:#76E378;}
	.st3{fill:#4D944F;}
	.st4{fill:#9AC4F0;}
	.st5{fill:#E0E1E2;}
	.st6{fill:#958079;}
	.st7{fill:#444B52;}
	.st8{fill:#6D6E71;}
	.st9{fill:#8D8F92;}
	.st10{fill:#855E3C;}
	.st11{fill:#A37C50;}
	.st12{fill:#805E3A;}
	.st13{fill:#6C4A30;}
	.st14{fill:#FFFFFF;}
	.st15{fill:#FCD75F;}
	.st16{fill:#EB5252;}
	.st17{fill:#B09A7D;}
	.st18{fill:#325743;}
	.st19{fill:#8C6645;}
	.st20{fill:#B58A64;}
	.st21{fill:#6E5036;}
	.st22{fill:#52351C;}
	.st23{fill:#D1D3D4;}
	.st24{fill:#6B6A6E;}
	.st25{fill:#68696B;}
	.st26{fill:#757578;}
	.st27{fill:#737476;}
	.st28{fill:#F1F2F2;}
	.st29{fill:#BABCBD;}
	.st30{fill:#38B077;}
	.st31{fill:#40A7FF;}
	.st32{fill:#4081FF;}
	.st33{fill:#4B5582;}
	.st34{fill:#3ECFCF;}
	.st35{fill:#89E2E2;}
	.st36{fill:#FF84C1;}
	.st37{fill:#FFB3D1;}
	.st38{fill:#FF99C1;}
	.st39{fill:#FFC642;}
	.st40{fill:#14E398;}
	.st41{fill:#FF91F6;}
	.st42{fill:#6BFFC9;}
	.st43{fill:#FF6BF3;}
	.st44{fill:#FFD67D;}
	.st45{fill:#425B80;}
	.st46{fill:#F2AC32;}
	.st47{fill:#F268EB;}
	.st48{fill:#00A7E8;}
	.st49{fill:#C7A983;}
	.st50{fill:#AD895D;}
	.st51{fill:#5E5755;}
	.st52{fill:#F24129;}
	.st53{fill:#C73522;}
	.st54{fill:#423E3A;}
	.st55{fill:#CC2121;}
	.st56{fill:#E0E0E0;}
	.st57{fill:#A31A1A;}
	.st58{fill:#2E292A;}
	.st59{fill:#EBEBEB;}
	.st60{fill:#58595B;}
	.st61{fill:#D2D3D4;}
	.st62{fill:#AFB1B5;}
	.st63{fill:#4CE637;}
	.st64{fill:#F03E3E;}
	.st65{fill:#DADADB;}
	.st66{opacity:0.3;}
	.st67{fill:#DFE0E1;}
	.st68{fill:#2CD4F5;}
	.st69{fill:#1BCDF0;}
	.st70{fill:none;stroke:#2CD4F5;stroke-width:4;stroke-linecap:round;stroke-miterlimit:10;}
	.st71{fill:#373F61;}
	.st72{opacity:0.2;}
	.st73{fill:#FF82A0;}
	.st74{fill:#E6E6E6;}
	.st75{fill:#FF5C83;}
	.st76{fill:#D4335B;}
	.st77{fill:#A0A2A5;}
	.st78{fill:#436C8C;}
	.st79{fill:#EDEDED;}
	.st80{fill:#2BAF73;}
	.st81{fill:#50DE9D;}
	.st82{fill:#D6D6D6;}
	.st83{fill:#1B8555;}
	.st84{fill:#3B434F;}
	.st85{fill:#73DEEF;}
	.st86{fill:#DCA0FF;}
	.st87{fill:#D78DFF;}
	.st88{fill:#DC92FF;}
	.st89{fill:#73D0E4;}
	.st90{fill:#726097;}
	.st91{fill:#C8CACC;}
	.st92{fill:#9D9EA1;}
	.st93{fill:#474747;}
	.st94{fill:#DBDBDB;}
	.st95{fill:#282829;}
	.st96{fill:#F7FFE0;}
	.st97{fill:#C862D4;}
	.st98{fill:#C8CFB5;}
	.st99{fill:#793B80;}
	.st100{fill:#46385E;}
	.st101{fill:#FFE9BC;}
	.st102{fill:#4C4450;}
	.st103{fill:#363038;}
	.st104{fill:#1E232B;}
	.st105{fill:#FFBFC2;}
	.st106{fill:#AB0F19;}
	.st107{fill:#99D96F;}
	.st108{fill:#80B55C;}
	.st109{fill:#E3E3E3;}
	.st110{fill:#89C263;}
	.st111{fill:#68944B;}
	.st112{fill:#4D594D;}
</style>
<g>
	<g>
		<path class="st107" d="M96,61v22c0,0.55-0.45,1-1,1h-4H57V61.03c0-0.57-0.46-1.03-1.03-1.03H95C95.55,60,96,60.45,96,61z"/>
	</g>
	<g>
		<path class="st108" d="M91,84v61c0,0.55-0.45,1-1,1H57V84H91z"/>
	</g>
	<g>
		<path class="st109" d="M84.41,33.29c3.89,5.87,0.39,15.05-7.83,20.5C70.17,58.04,62.79,58.77,58,56.1l-0.12-0.03
			c0.03-0.1,0.05-0.21,0.05-0.31L58,55.77c2.63,0.94,7.2-0.17,11.52-3.03c5.52-3.66,8.55-8.81,6.76-11.5
			c-1.78-2.69-7.7-1.9-13.23,1.76c-2.71,1.8-4.82,3.95-6.05,6l-0.82,0.14c-0.85-0.7-1.94-1.13-3.12-1.14
			c-0.21-5.29,3.3-11.41,9.42-15.47C70.7,27.07,80.52,27.41,84.41,33.29z"/>
	</g>
	<g>
		<path class="st14" d="M41.11,56.04c-0.02-0.09-0.04-0.19-0.04-0.28C41.02,55.51,41,55.26,41,55v-2c0-1.38,0.56-2.63,1.46-3.54
			c0.9-0.89,2.12-1.44,3.48-1.46c0.02,0,0.04,0,0.06,0h7c0.02,0,0.04,0,0.06,0c1.18,0.01,2.27,0.44,3.12,1.14
			C57.29,50.06,58,51.45,58,53v2c0,0.26-0.02,0.51-0.07,0.76c0,0.1-0.02,0.21-0.05,0.31C57.4,58.32,55.39,60,53,60h-7
			C43.6,60,41.59,58.3,41.11,56.04z"/>
	</g>
	<g>
		<path class="st110" d="M64.97,60h-9c0.57,0,1.03,0.46,1.03,1.03V84h9V61.03C66,60.46,65.54,60,64.97,60z"/>
	</g>
	<g>
		<rect x="57" y="84" class="st111" width="9" height="62"/>
	</g>
	<g>
		<path class="st14" d="M57,146v0.97c0,0.57-0.46,1.03-1.03,1.03H42.03c-0.57,0-1.03-0.46-1.03-1.03V146V84V61.03
			c0-0.57,0.46-1.03,1.03-1.03H46h7h2.97c0.57,0,1.03,0.46,1.03,1.03V84V146z"/>
	</g>
	<g>
		<path class="st14" d="M36.52,32.53c6.12,4.06,9.63,10.18,9.42,15.47c-1.36,0.02-2.58,0.57-3.48,1.46L42,49
			c-1.24-2.05-3.35-4.2-6.05-6c-5.53-3.66-11.45-4.45-13.23-1.76c-1.79,2.69,1.24,7.84,6.76,11.5c4.32,2.86,8.88,3.97,11.52,3.03
			l0.07-0.01c0,0.09,0.02,0.19,0.04,0.28c-4.79,2.74-12.23,2.03-18.69-2.25c-8.22-5.45-11.72-14.63-7.83-20.5
			C18.48,27.41,28.3,27.07,36.52,32.53z"/>
	</g>
	<g>
		<path class="st107" d="M3,60h39.03C41.46,60,41,60.46,41,61.03V84h-2H7H3c-0.55,0-1-0.45-1-1V61C2,60.45,2.45,60,3,60z"/>
	</g>
	<g>
		<path class="st108" d="M41,84v62H8c-0.55,0-1-0.45-1-1V84h32H41z"/>
	</g>
	<g>
		<path class="st109" d="M55.97,60H53h-5.03c0.57,0,1.03,0.46,1.03,1.03V84v62v0.97c0,0.57-0.46,1.03-1.03,1.03h8
			c0.57,0,1.03-0.46,1.03-1.03V146V84V61.03C57,60.46,56.54,60,55.97,60z"/>
	</g>
	<g>
		<path class="st109" d="M56.18,49.14c-0.85-0.7-1.94-1.13-3.12-1.14c-0.02,0-0.04,0-0.06,0h-3.544v12H53c2.39,0,4.4-1.68,4.88-3.93
			c0.03-0.1,0.05-0.21,0.05-0.31C57.98,55.51,58,55.26,58,55v-2C58,51.45,57.29,50.06,56.18,49.14z"/>
	</g>
	<g>
		<path class="st112" d="M95,58H72.859c1.641-0.659,3.264-1.507,4.827-2.543c9.122-6.049,12.887-16.488,8.393-23.271
			c-1.776-2.686-4.586-4.484-8.126-5.202c-5.15-1.044-11.349,0.405-16.577,3.879C55.593,34.699,51.761,40.458,51.147,46h-3.293
			c-0.615-5.542-4.447-11.301-10.227-15.136c-5.229-3.473-11.431-4.922-16.578-3.879c-3.54,0.717-6.35,2.516-8.126,5.201
			c-4.495,6.783-0.73,17.223,8.393,23.272c1.565,1.037,3.206,1.886,4.872,2.542H3c-1.654,0-3,1.346-3,3v22c0,1.654,1.346,3,3,3h2v59
			c0,1.654,1.346,3,3,3h31.192c0.424,1.163,1.53,2,2.838,2H55.97c1.308,0,2.414-0.837,2.838-2H90c1.654,0,3-1.346,3-3V86h2
			c1.654,0,3-1.346,3-3V61C98,59.346,96.654,58,95,58z M39,53v1.077c-2.042,0.042-5.176-0.859-8.414-3.003
			c-3.843-2.547-5.941-5.568-6.317-7.432c-0.079-0.391-0.123-0.934,0.119-1.298c0.392-0.591,1.679-0.836,3.277-0.623
			c2.171,0.289,4.789,1.363,7.176,2.943c2.152,1.434,3.936,3.135,5.099,4.84C39.331,50.559,39,51.755,39,53z M43.07,55.64
			l-0.038-0.271C43.01,55.26,43,55.143,43,55v-2c0-0.8,0.313-1.558,0.866-2.118c0.563-0.558,1.311-0.871,2.074-0.882h7.104
			c0.674,0.005,1.336,0.248,1.859,0.68C55.6,51.257,56,52.103,56,53v2c0,0.145-0.01,0.26-0.03,0.362l-0.046,0.291
			C55.634,57.013,54.404,58,53,58h-7C44.613,58,43.395,57.031,43.07,55.64z M60,54.079V53c0-1.245-0.335-2.443-0.943-3.495
			c1.155-1.704,2.938-3.404,5.097-4.837c2.393-1.583,5.011-2.658,7.182-2.947c1.6-0.213,2.887,0.031,3.28,0.627
			c0.239,0.36,0.195,0.902,0.116,1.293c-0.376,1.864-2.475,4.884-6.314,7.431C65.173,53.22,62.04,54.122,60,54.079z M63.587,34.196
			c4.363-2.899,9.437-4.13,13.571-3.291c2.475,0.502,4.406,1.708,5.585,3.49c3.276,4.946,0.017,12.898-7.269,17.729
			c-1.734,1.15-3.567,2.029-5.399,2.625c0.183-0.115,0.368-0.221,0.55-0.341c4.283-2.84,7.358-6.663,8.027-9.975
			c0.327-1.625,0.083-3.112-0.705-4.296c-1.307-1.974-3.846-2.819-7.141-2.38c-2.792,0.372-5.938,1.642-8.864,3.578
			c-2.376,1.578-4.397,3.468-5.835,5.42c-0.317-0.157-0.642-0.294-0.982-0.401C55.623,42.002,58.797,37.374,63.587,34.196z
			 M16.258,34.394c1.179-1.781,3.109-2.987,5.585-3.489c4.133-0.84,9.207,0.392,13.572,3.292c4.781,3.173,7.952,7.791,8.457,12.137
			c-0.342,0.109-0.672,0.249-0.994,0.409c-1.442-1.947-3.458-3.833-5.824-5.41c-2.923-1.934-6.069-3.204-8.861-3.576
			c-3.305-0.441-5.834,0.406-7.138,2.376c-0.791,1.188-1.035,2.675-0.707,4.301c0.668,3.312,3.744,7.134,8.028,9.975
			c0.181,0.12,0.365,0.225,0.548,0.339c-1.829-0.596-3.661-1.474-5.398-2.624C16.24,47.293,12.98,39.34,16.258,34.394z M7,82H5H4V62
			h35v20H7z M9,86h30v58H9V86z M55,146H43V62h3h7h2V146z M89,144H59V86h30V144z M94,82h-1h-2H59V62h35V82z"/>
		<path class="st112" d="M14,112c-1.104,0-2,0.896-2,2v15c0,1.104,0.896,2,2,2s2-0.896,2-2v-15C16,112.896,15.104,112,14,112z"/>
		<path class="st112" d="M84,113c1.104,0,2-0.896,2-2V91c0-1.104-0.896-2-2-2s-2,0.896-2,2v20C82,112.104,82.895,113,84,113z"/>
		<path class="st112" d="M14,134c-1.104,0-2,0.896-2,2v3c0,1.104,0.896,2,2,2s2-0.896,2-2v-3C16,134.896,15.104,134,14,134z"/>
		<path class="st112" d="M25,65H9c-1.104,0-2,0.896-2,2v6c0,1.104,0.896,2,2,2s2-0.896,2-2v-4h14c1.104,0,2-0.896,2-2
			S26.104,65,25,65z"/>
	</g>
</g>
</svg>
