<?xml version="1.0" encoding="utf-8"?>
<!-- Generator: Adobe Illustrator 21.0.0, SVG Export Plug-In . SVG Version: 6.00 Build 0)  -->
<svg version="1.1" id="Layer_1" xmlns="http://www.w3.org/2000/svg" xmlns:xlink="http://www.w3.org/1999/xlink" x="0px" y="0px"
	 viewBox="0 0 97.037 150" style="enable-background:new 0 0 97.037 150;" xml:space="preserve">
<style type="text/css">
	.st0{fill:#5BAF5D;}
	.st1{fill:#66C468;}
	.st2{fill:#76E378;}
	.st3{fill:#4D944F;}
	.st4{fill:#9AC4F0;}
	.st5{fill:#E0E1E2;}
	.st6{fill:#958079;}
	.st7{fill:#444B52;}
	.st8{fill:#6D6E71;}
	.st9{fill:#8D8F92;}
	.st10{fill:#855E3C;}
	.st11{fill:#A37C50;}
	.st12{fill:#805E3A;}
	.st13{fill:#6C4A30;}
	.st14{fill:#FFFFFF;}
	.st15{fill:#FCD75F;}
	.st16{fill:#EB5252;}
	.st17{fill:#B09A7D;}
	.st18{fill:#325743;}
	.st19{fill:#8C6645;}
	.st20{fill:#B58A64;}
	.st21{fill:#6E5036;}
	.st22{fill:#52351C;}
	.st23{fill:#D1D3D4;}
	.st24{fill:#6B6A6E;}
	.st25{fill:#68696B;}
	.st26{fill:#757578;}
	.st27{fill:#737476;}
	.st28{fill:#F1F2F2;}
	.st29{fill:#BABCBD;}
	.st30{fill:#38B077;}
	.st31{fill:#40A7FF;}
	.st32{fill:#4081FF;}
	.st33{fill:#4B5582;}
	.st34{fill:#3ECFCF;}
	.st35{fill:#89E2E2;}
	.st36{fill:#FF84C1;}
	.st37{fill:#FFB3D1;}
	.st38{fill:#FF99C1;}
	.st39{fill:#FFC642;}
	.st40{fill:#14E398;}
	.st41{fill:#FF91F6;}
	.st42{fill:#6BFFC9;}
	.st43{fill:#FF6BF3;}
	.st44{fill:#FFD67D;}
	.st45{fill:#425B80;}
	.st46{fill:#F2AC32;}
	.st47{fill:#F268EB;}
	.st48{fill:#00A7E8;}
	.st49{fill:#C7A983;}
	.st50{fill:#AD895D;}
	.st51{fill:#5E5755;}
	.st52{fill:#F24129;}
	.st53{fill:#C73522;}
	.st54{fill:#423E3A;}
</style>
<g>
	<path class="st46" d="M95.037,126.5c0,1.39-0.29,2.75-0.84,4.07L81.877,133l9.38-15C93.697,120.61,95.037,123.48,95.037,126.5z"/>
</g>
<g>
	<path class="st47" d="M81.877,133l12.32-2.43c-4,9.66-22.01,17.03-43.89,17.41C67.897,147.56,81.877,141.01,81.877,133z"/>
</g>
<g>
	<path class="st48" d="M91.257,118l-9.38,15c0-3.53-2.71-6.78-7.26-9.34L91.257,118z"/>
</g>
<g>
	<path class="st47" d="M91.257,118l-16.64,5.66l1.3-14.54C82.607,111.38,87.947,114.44,91.257,118z"/>
</g>
<g>
	<path class="st46" d="M75.917,109.12l-1.3,14.54c-3.07-1.74-6.98-3.16-11.45-4.14L75.917,109.12z"/>
</g>
<g>
	<path class="st48" d="M75.917,109.12l-12.75,10.4l-5.19-14.07c2.41,0.22,4.75,0.54,7,0.94C68.907,107.07,72.587,108,75.917,109.12z
		"/>
</g>
<g>
	<path class="st49" d="M74.617,123.66c4.55,2.56,7.26,5.81,7.26,9.34c0,8.01-13.98,14.56-31.57,14.98
		c-0.58,0.01-1.18,0.02-1.77,0.02s-1.19-0.01-1.77-0.02c-17.59-0.42-31.57-6.97-31.57-14.98c0-3.53,2.71-6.78,7.26-9.34
		c3.07-1.74,6.98-3.16,11.45-4.14c3.99-0.88,8.44-1.41,13.13-1.5c0.5-0.01,1-0.02,1.5-0.02s1,0.01,1.5,0.02
		c4.69,0.09,9.14,0.62,13.13,1.5C67.637,120.5,71.547,121.92,74.617,123.66z"/>
</g>
<g>
	<path class="st49" d="M57.977,105.45c-3.05-0.3-6.21-0.45-9.44-0.45s-6.39,0.15-9.44,0.45c-2.41,0.22-4.75,0.54-7.01,0.94
		l-0.07-0.36C33.677,90,40.437,78,48.537,78c8.09,0,14.86,12,16.51,28.03l-0.07,0.36C62.727,105.99,60.387,105.67,57.977,105.45z"/>
</g>
<g>
	<path class="st47" d="M57.977,105.45l5.19,14.07c-3.99-0.88-8.44-1.41-13.13-1.5V118L57.977,105.45z"/>
</g>
<g>
	<path class="st46" d="M57.977,105.45L50.037,118v0.02c-0.5-0.01-1-0.02-1.5-0.02s-1,0.01-1.5,0.02V118l-7.94-12.55
		c3.05-0.3,6.21-0.45,9.44-0.45S54.927,105.15,57.977,105.45z"/>
</g>
<g>
	<path class="st48" d="M47.037,118v0.02c-4.69,0.09-9.14,0.62-13.13,1.5l5.19-14.07L47.037,118z"/>
</g>
<g>
	<path class="st47" d="M39.097,105.45l-5.19,14.07l-12.75-10.4c3.33-1.12,7-2.05,10.93-2.73
		C34.347,105.99,36.687,105.67,39.097,105.45z"/>
</g>
<g>
	<path class="st46" d="M21.157,109.12l12.75,10.4c-4.47,0.98-8.38,2.4-11.45,4.14L21.157,109.12z"/>
</g>
<g>
	<path class="st48" d="M15.197,133c0,8.01,13.98,14.56,31.57,14.98c-21.88-0.38-39.89-7.75-43.89-17.41L15.197,133z"/>
</g>
<g>
	<path class="st48" d="M21.157,109.12l1.3,14.54L5.817,118C9.127,114.44,14.467,111.38,21.157,109.12z"/>
</g>
<g>
	<path class="st47" d="M5.817,118l16.64,5.66c-4.55,2.56-7.26,5.81-7.26,9.34L5.817,118z"/>
</g>
<g>
	<g>
		<path class="st50" d="M54.039,79.941C52.314,78.688,50.464,78,48.537,78c-8.1,0-14.86,12-16.52,28.03l0.07,0.36
			c2.26-0.4,4.6-0.72,7.01-0.94c1.32-0.13,2.67-0.219,4.029-0.292C44.498,93.35,48.649,83.855,54.039,79.941z"/>
	</g>
</g>
<g>
	<path class="st46" d="M5.817,118l9.38,15l-12.32-2.43c-0.55-1.32-0.84-2.68-0.84-4.07C2.037,123.48,3.377,120.61,5.817,118z"/>
</g>
<g>
	<path class="st50" d="M50.307,137.972c-0.58,0.01-1.18,0.02-1.77,0.02s-1.19-0.01-1.77-0.02
		c-13.738-0.328-25.274-4.395-29.667-9.977c-1.232,1.566-1.903,3.251-1.903,5.005c0,8.01,13.98,14.56,31.57,14.98
		c0.58,0.01,1.18,0.02,1.77,0.02s1.19-0.01,1.77-0.02c17.59-0.42,31.57-6.97,31.57-14.98c0-1.754-0.671-3.439-1.903-5.005
		C75.581,133.577,64.045,137.644,50.307,137.972z"/>
</g>
<path class="st51" d="M92.722,116.638c-3.506-3.77-9.095-7.024-16.167-9.413c-3.023-1.017-6.268-1.848-9.644-2.5
	C64.904,87.756,57.43,76,48.537,76c-8.889,0-16.366,11.756-18.382,28.724c-3.369,0.651-6.609,1.483-9.637,2.502
	c-7.07,2.388-12.659,5.643-16.161,9.408C1.49,119.7,0.037,123.02,0.037,126.5c0,1.628,0.334,3.256,0.992,4.836
	c4.383,10.585,23.177,18.252,45.703,18.645v0c0,0,0.001,0,0.001,0c0.591,0.01,1.202,0.02,1.804,0.02c0.597,0,1.204-0.01,1.805-0.02
	v0.001c22.526-0.393,41.32-8.06,45.702-18.642c0.659-1.583,0.993-3.211,0.993-4.839C97.037,123.02,95.584,119.7,92.722,116.638z
	 M82.529,128.186c-0.804-1.385-1.959-2.701-3.46-3.927l7.514-2.556L82.529,128.186z M14.545,128.186l-4.054-6.484l7.514,2.556
	C16.504,125.485,15.349,126.801,14.545,128.186z M4.385,128.83c-0.227-0.776-0.348-1.556-0.348-2.33
	c0-1.698,0.543-3.379,1.596-5.023l5.42,8.667L4.385,128.83z M34.706,101.335c4.164-0.633,8.911-0.969,13.831-0.969
	c4.903,0,9.662,0.337,13.824,0.969c0.16,0.88,0.302,1.777,0.428,2.691c-1.541-0.226-3.085-0.426-4.616-0.565
	c-6.209-0.611-13.076-0.609-19.258-0.002c-1.539,0.141-3.09,0.341-4.638,0.568C34.402,103.112,34.546,102.215,34.706,101.335z
	 M77.678,111.885c3.916,1.518,7.199,3.318,9.728,5.312l-10.523,3.58L77.678,111.885z M60.976,107.801
	c1.223,0.16,2.446,0.344,3.66,0.56c2.457,0.425,4.826,0.964,7.101,1.589l-7.662,6.25L60.976,107.801z M48.923,116.02
	c-0.257-0.001-0.515-0.001-0.772,0l-5.588-8.831c3.926-0.24,8.009-0.24,11.947,0L48.923,116.02z M36.098,107.8L33,116.199
	l-7.663-6.25c2.277-0.626,4.645-1.165,7.097-1.59C33.65,108.144,34.874,107.961,36.098,107.8z M20.191,120.777l-10.523-3.58
	c2.528-1.994,5.812-3.794,9.728-5.312L20.191,120.777z M24.187,120.555l-0.615-6.884l6.014,4.905
	C27.654,119.152,25.838,119.814,24.187,120.555z M39.571,109.942l3.939,6.226c-2.225,0.146-4.396,0.395-6.507,0.735L39.571,109.942z
	 M57.503,109.942l2.568,6.961c-2.111-0.34-4.282-0.589-6.507-0.735L57.503,109.942z M73.502,113.671l-0.615,6.884
	c-1.652-0.741-3.467-1.403-5.398-1.979L73.502,113.671z M91.441,121.477c1.052,1.643,1.596,3.325,1.596,5.023
	c0,0.773-0.121,1.553-0.348,2.33l-6.667,1.315L91.441,121.477z M48.537,80c5.289,0,10.27,6.947,12.914,17.166
	c-3.98-0.523-8.395-0.799-12.914-0.799c-4.534,0-8.937,0.278-12.919,0.801C38.267,86.948,43.251,80,48.537,80z M7.086,133.439
	l6.274,1.237c0.336,1.739,1.195,3.393,2.499,4.929C12.138,137.823,9.138,135.738,7.086,133.439z M46.815,145.981
	c-0.004,0-0.008,0-0.013,0v-0.001c-0.024,0-0.048-0.002-0.072-0.002c-14.279-0.362-29.534-5.652-29.534-12.979
	c0-2.635,2.216-5.333,6.246-7.6c2.896-1.642,6.662-2.999,10.895-3.928c3.981-0.878,8.267-1.367,12.738-1.453
	c0.487-0.01,0.974-0.02,1.461-0.02s0.974,0.01,1.461,0.02c4.472,0.086,8.757,0.575,12.74,1.453c4.23,0.929,7.997,2.286,10.898,3.931
	c4.024,2.264,6.24,4.962,6.24,7.597c0,7.34-15.312,12.638-29.601,12.98c-0.002,0-0.003,0-0.005,0l0,0
	C49.137,146,47.922,145.999,46.815,145.981z M81.215,139.605c1.304-1.536,2.164-3.19,2.5-4.929l6.275-1.237
	C87.937,135.738,84.937,137.824,81.215,139.605z"/>
</svg>
