<?xml version="1.0" encoding="utf-8"?>
<!-- Generator: Adobe Illustrator 21.0.0, SVG Export Plug-In . SVG Version: 6.00 Build 0)  -->
<svg version="1.1" id="Layer_1" xmlns="http://www.w3.org/2000/svg" xmlns:xlink="http://www.w3.org/1999/xlink" x="0px" y="0px"
	 viewBox="0 0 69.016 150" style="enable-background:new 0 0 69.016 150;" xml:space="preserve">
<style type="text/css">
	.st0{fill:#5BAF5D;}
	.st1{fill:#66C468;}
	.st2{fill:#76E378;}
	.st3{fill:#4D944F;}
	.st4{fill:#9AC4F0;}
	.st5{fill:#E0E1E2;}
	.st6{fill:#958079;}
	.st7{fill:#444B52;}
	.st8{fill:#6D6E71;}
	.st9{fill:#8D8F92;}
	.st10{fill:#855E3C;}
	.st11{fill:#A37C50;}
	.st12{fill:#805E3A;}
	.st13{fill:#6C4A30;}
	.st14{fill:#FFFFFF;}
	.st15{fill:#FCD75F;}
	.st16{fill:#EB5252;}
	.st17{fill:#B09A7D;}
	.st18{fill:#325743;}
	.st19{fill:#8C6645;}
	.st20{fill:#B58A64;}
	.st21{fill:#6E5036;}
	.st22{fill:#52351C;}
	.st23{fill:#D1D3D4;}
	.st24{fill:#6B6A6E;}
	.st25{fill:#68696B;}
	.st26{fill:#757578;}
	.st27{fill:#737476;}
	.st28{fill:#F1F2F2;}
	.st29{fill:#BABCBD;}
	.st30{fill:#38B077;}
	.st31{fill:#40A7FF;}
	.st32{fill:#4081FF;}
	.st33{fill:#4B5582;}
	.st34{fill:#3ECFCF;}
	.st35{fill:#89E2E2;}
	.st36{fill:#FF84C1;}
	.st37{fill:#FFB3D1;}
	.st38{fill:#FF99C1;}
	.st39{fill:#FFC642;}
	.st40{fill:#14E398;}
	.st41{fill:#FF91F6;}
	.st42{fill:#6BFFC9;}
	.st43{fill:#FF6BF3;}
	.st44{fill:#FFD67D;}
	.st45{fill:#425B80;}
	.st46{fill:#F2AC32;}
	.st47{fill:#F268EB;}
	.st48{fill:#00A7E8;}
	.st49{fill:#C7A983;}
	.st50{fill:#AD895D;}
	.st51{fill:#5E5755;}
	.st52{fill:#F24129;}
	.st53{fill:#C73522;}
	.st54{fill:#423E3A;}
	.st55{fill:#CC2121;}
	.st56{fill:#E0E0E0;}
	.st57{fill:#A31A1A;}
	.st58{fill:#2E292A;}
	.st59{fill:#EBEBEB;}
	.st60{fill:#58595B;}
	.st61{fill:#D2D3D4;}
	.st62{fill:#AFB1B5;}
	.st63{fill:#4CE637;}
	.st64{fill:#F03E3E;}
	.st65{fill:#DADADB;}
	.st66{opacity:0.3;}
	.st67{fill:#DFE0E1;}
	.st68{fill:#2CD4F5;}
	.st69{fill:#1BCDF0;}
	.st70{fill:none;stroke:#2CD4F5;stroke-width:4;stroke-linecap:round;stroke-miterlimit:10;}
	.st71{fill:#373F61;}
	.st72{opacity:0.2;}
	.st73{fill:#FF82A0;}
	.st74{fill:#E6E6E6;}
	.st75{fill:#FF5C83;}
	.st76{fill:#D4335B;}
	.st77{fill:#A0A2A5;}
	.st78{fill:#436C8C;}
	.st79{fill:#EDEDED;}
	.st80{fill:#2BAF73;}
	.st81{fill:#50DE9D;}
	.st82{fill:#D6D6D6;}
	.st83{fill:#1B8555;}
	.st84{fill:#3B434F;}
	.st85{fill:#73DEEF;}
	.st86{fill:#DCA0FF;}
	.st87{fill:#D78DFF;}
	.st88{fill:#DC92FF;}
	.st89{fill:#73D0E4;}
	.st90{fill:#726097;}
	.st91{fill:#C8CACC;}
	.st92{fill:#9D9EA1;}
	.st93{fill:#474747;}
	.st94{fill:#DBDBDB;}
	.st95{fill:#282829;}
	.st96{fill:#F7FFE0;}
	.st97{fill:#C862D4;}
	.st98{fill:#C8CFB5;}
	.st99{fill:#793B80;}
	.st100{fill:#46385E;}
	.st101{fill:#FFE9BC;}
	.st102{fill:#4C4450;}
	.st103{fill:#363038;}
	.st104{fill:#1E232B;}
	.st105{fill:#FFBFC2;}
	.st106{fill:#AB0F19;}
	.st107{fill:#99D96F;}
	.st108{fill:#80B55C;}
	.st109{fill:#E3E3E3;}
	.st110{fill:#89C263;}
	.st111{fill:#68944B;}
	.st112{fill:#4D594D;}
	.st113{fill:#E0AFA9;}
	.st114{fill:#FFC7C0;}
	.st115{fill:#78584B;}
	.st116{fill:#FD244B;}
	.st117{fill:#D4D4D4;}
	.st118{fill:#8C6758;}
	.st119{fill:#453F3D;}
	.st120{fill:#523D34;}
	.st121{fill:#519E6C;}
	.st122{fill:#E83651;}
	.st123{fill:#ACBF6B;}
	.st124{fill:#3C7550;}
	.st125{fill:#91A352;}
	.st126{fill:#AD293D;}
	.st127{fill:#E8E8E8;}
	.st128{fill:#4D393C;}
	.st129{fill:#ABABAB;}
	.st130{fill:#E16512;}
	.st131{fill:#808080;}
	.st132{fill:#A09AF0;}
	.st133{fill:#49494A;}
	.st134{fill:#414142;}
	.st135{fill:#6B63CF;}
	.st136{fill:#7E77DB;}
	.st137{fill:#3B3B3B;}
	.st138{fill:#2A2A2B;}
	.st139{fill:#AEE826;}
</style>
<g>
	<g>
		<path class="st129" d="M35.125,84.903l2.75-2.728c16.898,1.705,30.094,15.972,30.094,33.327c0,18.499-15.001,33.501-33.501,33.501
			c-18.504,0-33.501-15.001-33.501-33.501c0-17.764,13.822-32.295,31.303-33.427l2.828,2.802L35.125,84.903z M34.468,85.999
			c-16.293,0-29.502,13.209-29.502,29.502c0,16.289,13.209,29.498,29.502,29.498s29.498-13.209,29.498-29.498
			C63.966,99.208,50.761,85.999,34.468,85.999z"/>
	</g>
	<g>
		<path class="st117" d="M35.764,82.031l-0.64,2.871l-0.966-2.898c0.104-0.004,0.204-0.004,0.309-0.004
			C34.903,82.001,35.333,82.01,35.764,82.031z"/>
	</g>
	<g>
		<path class="st129" d="M30.709,71.65l3.45,10.355c-0.553,0-1.105,0.022-1.649,0.052L22.943,71.65H30.709z"/>
	</g>
	<g>
		<path class="st129" d="M34.159,82.005l0.966,2.898l-0.026-0.026l-2.589-2.819C33.054,82.027,33.606,82.005,34.159,82.005z"/>
	</g>
	<g>
		<path class="st130" d="M54.268,65.916L37.874,82.175c-0.074-0.009-0.148-0.017-0.222-0.022l9.654-10.503L54.268,65.916z"/>
	</g>
	<g>
		<path class="st130" d="M22.943,71.65l9.567,10.407c-0.083,0.004-0.161,0.009-0.239,0.017L15.981,65.916L22.943,71.65z"/>
	</g>
	<g>
		<path class="st117" d="M38.07,71.65l-2.306,10.381c-0.431-0.022-0.861-0.03-1.297-0.03c-0.104,0-0.204,0-0.309,0.004l-3.45-10.355
			h4.416H38.07z"/>
	</g>
	<g>
		<path class="st129" d="M37.652,82.153l-2.528,2.75l0.64-2.871C36.399,82.049,37.03,82.092,37.652,82.153z"/>
	</g>
	<g>
		<path class="st130" d="M32.51,82.057l2.589,2.819l-2.828-2.802C32.349,82.066,32.427,82.062,32.51,82.057z"/>
	</g>
	<g>
		<path class="st129" d="M35.764,82.031L38.07,71.65h9.237l-9.654,10.503C37.03,82.092,36.399,82.049,35.764,82.031z"/>
	</g>
	<g>
		<path class="st130" d="M37.874,82.175l-2.75,2.728l2.528-2.75C37.726,82.157,37.8,82.166,37.874,82.175z"/>
	</g>
	<g>
		<polygon class="st117" points="48.612,59.468 54.268,65.916 47.307,71.65 45.436,61.344 45.362,61.204 		"/>
	</g>
	<g>
		<polygon class="st14" points="48.612,59.468 45.362,61.204 42.086,62.949 35.125,66.43 28.163,62.949 24.892,61.204 
			21.637,59.468 27.728,56.858 42.521,56.858 		"/>
	</g>
	<g>
		<polygon class="st74" points="45.436,61.344 47.307,71.65 35.125,66.43 42.086,62.949 45.362,61.204 		"/>
	</g>
	<g>
		<polygon class="st117" points="47.307,71.65 38.07,71.65 35.125,71.65 30.709,71.65 22.943,71.65 35.125,66.43 		"/>
	</g>
	<g>
		<polygon class="st74" points="35.125,66.43 22.943,71.65 24.818,61.344 24.892,61.204 28.163,62.949 		"/>
	</g>
	<g>
		<g>
			<path class="st117" d="M35.468,144.974c0.333,0.011,0.665,0.025,1,0.025c16.293,0,29.498-13.209,29.498-29.498
				c0-16.293-13.205-29.502-29.498-29.502c-0.335,0-0.667,0.014-1,0.025c15.829,0.528,28.498,13.519,28.498,29.477
				C63.966,131.455,51.297,144.446,35.468,144.974z"/>
		</g>
		<g>
			<path class="st117" d="M2.967,115.501c0-17.14,12.87-31.267,29.477-33.254l-0.174-0.172
				C14.789,83.206,0.967,97.737,0.967,115.501c0,18.499,14.997,33.501,33.5,33.501c0.335,0,0.667-0.016,1-0.025
				C17.428,148.446,2.967,133.665,2.967,115.501z"/>
		</g>
	</g>
	<g>
		<polygon class="st117" points="24.892,61.204 24.818,61.344 22.943,71.65 15.981,65.916 21.637,59.468 		"/>
	</g>
	<path class="st131" d="M40.021,81.454l14.951-14.828c0.046-0.046,0.07-0.103,0.105-0.155c0.033-0.048,0.073-0.091,0.097-0.143
		c0.031-0.068,0.041-0.141,0.056-0.213c0.011-0.051,0.031-0.1,0.033-0.152c0.004-0.077-0.015-0.153-0.029-0.229
		c-0.009-0.048-0.007-0.097-0.023-0.144c-0.028-0.082-0.081-0.155-0.131-0.229c-0.023-0.034-0.032-0.073-0.06-0.105l-0.01-0.011
		c0,0,0,0,0,0c0,0,0,0,0,0l-5.646-6.436c-0.006-0.007-0.014-0.01-0.02-0.016c-0.023-0.025-0.055-0.043-0.081-0.066
		c-0.069-0.06-0.14-0.113-0.22-0.152c-0.014-0.007-0.023-0.019-0.037-0.026l-6.091-2.61c-0.124-0.054-0.258-0.081-0.394-0.081
		H27.728c-0.136,0-0.27,0.027-0.394,0.081l-6.091,2.61c-0.015,0.006-0.023,0.019-0.038,0.026c-0.078,0.038-0.147,0.09-0.215,0.148
		c-0.028,0.025-0.062,0.043-0.086,0.07c-0.006,0.006-0.014,0.009-0.02,0.016l-5.655,6.448c-0.034,0.039-0.047,0.086-0.074,0.128
		c-0.042,0.067-0.091,0.13-0.116,0.203c-0.019,0.054-0.017,0.109-0.027,0.164c-0.012,0.07-0.03,0.139-0.027,0.209
		c0.003,0.055,0.023,0.106,0.035,0.16c0.015,0.07,0.024,0.14,0.054,0.206c0.024,0.052,0.064,0.095,0.097,0.144
		c0.035,0.052,0.059,0.109,0.105,0.154l14.785,14.665c-17.04,2.176-30.096,16.8-30.096,34.21c0,19.023,15.477,34.501,34.5,34.501
		s34.501-15.478,34.501-34.501C68.968,98.412,56.661,84.127,40.021,81.454z M27.693,63.832c0.004,0.002,0.009,0.002,0.013,0.004
		c0.004,0.002,0.006,0.006,0.011,0.008l5.033,2.516l-8.49,3.638l1.326-7.291L27.693,63.832z M42.533,63.844
		c0.004-0.002,0.006-0.006,0.01-0.008c0.004-0.002,0.008-0.002,0.012-0.004l2.111-1.126l1.324,7.292L37.5,66.36L42.533,63.844z
		 M37.246,81.117c-0.084-0.007-0.168-0.015-0.251-0.021l1.878-8.446h6.157L37.246,81.117z M35.125,67.517l7.311,3.133h-7.311h-7.31
		L35.125,67.517z M35.125,72.65h1.698l-1.858,8.362c-0.028,0-0.056-0.002-0.083-0.002l-2.786-8.36H35.125z M47.987,69.795
		l-1.466-8.077l1.863-0.993l4.453,5.076L47.987,69.795z M21.867,60.724l1.867,0.996l-1.469,8.076l-4.85-3.996L21.867,60.724z
		 M29.988,72.65l2.712,8.14l-7.48-8.14H29.988z M34.467,86.999c15.714,0,28.498,12.786,28.498,28.502
		c0,15.714-12.784,28.498-28.498,28.498c-15.716,0-28.502-12.784-28.502-28.498C5.965,99.785,18.751,86.999,34.467,86.999z
		 M27.933,57.858h14.383l3.987,1.709l-4.673,2.492l-6.506,3.253l-6.505-3.252l-4.673-2.493L27.933,57.858z M34.467,148.002
		c-17.921,0-32.5-14.58-32.5-32.501c0-16.92,13.089-31.047,29.932-32.389l1.919,1.903C17.299,85.363,3.965,98.9,3.965,115.501
		c0,16.816,13.684,30.498,30.502,30.498c16.816,0,30.498-13.682,30.498-30.498c0-16.175-12.657-29.444-28.585-30.436l1.853-1.838
		c16.413,1.887,28.735,15.676,28.735,32.274C66.968,133.422,52.388,148.002,34.467,148.002z"/>
</g>
</svg>
