<?xml version="1.0" encoding="utf-8"?>
<!-- Generator: Adobe Illustrator 21.0.0, SVG Export Plug-In . SVG Version: 6.00 Build 0)  -->
<svg version="1.1" id="Layer_1" xmlns="http://www.w3.org/2000/svg" xmlns:xlink="http://www.w3.org/1999/xlink" x="0px" y="0px"
	 viewBox="0 0 75.204 150" style="enable-background:new 0 0 75.204 150;" xml:space="preserve">
<style type="text/css">
	.st0{fill:#5BAF5D;}
	.st1{fill:#66C468;}
	.st2{fill:#76E378;}
	.st3{fill:#4D944F;}
	.st4{fill:#9AC4F0;}
	.st5{fill:#E0E1E2;}
	.st6{fill:#958079;}
	.st7{fill:#444B52;}
	.st8{fill:#6D6E71;}
	.st9{fill:#8D8F92;}
	.st10{fill:#855E3C;}
	.st11{fill:#A37C50;}
	.st12{fill:#805E3A;}
	.st13{fill:#6C4A30;}
	.st14{fill:#FFFFFF;}
	.st15{fill:#FCD75F;}
	.st16{fill:#EB5252;}
	.st17{fill:#B09A7D;}
	.st18{fill:#325743;}
	.st19{fill:#8C6645;}
	.st20{fill:#B58A64;}
	.st21{fill:#6E5036;}
	.st22{fill:#52351C;}
	.st23{fill:#D1D3D4;}
	.st24{fill:#6B6A6E;}
	.st25{fill:#68696B;}
	.st26{fill:#757578;}
	.st27{fill:#737476;}
	.st28{fill:#F1F2F2;}
	.st29{fill:#BABCBD;}
	.st30{fill:#38B077;}
	.st31{fill:#40A7FF;}
	.st32{fill:#4081FF;}
	.st33{fill:#4B5582;}
	.st34{fill:#3ECFCF;}
	.st35{fill:#89E2E2;}
	.st36{fill:#FF84C1;}
	.st37{fill:#FFB3D1;}
	.st38{fill:#FF99C1;}
	.st39{fill:#FFC642;}
	.st40{fill:#14E398;}
	.st41{fill:#FF91F6;}
	.st42{fill:#6BFFC9;}
	.st43{fill:#FF6BF3;}
	.st44{fill:#FFD67D;}
	.st45{fill:#425B80;}
	.st46{fill:#F2AC32;}
	.st47{fill:#F268EB;}
	.st48{fill:#00A7E8;}
	.st49{fill:#C7A983;}
	.st50{fill:#AD895D;}
	.st51{fill:#5E5755;}
	.st52{fill:#F24129;}
	.st53{fill:#C73522;}
	.st54{fill:#423E3A;}
	.st55{fill:#CC2121;}
	.st56{fill:#E0E0E0;}
	.st57{fill:#A31A1A;}
	.st58{fill:#2E292A;}
	.st59{fill:#EBEBEB;}
	.st60{fill:#58595B;}
	.st61{fill:#D2D3D4;}
	.st62{fill:#AFB1B5;}
	.st63{fill:#4CE637;}
	.st64{fill:#F03E3E;}
	.st65{fill:#DADADB;}
	.st66{opacity:0.3;}
	.st67{fill:#DFE0E1;}
	.st68{fill:#2CD4F5;}
	.st69{fill:#1BCDF0;}
	.st70{fill:none;stroke:#2CD4F5;stroke-width:4;stroke-linecap:round;stroke-miterlimit:10;}
	.st71{fill:#373F61;}
	.st72{opacity:0.2;}
	.st73{fill:#FF82A0;}
	.st74{fill:#E6E6E6;}
	.st75{fill:#FF5C83;}
	.st76{fill:#D4335B;}
	.st77{fill:#A0A2A5;}
	.st78{fill:#436C8C;}
	.st79{fill:#EDEDED;}
	.st80{fill:#2BAF73;}
	.st81{fill:#50DE9D;}
	.st82{fill:#D6D6D6;}
	.st83{fill:#1B8555;}
	.st84{fill:#3B434F;}
	.st85{fill:#73DEEF;}
	.st86{fill:#DCA0FF;}
	.st87{fill:#D78DFF;}
	.st88{fill:#DC92FF;}
	.st89{fill:#73D0E4;}
	.st90{fill:#726097;}
	.st91{fill:#C8CACC;}
	.st92{fill:#9D9EA1;}
	.st93{fill:#474747;}
	.st94{fill:#DBDBDB;}
	.st95{fill:#282829;}
	.st96{fill:#F7FFE0;}
	.st97{fill:#C862D4;}
	.st98{fill:#C8CFB5;}
	.st99{fill:#793B80;}
	.st100{fill:#46385E;}
	.st101{fill:#FFE9BC;}
	.st102{fill:#4C4450;}
	.st103{fill:#363038;}
	.st104{fill:#1E232B;}
	.st105{fill:#FFBFC2;}
	.st106{fill:#AB0F19;}
</style>
<g>
	<g>
		<path class="st14" d="M57.625,132.321l12.69,3.13c-2.24,3.79-5.43,7.1-9.47,9.54l-0.16-0.78l-10.09-7.76v-0.01
			c1.09-0.29,2.16-0.71,3.2-1.26C55.255,134.401,56.535,133.431,57.625,132.321z"/>
	</g>
	<g>
		<path class="st14" d="M73.545,125.601l0.27,0.04c-0.52,3.45-1.71,6.78-3.5,9.81l-12.69-3.13c2.58-2.62,4.09-6.04,4.37-9.59
			L73.545,125.601z"/>
	</g>
	<g>
		<path class="st14" d="M43.745,136.701l5.58,12.16c-4.46,0.45-8.93-0.2-13.05-1.83l0.14-0.37l1.33-12.4
			C39.565,135.471,41.615,136.301,43.745,136.701z"/>
	</g>
	<g>
		<path class="st14" d="M36.275,147.031c-3.82-1.52-7.33-3.9-10.22-7.03l5.43-13.23l1.32,2.35c1.27,2.11,2.98,3.84,4.94,5.14
			l-1.33,12.4L36.275,147.031z"/>
	</g>
	<g>
		<path class="st14" d="M60.005,145.481c-3.41,1.9-7.04,3.01-10.68,3.38l-5.58-12.16c2.25,0.42,4.59,0.35,6.85-0.26v0.01l10.09,7.76
			l0.16,0.78C60.565,145.161,60.285,145.321,60.005,145.481z"/>
	</g>
	<g>
		<path class="st14" d="M31.485,126.771l-5.43,13.23c-1.27-1.37-2.42-2.9-3.42-4.56l-1.52-2.51c-0.58-0.97-0.86-2.03-0.86-3.08
			c0-2.03,1.05-4.02,2.94-5.14C26.055,123.001,29.765,123.931,31.485,126.771z"/>
	</g>
	<g>
		<path class="st14" d="M59.815,113.561l-1.14-1.89l14.75,3.66c0.8,3.42,0.91,6.92,0.39,10.31l-0.27-0.04l-11.55-2.87
			C62.245,119.631,61.555,116.431,59.815,113.561z"/>
	</g>
	<g>
		<path class="st14" d="M73.425,115.331l-14.75-3.66l-7.29-12.05l16.59,4.12l2.21,3.66
			C71.715,109.931,72.785,112.601,73.425,115.331z"/>
	</g>
	<g>
		<polygon class="st14" points="60.685,91.691 67.975,103.741 51.385,99.621 44.105,87.581 		"/>
	</g>
	<g>
		<polygon class="st14" points="53.405,79.641 60.685,91.691 44.105,87.581 36.815,75.531 		"/>
	</g>
	<g>
		<polygon class="st14" points="53.405,79.641 36.815,75.531 29.535,63.481 46.115,67.601 		"/>
	</g>
	<g>
		<polygon class="st14" points="38.835,55.551 46.115,67.601 29.535,63.481 29.525,63.481 22.255,51.441 		"/>
	</g>
	<g>
		<polygon class="st14" points="31.545,43.501 38.835,55.551 22.255,51.441 22.245,51.441 14.965,39.391 		"/>
	</g>
	<g>
		<polygon class="st14" points="24.265,31.461 31.545,43.501 14.965,39.391 7.675,27.341 		"/>
	</g>
	<g>
		<path class="st14" d="M16.975,19.411l7.29,12.05l-16.59-4.12l-5.64-9.33c-0.48-0.79-0.75-1.65-0.83-2.51L16.975,19.411z"/>
	</g>
	<g>
		<path class="st14" d="M12.405,11.851l4.57,7.56l-15.77-3.91c-0.02-0.19-0.03-0.38-0.03-0.57c0-2.04,1.04-4.02,2.93-5.14
			C6.975,8.091,10.685,9.011,12.405,11.851z"/>
	</g>
	<g>
		<g>
			<path class="st105" d="M22.285,51.418l7.27,12.04h0.01l7.28,12.05l7.29,12.05l7.28,12.04l7.29,12.05l1.14,1.89
				c1.74,2.87,2.43,6.07,2.18,9.17c-0.233,2.95-1.327,5.803-3.166,8.19c1.142-0.694,2.169-1.502,3.062-2.411
				c2.58-2.62,4.09-6.04,4.37-9.59c0.25-3.1-0.44-6.3-2.18-9.17l-1.14-1.89l-7.29-12.05l-7.28-12.04l-7.29-12.05l-7.28-12.05h-0.01
				l-7.27-12.04h-0.01l-7.28-12.05l-7.29-12.05L3.854,9.961c-1.705,1.145-2.649,3.014-2.649,4.947c0,0.19,0.01,0.38,0.03,0.57
				c0.08,0.86,0.35,1.72,0.83,2.51l5.64,9.33l7.29,12.05l7.28,12.05H22.285z"/>
		</g>
	</g>
	<g>
		<g>
			<path class="st105" d="M73.815,117.703c-0.52,3.45-1.71,6.78-3.5,9.81c-2.24,3.79-5.43,7.1-9.47,9.54
				c-0.28,0.17-0.56,0.33-0.84,0.49c-3.41,1.9-7.04,3.01-10.68,3.38c-4.46,0.45-8.93-0.2-13.05-1.83c-3.82-1.52-7.33-3.9-10.22-7.03
				c-1.27-1.37-2.42-2.9-3.42-4.56l-0.927-1.531c-0.938,1.092-1.453,2.472-1.453,3.878c0,1.05,0.28,2.11,0.86,3.08l1.52,2.51
				c1,1.66,2.15,3.19,3.42,4.56c2.89,3.13,6.4,5.51,10.22,7.03c4.12,1.63,8.59,2.28,13.05,1.83c3.64-0.37,7.27-1.48,10.68-3.38
				c0.28-0.16,0.56-0.32,0.84-0.49c4.04-2.44,7.23-5.75,9.47-9.54c1.79-3.03,2.98-6.36,3.5-9.81
				c0.409-2.666,0.422-5.399,0.022-8.109C73.829,117.588,73.824,117.646,73.815,117.703z"/>
		</g>
	</g>
	<path class="st106" d="M74.398,115.103c-0.655-2.798-2.45-6.679-2.526-6.843L13.261,11.333c-1.997-3.299-6.333-4.375-9.665-2.402
		c-2.142,1.269-3.421,3.512-3.421,6c0,0.225,0.013,0.449,0.034,0.663c0.098,1.049,0.425,2.038,0.971,2.935l57.78,95.549v0.002
		c0.001,0.001,0.002,0.002,0.002,0.003l0.018,0.029c1.562,2.593,2.261,5.544,2.019,8.54c-0.267,3.379-1.718,6.563-4.086,8.969
		c-1.046,1.064-2.253,1.966-3.585,2.677c-0.969,0.512-1.975,0.908-2.993,1.178c-2.062,0.557-4.276,0.64-6.404,0.244
		c-1.8-0.339-3.552-1.033-5.123-1.989l0.003-0.024l-0.052-0.006c-0.152-0.093-0.312-0.174-0.46-0.273
		c-1.914-1.27-3.474-2.892-4.621-4.796l-1.336-2.379c-2.004-3.311-6.338-4.385-9.655-2.402c-2.116,1.254-3.431,3.553-3.431,6
		c0,1.255,0.347,2.497,1.005,3.598l1.519,2.508c1.028,1.708,2.221,3.298,3.542,4.724c2.931,3.173,6.591,5.691,10.587,7.281
		c3.404,1.347,7.047,2.037,10.679,2.037c0.949,0,1.897-0.047,2.841-0.142c3.88-0.395,7.603-1.573,11.072-3.507
		c0.289-0.164,0.577-0.329,0.862-0.502c4.04-2.44,7.435-5.859,9.815-9.888c1.865-3.158,3.086-6.58,3.627-10.168
		C75.354,122.2,75.218,118.604,74.398,115.103z M71.986,113.943l-12.672-3.144l-5.819-9.623l13.842,3.438l2.743,4.536
		C70.244,109.508,71.279,111.794,71.986,113.943z M29.439,41.949L15.606,38.52l-5.82-9.624l13.837,3.436L29.439,41.949z
		 M30.905,44.373l5.821,9.625l-13.834-3.429l-5.82-9.625L30.905,44.373z M38.192,56.422l5.822,9.627l-13.841-3.439l-5.815-9.616
		L38.192,56.422z M45.481,68.474l5.814,9.614L37.46,74.66l-5.821-9.626L45.481,68.474z M52.76,80.511l5.823,9.628L44.747,86.71
		l-5.821-9.626L52.76,80.511z M60.049,92.563l5.821,9.625L52.028,98.75l-5.815-9.617L60.049,92.563z M4.615,10.651
		c2.393-1.417,5.503-0.647,6.935,1.717l3.32,5.49L2.189,14.715C2.26,13.028,3.15,11.519,4.615,10.651z M2.577,16.871l13.759,3.411
		l5.821,9.624L8.319,26.47l-5.43-8.979C2.768,17.291,2.668,17.083,2.577,16.871z M60.781,113.224l11.794,2.927
		c0.57,2.717,0.703,5.492,0.389,8.275l-9.932-2.468c0.075-2.633-0.479-5.219-1.638-7.59l0.056-0.033L60.781,113.224z
		 M21.974,132.417c-0.471-0.785-0.719-1.673-0.719-2.566c0-1.744,0.938-3.384,2.454-4.281c0.811-0.485,1.706-0.716,2.59-0.716
		c1.566,0,3.091,0.73,4.056,2.038l-4.608,11.226c-0.819-1-1.577-2.068-2.257-3.195L21.974,132.417z M27.229,139.773l4.396-10.711
		l0.323,0.575c1.211,2.01,2.815,3.707,4.742,5.084l-1.168,10.897C32.433,144.219,29.598,142.219,27.229,139.773z M37.449,146.393
		l1.124-10.479c1.561,0.837,3.257,1.445,4.989,1.771c0.262,0.049,0.529,0.066,0.793,0.102l2.55,10.199
		C43.702,148.026,40.486,147.484,37.449,146.393z M49.225,147.866c-0.094,0.01-0.19,0.012-0.285,0.02l-2.487-9.948
		c1.49,0.013,2.977-0.148,4.397-0.531c0.863-0.229,1.712-0.562,2.549-0.946l5.202,8.628
		C55.64,146.597,52.493,147.534,49.225,147.866z M60.352,144.119l-5.177-8.587c1.156-0.711,2.219-1.549,3.163-2.51
		c0.255-0.259,0.492-0.533,0.728-0.808l8.784,5.111C65.82,140.029,63.272,142.35,60.352,144.119z M69.454,134.942
		c-0.147,0.249-0.309,0.489-0.465,0.732l-8.704-5.064c1.324-1.99,2.202-4.256,2.563-6.638l9.816,2.439
		C72.102,129.412,71.028,132.279,69.454,134.942z"/>
</g>
</svg>
