<?xml version="1.0" encoding="utf-8"?>
<!-- Generator: Adobe Illustrator 21.0.0, SVG Export Plug-In . SVG Version: 6.00 Build 0)  -->
<svg version="1.1" id="Layer_1" xmlns="http://www.w3.org/2000/svg" xmlns:xlink="http://www.w3.org/1999/xlink" x="0px" y="0px"
	 viewBox="0 0 102.037 150" style="enable-background:new 0 0 102.037 150;" xml:space="preserve">
<style type="text/css">
	.st0{fill:#5BAF5D;}
	.st1{fill:#66C468;}
	.st2{fill:#76E378;}
	.st3{fill:#4D944F;}
	.st4{fill:#9AC4F0;}
	.st5{fill:#E0E1E2;}
	.st6{fill:#958079;}
	.st7{fill:#444B52;}
	.st8{fill:#6D6E71;}
	.st9{fill:#8D8F92;}
	.st10{fill:#855E3C;}
	.st11{fill:#A37C50;}
	.st12{fill:#805E3A;}
	.st13{fill:#6C4A30;}
	.st14{fill:#FFFFFF;}
	.st15{fill:#FCD75F;}
	.st16{fill:#EB5252;}
	.st17{fill:#B09A7D;}
	.st18{fill:#325743;}
	.st19{fill:#8C6645;}
	.st20{fill:#B58A64;}
	.st21{fill:#6E5036;}
	.st22{fill:#52351C;}
	.st23{fill:#D1D3D4;}
	.st24{fill:#6B6A6E;}
	.st25{fill:#68696B;}
	.st26{fill:#757578;}
	.st27{fill:#737476;}
	.st28{fill:#F1F2F2;}
	.st29{fill:#BABCBD;}
	.st30{fill:#38B077;}
	.st31{fill:#40A7FF;}
	.st32{fill:#4081FF;}
	.st33{fill:#4B5582;}
	.st34{fill:#3ECFCF;}
	.st35{fill:#89E2E2;}
	.st36{fill:#FF84C1;}
	.st37{fill:#FFB3D1;}
	.st38{fill:#FF99C1;}
	.st39{fill:#FFC642;}
	.st40{fill:#14E398;}
	.st41{fill:#FF91F6;}
	.st42{fill:#6BFFC9;}
	.st43{fill:#FF6BF3;}
	.st44{fill:#FFD67D;}
	.st45{fill:#425B80;}
	.st46{fill:#F2AC32;}
	.st47{fill:#F268EB;}
	.st48{fill:#00A7E8;}
	.st49{fill:#C7A983;}
	.st50{fill:#AD895D;}
	.st51{fill:#5E5755;}
	.st52{fill:#F24129;}
	.st53{fill:#C73522;}
	.st54{fill:#423E3A;}
</style>
<g>
	<g>
		<path class="st39" d="M83.077,66.35c4.46,4.45,3.94,7.7,3.94,7.7c0,0.17,0,0.35-0.02,0.51c-0.31,2.6-3.22,4.13-6.87,4.38
			c-0.31,0.02-0.68,0.04-1.09,0.05c-1.65,0.04-3.95-0.12-5.66-1.29c-0.26-0.18-0.5-0.37-0.72-0.59c-2.05-2.01-2.37-5.72,0.29-10.78
			c0.05-0.08,0.17-0.07,0.2,0.01c0.21,0.66,0.83,2.46,1.58,3.08c0.21-2.39,2.15-5.33,4.59-7.4c0.06-0.05,0.14,0,0.12,0.06
			c-1.36,4.57,1.79,6.19,2.51,6.66c0.05,0.04,0.13,0.03,0.17-0.03c0.45-0.6,0.87-1.57,0.83-2.32
			C82.947,66.33,83.027,66.3,83.077,66.35z"/>
	</g>
	<g>
		<path class="st39" d="M24.437,62.08c-1.36,4.57,1.79,6.19,2.51,6.66c0.05,0.04,0.13,0.03,0.17-0.03c0.45-0.6,0.87-1.57,0.83-2.32
			c0-0.06,0.08-0.09,0.13-0.04c4.46,4.45,3.94,7.7,3.94,7.7c0,0.17,0,0.35-0.02,0.51c-0.31,2.6-3.22,4.13-6.87,4.38
			c-1.56,0.11-4.62,0.22-6.75-1.24c-0.26-0.18-0.5-0.37-0.72-0.59c-2.05-2.01-2.37-5.72,0.29-10.78c0.05-0.08,0.17-0.07,0.2,0.01
			c0.21,0.66,0.83,2.46,1.58,3.08c0.21-2.39,2.15-5.33,4.59-7.4C24.377,61.97,24.457,62.02,24.437,62.08z"/>
	</g>
	<g>
		<path class="st40" d="M97.037,86v12h-24.94v10.12c2.19-0.47,4.48-0.74,6.94-0.74c10.04,0,21,6.75,21,19.52
			c0,12.59-10.31,21.1-23,21.1c-10.68,0-18.44-5.83-22.36-13.79l8.58-6.2c3.38,5.28,7.3,8.52,13.42,8.52
			c6.02,0,10.76-3.52,10.76-9.54c0-5.73-4.29-8.88-12.32-8.88h-14.14V86H97.037z"/>
	</g>
	<g>
		<path class="st41" d="M47.037,126.41V137H1.747v-2.69l19.26-14.4c6.58-5.01,11.49-8.63,11.49-14.3c0-4.36-3.06-8.08-8.34-8.08
			s-8.24,3.72-8.24,8.17c0,1.12,0.18,2.33,0.37,3.91H4.057c-0.46-1.77-0.74-3.63-0.74-5.11c0-9.29,8.15-18.48,21.21-18.48
			c12.14,0,20.75,7.89,20.75,18.38c0,8.46-5.56,14.31-13.71,20.53l-1.94,1.48H47.037z"/>
	</g>
	<g>
		<g>
			<path class="st42" d="M79.037,107.38c-1.908,0-3.712,0.166-5.449,0.458c8.537,1.711,16.449,8.212,16.449,19.062
				c0,10.881-7.703,18.709-17.985,20.635c1.584,0.295,3.241,0.465,4.985,0.465c12.69,0,23-8.51,23-21.1
				C100.037,114.13,89.077,107.38,79.037,107.38z"/>
		</g>
		<g>
			<path class="st42" d="M63.257,128.01l-6.341,4.582c2.609,2.504,5.699,3.938,9.761,3.938c1.774,0,3.432-0.314,4.896-0.899
				C68.18,134.325,65.589,131.654,63.257,128.01z"/>
		</g>
	</g>
	<g>
		<g>
			<path class="st43" d="M13.057,109.61c-0.46-1.77-0.74-3.63-0.74-5.11c0-7.939,5.966-15.785,15.848-17.905
				c-1.701-0.363-3.494-0.575-5.385-0.575c-13.06,0-21.21,9.19-21.21,18.48c0,1.48,0.28,3.34,0.74,5.11H13.057z"/>
		</g>
		<g>
			<path class="st43" d="M30.007,119.91c6.58-5.01,11.49-8.63,11.49-14.3c0-4.36-3.06-8.08-8.34-8.08
				c-2.206,0-4.001,0.656-5.35,1.737c1.903,1.497,2.943,3.809,2.943,6.343c0,5.67-4.91,9.29-11.49,14.3L0,134.31V137h10.747v-2.69
				L30.007,119.91z"/>
		</g>
	</g>
	<g>
		<path class="st39" d="M83.077,66.35c4.46,4.45,3.94,7.7,3.94,7.7c0,0.17,0,0.35-0.02,0.51c-0.31,2.6-3.22,4.13-6.87,4.38
			c-0.31,0.02-0.68,0.04-1.09,0.05c-1.65,0.04-3.95-0.12-5.66-1.29c-0.26-0.18-0.5-0.37-0.72-0.59c-2.05-2.01-2.37-5.72,0.29-10.78
			c0.05-0.08,0.17-0.07,0.2,0.01c0.21,0.66,0.83,2.46,1.58,3.08c0.21-2.39,2.15-5.33,4.59-7.4c0.06-0.05,0.14,0,0.12,0.06
			c-1.36,4.57,1.79,6.19,2.51,6.66c0.05,0.04,0.13,0.03,0.17-0.03c0.45-0.6,0.87-1.57,0.83-2.32
			C82.947,66.33,83.027,66.3,83.077,66.35z"/>
	</g>
	<g>
		<path class="st44" d="M80.011,67.077c-0.761-1.034-1.283-2.61-0.573-4.997c0.02-0.06-0.06-0.11-0.12-0.06
			c-2.44,2.07-4.38,5.01-4.59,7.4c-0.75-0.62-1.37-2.42-1.58-3.08c-0.03-0.08-0.15-0.09-0.2-0.01c-2.66,5.06-2.34,8.77-0.29,10.78
			c0.22,0.22,0.46,0.41,0.72,0.59c0.809,0.555,1.752,0.881,2.697,1.069C76.222,74.418,77.651,70.4,80.011,67.077z"/>
	</g>
	<g>
		<path class="st44" d="M25.01,67.077c-0.761-1.034-1.283-2.61-0.573-4.997c0.02-0.06-0.06-0.11-0.12-0.06
			c-2.44,2.07-4.38,5.01-4.59,7.4c-0.75-0.62-1.37-2.42-1.58-3.08c-0.03-0.08-0.15-0.09-0.2-0.01c-2.66,5.06-2.34,8.77-0.29,10.78
			c0.22,0.22,0.46,0.41,0.72,0.59c0.809,0.555,1.752,0.881,2.697,1.069C21.221,74.418,22.65,70.4,25.01,67.077z"/>
	</g>
	<g>
		<path class="st45" d="M47.277,104.4c0-11.351-8.849-19.687-21.24-20.319v-3.219c4.538-0.521,7.557-2.8,7.943-6.048
			c0.026-0.206,0.035-0.434,0.037-0.656c0.084-0.967,0.048-4.658-4.52-9.215c-0.57-0.577-1.52-0.771-2.271-0.462
			c-0.401,0.165-0.729,0.445-0.953,0.792c-0.238-0.625-0.271-1.445,0.065-2.574c0.282-0.868-0.05-1.832-0.807-2.343
			c-0.744-0.502-1.824-0.441-2.51,0.139c-1.476,1.251-2.73,2.73-3.649,4.245c-0.313-0.252-0.699-0.414-1.12-0.455
			c-0.82-0.082-1.577,0.301-2.005,0.989c-0.025,0.041-0.05,0.083-0.072,0.125c-4.081,7.763-1.316,11.764,0.072,13.131
			c0.284,0.284,0.598,0.542,0.997,0.819c1.485,1.018,3.255,1.426,4.791,1.574v3.204C9.014,85.241,1.317,95.022,1.317,104.5
			c0,1.625,0.285,3.619,0.804,5.613l0.389,1.497h16.033l-0.368-3.036c-0.145-1.157-0.258-2.072-0.258-2.874
			c0-2.847,1.635-6.17,6.24-6.17c4.38,0,6.34,3.054,6.34,6.08c0,4.564-4.323,7.854-10.306,12.407l-20.444,15.29V139h49.29v-14.59
			H35.453C42.648,118.507,47.277,112.601,47.277,104.4z M19.071,75.696c-0.005-0.005-0.009-0.009-0.014-0.014
			c-1.027-1.008-1.27-2.722-0.749-4.848c0.048,0.044,0.096,0.086,0.145,0.126c0.573,0.474,1.363,0.59,2.046,0.304
			c0.686-0.287,1.156-0.93,1.221-1.67c0.067-0.762,0.408-1.664,0.948-2.589c0.533,1.197,1.488,2.351,3.068,3.335l0.104,0.065
			c0.438,0.294,0.981,0.415,1.505,0.332c0.455-0.071,0.923-0.332,1.247-0.682c1.526,2.238,1.447,3.673,1.45,3.677
			c-0.017,0.104-0.025,0.21-0.025,0.316c0,0.086,0.004,0.177-0.007,0.274c-0.163,1.374-2.181,2.427-5.023,2.622
			c-0.937,0.064-3.786,0.265-5.469-0.887C19.328,75.925,19.185,75.81,19.071,75.696z M45.037,128.41V135H4.164l18.055-13.499
			l0.395-0.3c6.64-5.053,11.884-9.044,11.884-15.591c0-5.841-4.349-10.08-10.34-10.08c-6.029,0-10.24,4.182-10.24,10.17
			c0,0.618,0.046,1.245,0.116,1.91H5.654c-0.218-1.135-0.337-2.221-0.337-3.11c0-8.101,7.186-16.48,19.21-16.48
			c10.864,0,18.75,6.889,18.75,16.381c0,7.558-4.945,12.851-12.923,18.939l-6.646,5.07H45.037z"/>
		<path class="st45" d="M79.037,105.38c-1.67,0-3.303,0.115-4.94,0.351V100h24.94V84h-18v-3.138c4.538-0.521,7.557-2.8,7.943-6.048
			c0.026-0.206,0.035-0.434,0.037-0.656c0.084-0.967,0.048-4.658-4.52-9.215c-0.571-0.577-1.521-0.771-2.271-0.462
			c-0.401,0.165-0.729,0.445-0.953,0.792c-0.238-0.625-0.271-1.445,0.065-2.574c0.282-0.868-0.05-1.832-0.807-2.343
			c-0.744-0.502-1.825-0.441-2.51,0.139c-1.476,1.251-2.73,2.73-3.649,4.245c-0.313-0.252-0.699-0.414-1.12-0.455
			c-0.819-0.082-1.577,0.301-2.005,0.989c-0.025,0.041-0.05,0.083-0.072,0.125c-4.081,7.763-1.316,11.764,0.072,13.131
			c0.284,0.284,0.598,0.542,0.999,0.82c1.261,0.864,2.875,1.375,4.789,1.558V84h-18.06v36.11h16.14c6.848,0,10.32,2.314,10.32,6.88
			c0,5.565-4.72,7.54-8.761,7.54c-4.816,0-8.326-2.272-11.735-7.599l-1.141-1.782l-11.664,8.429l0.746,1.516
			C57.548,144.566,66.351,150,77.037,150c14.252,0,25-9.931,25-23.1C102.037,112.922,90.186,105.38,79.037,105.38z M74.071,75.696
			c-0.005-0.005-0.009-0.009-0.014-0.014c-1.027-1.008-1.27-2.722-0.749-4.848c0.048,0.044,0.096,0.086,0.145,0.126
			c0.574,0.474,1.363,0.59,2.046,0.304c0.686-0.287,1.156-0.93,1.221-1.67c0.067-0.762,0.408-1.664,0.948-2.589
			c0.533,1.197,1.488,2.351,3.068,3.335l0.104,0.065c0.438,0.294,0.983,0.415,1.505,0.332c0.455-0.071,0.923-0.332,1.247-0.682
			c1.526,2.238,1.447,3.673,1.45,3.677c-0.017,0.104-0.025,0.21-0.025,0.316c0,0.086,0.004,0.177-0.007,0.274
			c-0.163,1.374-2.181,2.427-5.01,2.621c-0.287,0.019-0.631,0.037-1.013,0.047c-2.001,0.046-3.499-0.269-4.47-0.933
			C74.328,75.925,74.185,75.81,74.071,75.696z M77.037,146c-8.529,0-15.648-4.055-19.774-11.191l5.501-3.976
			c3.878,5.307,8.235,7.697,13.913,7.697c7.514,0,12.761-4.745,12.761-11.54c0-3.271-1.396-10.88-14.32-10.88h-12.14V88h32.06v8
			h-24.94v14.595l2.419-0.52c2.184-0.468,4.316-0.695,6.521-0.695c9.211,0,19,6.141,19,17.521C98.037,137.968,89.205,146,77.037,146
			z"/>
	</g>
</g>
</svg>
