<?xml version="1.0" encoding="utf-8"?>
<!-- Generator: Adobe Illustrator 21.0.0, SVG Export Plug-In . SVG Version: 6.00 Build 0)  -->
<svg version="1.1" id="Layer_1" xmlns="http://www.w3.org/2000/svg" xmlns:xlink="http://www.w3.org/1999/xlink" x="0px" y="0px"
	 viewBox="0 0 100 150" style="enable-background:new 0 0 100 150;" xml:space="preserve">
<style type="text/css">
	.st0{fill:#5BAF5D;}
	.st1{fill:#66C468;}
	.st2{fill:#76E378;}
	.st3{fill:#4D944F;}
	.st4{fill:#9AC4F0;}
	.st5{fill:#E0E1E2;}
	.st6{fill:#958079;}
	.st7{fill:#444B52;}
	.st8{fill:#6D6E71;}
	.st9{fill:#8D8F92;}
	.st10{fill:#855E3C;}
	.st11{fill:#A37C50;}
	.st12{fill:#805E3A;}
	.st13{fill:#6C4A30;}
	.st14{fill:#FFFFFF;}
	.st15{fill:#FCD75F;}
	.st16{fill:#EB5252;}
	.st17{fill:#B09A7D;}
	.st18{fill:#325743;}
	.st19{fill:#8C6645;}
	.st20{fill:#B58A64;}
	.st21{fill:#6E5036;}
	.st22{fill:#52351C;}
	.st23{fill:#D1D3D4;}
	.st24{fill:#6B6A6E;}
	.st25{fill:#68696B;}
	.st26{fill:#757578;}
	.st27{fill:#737476;}
	.st28{fill:#F1F2F2;}
	.st29{fill:#BABCBD;}
	.st30{fill:#38B077;}
	.st31{fill:#40A7FF;}
	.st32{fill:#4081FF;}
	.st33{fill:#4B5582;}
	.st34{fill:#3ECFCF;}
	.st35{fill:#89E2E2;}
	.st36{fill:#FF84C1;}
	.st37{fill:#FFB3D1;}
	.st38{fill:#FF99C1;}
	.st39{fill:#FFC642;}
	.st40{fill:#14E398;}
	.st41{fill:#FF91F6;}
	.st42{fill:#6BFFC9;}
	.st43{fill:#FF6BF3;}
	.st44{fill:#FFD67D;}
	.st45{fill:#425B80;}
	.st46{fill:#F2AC32;}
	.st47{fill:#F268EB;}
	.st48{fill:#00A7E8;}
	.st49{fill:#C7A983;}
	.st50{fill:#AD895D;}
	.st51{fill:#5E5755;}
	.st52{fill:#F24129;}
	.st53{fill:#C73522;}
	.st54{fill:#423E3A;}
	.st55{fill:#CC2121;}
	.st56{fill:#E0E0E0;}
	.st57{fill:#A31A1A;}
	.st58{fill:#2E292A;}
	.st59{fill:#EBEBEB;}
	.st60{fill:#58595B;}
	.st61{fill:#D2D3D4;}
	.st62{fill:#AFB1B5;}
	.st63{fill:#4CE637;}
	.st64{fill:#F03E3E;}
	.st65{fill:#DADADB;}
	.st66{opacity:0.3;}
	.st67{fill:#DFE0E1;}
	.st68{fill:#2CD4F5;}
	.st69{fill:#1BCDF0;}
	.st70{fill:none;stroke:#2CD4F5;stroke-width:4;stroke-linecap:round;stroke-miterlimit:10;}
	.st71{fill:#373F61;}
	.st72{opacity:0.2;}
	.st73{fill:#FF82A0;}
	.st74{fill:#E6E6E6;}
	.st75{fill:#FF5C83;}
	.st76{fill:#D4335B;}
	.st77{fill:#A0A2A5;}
	.st78{fill:#436C8C;}
	.st79{fill:#EDEDED;}
	.st80{fill:#2BAF73;}
	.st81{fill:#50DE9D;}
	.st82{fill:#D6D6D6;}
	.st83{fill:#1B8555;}
	.st84{fill:#3B434F;}
	.st85{fill:#73DEEF;}
	.st86{fill:#DCA0FF;}
	.st87{fill:#D78DFF;}
	.st88{fill:#DC92FF;}
	.st89{fill:#73D0E4;}
	.st90{fill:#726097;}
	.st91{fill:#C8CACC;}
	.st92{fill:#9D9EA1;}
	.st93{fill:#474747;}
	.st94{fill:#DBDBDB;}
	.st95{fill:#282829;}
	.st96{fill:#F7FFE0;}
	.st97{fill:#C862D4;}
	.st98{fill:#C8CFB5;}
	.st99{fill:#793B80;}
	.st100{fill:#46385E;}
	.st101{fill:#FFE9BC;}
	.st102{fill:#4C4450;}
	.st103{fill:#363038;}
	.st104{fill:#1E232B;}
	.st105{fill:#FFBFC2;}
	.st106{fill:#AB0F19;}
	.st107{fill:#99D96F;}
	.st108{fill:#80B55C;}
	.st109{fill:#E3E3E3;}
	.st110{fill:#89C263;}
	.st111{fill:#68944B;}
	.st112{fill:#4D594D;}
	.st113{fill:#E0AFA9;}
	.st114{fill:#FFC7C0;}
	.st115{fill:#78584B;}
	.st116{fill:#FD244B;}
	.st117{fill:#D4D4D4;}
	.st118{fill:#8C6758;}
	.st119{fill:#453F3D;}
	.st120{fill:#523D34;}
	.st121{fill:#519E6C;}
	.st122{fill:#E83651;}
	.st123{fill:#ACBF6B;}
	.st124{fill:#3C7550;}
	.st125{fill:#91A352;}
	.st126{fill:#AD293D;}
	.st127{fill:#E8E8E8;}
	.st128{fill:#4D393C;}
	.st129{fill:#ABABAB;}
	.st130{fill:#E16512;}
	.st131{fill:#808080;}
	.st132{fill:#A09AF0;}
	.st133{fill:#49494A;}
	.st134{fill:#414142;}
	.st135{fill:#6B63CF;}
	.st136{fill:#7E77DB;}
	.st137{fill:#3B3B3B;}
	.st138{fill:#2A2A2B;}
	.st139{fill:#AEE826;}
</style>
<g>
	<g>
		<path class="st132" d="M98,92v48c0,1.1-0.9,2-2,2h-6h-7H17h-7H4c-1.1,0-2-0.9-2-2V92c0-1.1,0.9-2,2-2h11h16h65
			C97.1,90,98,90.9,98,92z M89,128v-28c0-0.55-0.45-1-1-1H12c-0.55,0-1,0.45-1,1v28c0,0.55,0.45,1,1,1h76
			C88.55,129,89,128.55,89,128z"/>
	</g>
	<g>
		<rect x="83" y="142" class="st132" width="7" height="6"/>
	</g>
	<g>
		<path class="st133" d="M89,100v28c0,0.55-0.45,1-1,1H12c-0.55,0-1-0.45-1-1v-28c0-0.55,0.45-1,1-1h76C88.55,99,89,99.45,89,100z
			 M82,107v-3h-3v3H82z M72,122v-16H62v16H72z M39,120v-3h-3v3H39z M39,111v-3h-3v3H39z"/>
	</g>
	<g>
		<rect x="62" y="106" class="st134" width="10" height="16"/>
	</g>
	<g>
		<path class="st132" d="M31,86v4H15v-4c0-1.1,0.9-2,2-2h12C30.1,84,31,84.9,31,86z"/>
	</g>
	<g>
		<g>
			<path class="st135" d="M24,140v-11H12c-0.55,0-1-0.45-1-1v-28c0-0.55,0.45-1,1-1h12v-7c0-1.1,0.9-2,2-2H4c-1.1,0-2,0.9-2,2v48
				c0,1.1,0.9,2,2,2h22C24.9,142,24,141.1,24,140z"/>
		</g>
	</g>
	<g>
		<g>
			<path class="st136" d="M24,140v-11H12c-0.55,0-1-0.45-1-1v-28c0-0.55,0.45-1,1-1h12v-7c0-1.1,0.9-2,2-2H15H4c-1.1,0-2,0.9-2,2v48
				c0,1.1,0.9,2,2,2h6h7h9C24.9,142,24,141.1,24,140z"/>
		</g>
	</g>
	<g>
		<path class="st136" d="M26,84h-9c-1.1,0-2,0.9-2,2v4h9v-4C24,84.9,24.9,84,26,84z"/>
	</g>
	<g>
		<rect x="10" y="142" class="st136" width="7" height="6"/>
	</g>
	<g>
		<g>
			<path class="st137" d="M24,128v-28c0-0.55,0.45-1,1-1H12c-0.55,0-1,0.45-1,1v28c0,0.55,0.45,1,1,1h13C24.45,129,24,128.55,24,128
				z"/>
		</g>
	</g>
	<g>
		<path class="st138" d="M96,88H33v-2c0-2.206-1.794-4-4-4H17c-2.206,0-4,1.794-4,4v2H4c-2.206,0-4,1.794-4,4v48
			c0,2.206,1.794,4,4,4h4v4c0,1.104,0.896,2,2,2h7c1.104,0,2-0.896,2-2v-4h62v4c0,1.104,0.896,2,2,2h7c1.104,0,2-0.896,2-2v-4h4
			c2.206,0,4-1.794,4-4V92C100,89.794,98.206,88,96,88z M17,86h12v2H17V86z M15,146h-3v-2h3V146z M88,146h-3v-2h3V146z M96,140h-6
			h-7H17h-7H4V92h92V140z"/>
		<path class="st138" d="M12,131h76c1.654,0,3-1.346,3-3v-28c0-1.654-1.346-3-3-3H12c-1.654,0-3,1.346-3,3v28
			C9,129.654,10.346,131,12,131z M13,101h74v26H13V101z"/>
	</g>
	<g>
		<rect x="79" y="104" class="st139" width="3" height="3"/>
		<rect x="36" y="117" class="st139" width="3" height="3"/>
		<rect x="36" y="108" class="st139" width="3" height="3"/>
		<path class="st139" d="M31,104H20v4h9v4h-6v4h6v4h-9v4h11c1.104,0,2-0.896,2-2v-8v-8C33,104.896,32.104,104,31,104z"/>
		<path class="st139" d="M53,104H42v4h9v4h-6v4h6v4h-9v4h11c1.104,0,2-0.896,2-2v-8v-8C55,104.896,54.104,104,53,104z"/>
		<path class="st139" d="M72,104H62c-1.104,0-2,0.896-2,2v16c0,1.104,0.896,2,2,2h10c1.104,0,2-0.896,2-2v-16
			C74,104.896,73.104,104,72,104z M70,120h-6v-12h6V120z"/>
	</g>
</g>
</svg>
