<?xml version="1.0" encoding="utf-8"?>
<!-- Generator: Adobe Illustrator 21.0.0, SVG Export Plug-In . SVG Version: 6.00 Build 0)  -->
<svg version="1.1" id="Layer_1" xmlns="http://www.w3.org/2000/svg" xmlns:xlink="http://www.w3.org/1999/xlink" x="0px" y="0px"
	 viewBox="0 0 85 150" style="enable-background:new 0 0 85 150;" xml:space="preserve">
<style type="text/css">
	.st0{fill:#5BAF5D;}
	.st1{fill:#66C468;}
	.st2{fill:#76E378;}
	.st3{fill:#4D944F;}
	.st4{fill:#9AC4F0;}
	.st5{fill:#E0E1E2;}
	.st6{fill:#958079;}
	.st7{fill:#444B52;}
</style>
<g>
	<g>
		<path class="st0" d="M66.24,108.84L83,138c-10.05-1.8-20.91-2.44-31-2.47c-2.74-0.02-5.42,0.02-8.01,0.08
			C26.51,136.06,13,138,13,138l17.16-29.84C38.25,107.02,50.34,106.47,66.24,108.84z"/>
	</g>
	<g>
		<path class="st1" d="M66.24,108.84c-15.9-2.37-27.99-1.82-36.08-0.68C22.11,109.29,18,111,18,111l17.55-31l-0.08-0.66
			c6.79-0.92,16.26-1.66,25.12-0.51L60.45,80L78,111C73.87,110.1,69.96,109.39,66.24,108.84z"/>
	</g>
	<g>
		<path class="st2" d="M58.42,61L70,81c-2.94-1.04-6.14-1.73-9.41-2.17c-8.86-1.15-18.33-0.41-25.12,0.51C29.8,80.11,26,81,26,81
			l2.23-3.86L48,43l1.15,2h0.01l4.63,7.99L58.42,61z"/>
	</g>
	<g>
		<path class="st3" d="M30.913,88.192c9.475-0.8,21.936-1.379,33.878-0.524L60.45,80l0.14-1.17c-8.86-1.15-18.33-0.41-25.12,0.51
			L35.55,80L30.913,88.192z"/>
	</g>
	<g>
		<path class="st4" d="M69,52.99c2.21,0,4,1.79,4,4c0,1.11-0.45,2.11-1.17,2.83c-0.73,0.72-1.73,1.17-2.83,1.17L58.42,61l-4.63-8.01
			h8.93H69z"/>
	</g>
	<g>
		<path class="st4" d="M61,37c2.21,0,4,1.79,4,3.99c0,1.11-0.45,2.1-1.17,2.82c-0.73,0.73-1.73,1.17-2.83,1.17L49.16,45h-0.01L48,43
			L28.23,77.14L28,77.01H17c-1.1,0-2.1-0.45-2.83-1.17C13.45,75.12,13,74.12,13,73.01c0-2.21,1.79-4,4-4l3.97-0.02
			c1.11,0,2.11-0.45,2.83-1.17c0.72-0.72,1.17-1.72,1.17-2.83c0-2.21-1.79-4-4-4h-1.95V61H5.98c-1.1,0-2.1-0.45-2.83-1.17
			C2.43,59.1,1.98,58.1,1.98,57c0-2.21,1.79-4,4-4l22.98-0.02c1.1,0,2.1-0.45,2.83-1.17c0.72-0.73,1.17-1.73,1.17-2.83
			c0-2.21-1.79-4-4-4h-2.99v0.01h-7.98c-2.21,0-4-1.79-4-4c0-1.11,0.45-2.11,1.17-2.83s1.72-1.17,2.83-1.17L61,37z"/>
	</g>
	<g>
		<path class="st5" d="M64,6.5c-2.53,1.69-4.2,4.64-4.2,8s1.67,6.31,4.2,8c-1.41,0.94-3.09,1.5-4.9,1.5c-5.02,0-9.1-4.25-9.1-9.5
			S54.08,5,59.1,5C60.91,5,62.59,5.56,64,6.5z"/>
	</g>
	<g>
		<path class="st6" d="M52,136v12h-8v-12l-0.01-0.39c2.59-0.06,5.27-0.1,8.01-0.08V136z"/>
	</g>
	<g>
		<path class="st3" d="M71.156,117.393l-4.916-8.554c-15.9-2.37-27.99-1.82-36.08-0.68l-4.959,8.623
			C36.526,115.998,51.897,115.787,71.156,117.393z"/>
	</g>
	<g>
		<path class="st7" d="M74,146H54v-8.446c10.683,0.118,20.32,0.924,28.647,2.415C82.765,139.99,82.883,140,83,140
			c0.643,0,1.256-0.312,1.635-0.849c0.447-0.637,0.486-1.474,0.098-2.148L70.07,111.489c2.471,0.43,4.979,0.915,7.505,1.466
			C77.716,112.985,77.859,113,78,113c0.627,0,1.228-0.295,1.61-0.813c0.468-0.635,0.519-1.485,0.13-2.172L63.51,81.345
			c2.11,0.411,4.069,0.92,5.823,1.541C69.551,82.963,69.777,83,70,83c0.584,0,1.152-0.256,1.539-0.723
			c0.536-0.645,0.612-1.555,0.192-2.279l-9.842-17.001L69,62.99c1.589,0,3.093-0.62,4.244-1.756C74.376,60.102,75,58.595,75,56.99
			c0-3.309-2.691-6-6-6h-6.28h-7.781l-2.313-3.996L61,46.98c1.605,0,3.112-0.624,4.245-1.756C66.376,44.091,67,42.587,67,40.99
			c0-3.303-2.691-5.99-6-5.99h-9c-0.045,0-0.087,0.01-0.132,0.013c-0.076-0.009-0.15-0.023-0.228-0.023H17.99
			c-1.605,0-3.113,0.624-4.244,1.755c-1.133,1.131-1.756,2.639-1.756,4.245c0,3.309,2.691,6,6,6h9c0.035,0,0.067-0.008,0.102-0.01
			h1.868c1.103,0,2,0.897,2,2c0,0.531-0.211,1.037-0.574,1.406c-0.389,0.383-0.895,0.594-1.428,0.594L5.98,51c-3.309,0-6,2.691-6,6
			c0,1.589,0.62,3.092,1.766,4.254C2.888,62.38,4.391,63,5.98,63h13.04c0.033,0,0.064-0.008,0.097-0.01h1.853c1.103,0,2,0.897,2,2
			c0,0.536-0.208,1.039-0.585,1.416c-0.376,0.376-0.879,0.584-1.425,0.584L17,67.01c-3.309,0-6,2.691-6,6
			c0,1.605,0.624,3.112,1.766,4.254C13.908,78.39,15.411,79.01,17,79.01h7.841L24.268,80c-0.399,0.69-0.349,1.551,0.126,2.191
			c0.475,0.64,1.283,0.938,2.062,0.756c0.028-0.007,2.243-0.52,5.748-1.095L16.26,110.015c-0.42,0.742-0.322,1.668,0.242,2.308
			c0.564,0.64,1.475,0.851,2.263,0.525c0.032-0.013,2.606-1.054,7.553-2.018l-15.052,26.174c-0.381,0.663-0.351,1.486,0.079,2.119
			c0.43,0.634,1.186,0.967,1.939,0.857c0.129-0.018,12.541-1.778,28.716-2.31V146H22c-1.104,0-2,0.896-2,2s0.896,2,2,2h52
			c1.104,0,2-0.896,2-2S75.104,146,74,146z M62.72,54.99H69c1.103,0,2,0.897,2,2c0,0.536-0.208,1.039-0.575,1.406
			c-0.388,0.383-0.895,0.594-1.427,0.594l-9.423,0.009l-2.321-4.009H62.72z M17,75.01c-0.531,0-1.037-0.211-1.416-0.584
			C15.208,74.049,15,73.546,15,73.01c0-1.103,0.897-2,2.01-2l3.96-0.02c1.605,0,3.112-0.624,4.243-1.756
			c1.133-1.132,1.757-2.639,1.757-4.244c0-3.309-2.691-6-6-6h-1.95c-0.033,0-0.064,0.008-0.097,0.01H5.98
			c-0.531,0-1.037-0.211-1.406-0.574C4.191,58.037,3.98,57.531,3.98,57c0-1.103,0.897-2,2.002-2l22.978-0.02
			c1.589,0,3.092-0.62,4.254-1.766c1.125-1.142,1.746-2.646,1.746-4.234c0-3.309-2.691-6-6-6h-2.99c-0.035,0-0.067,0.008-0.102,0.01
			H17.99c-1.103,0-2-0.897-2-2c0-0.537,0.207-1.039,0.584-1.417c0.376-0.376,0.879-0.583,1.416-0.583h33.65
			c0.045,0,0.087-0.01,0.132-0.013C51.848,38.986,51.922,39,52,39h9c1.103,0,2,0.893,2,1.99c0,0.529-0.208,1.029-0.584,1.406
			c-0.377,0.376-0.88,0.584-1.419,0.584l-10.691,0.018l-0.572-0.995c-0.356-0.62-1.016-1.002-1.731-1.003c-0.001,0-0.002,0-0.003,0
			c-0.713,0-1.373,0.38-1.731,0.998L27.157,75.01H17z M48.001,46.989l17.792,30.737c-1.564-0.353-3.215-0.646-4.946-0.879
			c-9.232-1.2-19.042-0.385-25.646,0.512c-2.018,0.273-3.797,0.562-5.261,0.82L48.001,46.989z M37.207,81.132
			c5.838-0.722,13.733-1.288,21.339-0.523c0.041,0.128,0.095,0.254,0.164,0.376l15.38,27.169c-2.528-0.489-5.026-0.916-7.467-1.279
			c-0.046-0.009-0.092-0.015-0.139-0.021c-16.644-2.475-29.091-1.735-36.602-0.675c-3.14,0.44-5.702,0.968-7.68,1.456L37.207,81.132
			z M31.402,110.013c7.186-0.931,18.561-1.476,33.592,0.672l14.178,24.668c-8.085-1.182-17.199-1.794-27.157-1.823
			c-2.39-0.02-4.955,0.008-8.076,0.081c-11.794,0.303-21.886,1.293-27.204,1.906L31.402,110.013z M46,137.569
			c1.433-0.026,2.753-0.041,4-0.044V146h-4V137.569z"/>
		<path class="st7" d="M83,146h-3c-1.104,0-2,0.896-2,2s0.896,2,2,2h3c1.104,0,2-0.896,2-2S84.104,146,83,146z"/>
		<path class="st7" d="M16,146h-3c-1.104,0-2,0.896-2,2s0.896,2,2,2h3c1.104,0,2-0.896,2-2S17.104,146,16,146z"/>
		<path class="st7" d="M59.1,26c2.129,0,4.208-0.635,6.009-1.836C65.666,23.793,66,23.169,66,22.501s-0.333-1.293-0.889-1.664
			C63.038,19.452,61.8,17.083,61.8,14.5s1.238-4.952,3.311-6.337C65.667,7.792,66,7.167,66,6.499s-0.334-1.292-0.891-1.663
			C63.308,3.635,61.229,3,59.1,3C52.979,3,48,8.159,48,14.5S52.979,26,59.1,26z M59.1,7c0.432,0,0.861,0.042,1.282,0.125
			C58.731,9.163,57.8,11.756,57.8,14.5s0.931,5.337,2.583,7.375C59.961,21.958,59.532,22,59.1,22c-3.915,0-7.1-3.364-7.1-7.5
			S55.185,7,59.1,7z"/>
	</g>
</g>
</svg>
