<?xml version="1.0" encoding="utf-8"?>
<!-- Generator: Adobe Illustrator 21.0.0, SVG Export Plug-In . SVG Version: 6.00 Build 0)  -->
<svg version="1.1" id="Layer_1" xmlns="http://www.w3.org/2000/svg" xmlns:xlink="http://www.w3.org/1999/xlink" x="0px" y="0px"
	 viewBox="0 0 41.951 150" style="enable-background:new 0 0 41.951 150;" xml:space="preserve">
<style type="text/css">
	.st0{fill:#FFFFFF;}
	.st1{fill:#6D6E71;}
	.st2{fill:#5A5B5E;}
	.st3{fill:#AEB0B1;}
	.st4{fill:#FFFFFF;stroke:#58595B;stroke-width:4;stroke-linecap:round;stroke-linejoin:round;stroke-miterlimit:10;}
	.st5{fill:#58595B;}
	.st6{fill:#A8724B;}
	.st7{fill:#916341;}
	.st8{fill:#754921;}
	.st9{fill:#FF6B6B;}
	.st10{fill:#FFD57E;}
	.st11{fill:#D9FF93;}
	.st12{fill:#E8E8E8;}
	.st13{fill:#85808A;}
	.st14{fill:#1787FF;}
	.st15{fill:#4DE69F;}
	.st16{fill:#C92A2A;}
	.st17{fill:#00386E;}
	.st18{fill:#231F20;}
	.st19{fill:#CCCCCC;}
	.st20{fill:#A12222;}
	.st21{fill:#002D58;}
	.st22{fill:#1C191A;}
	.st23{fill:#851616;}
	.st24{fill:#B01E1E;}
	.st25{fill:#E32626;}
	.st26{fill:#991919;}
	.st27{fill:#591300;}
	.st28{fill:#FF880F;}
	.st29{fill:#D16F0C;}
	.st30{fill:#F3D9D9;}
	.st31{fill:#ECC6C6;}
	.st32{fill:#E6B6B6;}
	.st33{fill:#F1D2D2;}
	.st34{fill:#E5B0B0;}
	.st35{fill:#D3AEAA;}
	.st36{fill:#F0CFCF;}
	.st37{fill:#F2D4D4;}
	.st38{fill:#B3F294;}
	.st39{fill:#99C4FF;}
	.st40{fill:#D2FFBA;}
	.st41{fill:#BDD9FF;}
	.st42{fill:#7C7E82;}
	.st43{fill:#E06AC6;}
	.st44{fill:#D9B580;}
	.st45{fill:#B556A0;}
	.st46{fill:#AD9166;}
	.st47{fill:#805075;}
	.st48{fill:#7E40B8;}
	.st49{fill:#A9FF8A;}
	.st50{fill:#FFFEA2;}
	.st51{fill:#5CFFEC;}
	.st52{fill:#6B92ED;}
	.st53{fill:#A398E7;}
	.st54{fill:#7F75BD;}
	.st55{fill:#FF564C;}
	.st56{fill:#8A81C4;}
	.st57{fill:#585082;}
	.st58{fill:#339CEE;}
	.st59{fill:#CFCFCF;}
	.st60{fill:#3E314D;}
	.st61{fill:#CF170E;}
	.st62{fill:#FFD49B;}
	.st63{fill:#E0D2C4;}
	.st64{fill:#E3BD8A;}
	.st65{fill:#A39287;}
	.st66{fill:#3F3E40;}
	.st67{fill:#64C2E3;}
	.st68{fill:#16C4C1;}
	.st69{fill:#48484A;}
	.st70{fill:#6BE0EB;}
	.st71{fill:#686A6B;}
	.st72{fill:#34A3C9;}
	.st73{fill:#7A7C7D;}
	.st74{fill:#ED3F45;}
	.st75{fill:#242424;}
	.st76{fill:#D9F1F4;}
	.st77{fill:#6B5C4E;}
	.st78{fill:#EBFFFF;}
	.st79{fill:#9BBECA;}
	.st80{fill:#564A3E;}
	.st81{fill:#B8D9E2;}
	.st82{fill:#645649;}
	.st83{fill:#424244;}
	.st84{fill:#766556;}
	.st85{fill:#353738;}
	.st86{fill:#2EADFF;}
	.st87{fill:#259CE8;}
	.st88{fill:#B9FEFF;}
	.st89{fill:#7EE6E8;}
	.st90{fill:#1485CC;}
	.st91{fill:#97F5F7;}
	.st92{fill:#4B425C;}
</style>
<g>
	<g>
		<path class="st86" d="M33.951,59v44.3c0,3.68-2.59,6.76-6.04,7.52c-0.53,0.12-1.09,0.18-1.66,0.18h-10.6
			c-0.57,0-1.13-0.06-1.66-0.18c-3.45-0.76-6.04-3.84-6.04-7.52V59H33.951z"/>
	</g>
	<g>
		<path class="st87" d="M27.951,111v2c0,3.86-3.13,7-7,7c-1.94,0-3.68-0.78-4.95-2.05c-1.27-1.27-2.05-3.02-2.05-4.95v-2l0.04-0.18
			c0.53,0.12,1.09,0.18,1.66,0.18h10.6c0.57,0,1.13-0.06,1.66-0.18L27.951,111z"/>
	</g>
	<g>
		<polygon class="st88" points="33.951,30 33.951,59 7.951,59 7.951,30 15.951,30 25.951,30 		"/>
	</g>
	<g>
		<rect x="15.951" y="9" class="st88" width="10" height="21"/>
	</g>
	<g>
		<polygon class="st89" points="25.951,30 25.945,30 25.945,59 33.951,59 33.951,30 		"/>
	</g>
	<g>
		<path class="st88" d="M31.451,2c1.93,0,3.5,1.57,3.5,3.5c0,0.96-0.39,1.84-1.03,2.47C33.291,8.61,32.411,9,31.451,9h-5.5h-10h-5.5
			c-1.93,0-3.5-1.57-3.5-3.5c0-0.96,0.39-1.84,1.03-2.47C8.611,2.39,9.491,2,10.451,2H31.451z"/>
	</g>
	<g>
		<path class="st90" d="M25.945,59v44.3c0,3.68-2.59,6.76-6.04,7.52c-0.53,0.12-1.09,0.18-1.66,0.18h8.006
			c0.57,0,1.13-0.06,1.66-0.18c3.45-0.76,6.04-3.84,6.04-7.52V59H25.945z"/>
	</g>
	<g>
		<rect x="19.94" y="30" class="st91" width="6.005" height="29"/>
	</g>
	<g>
		<rect x="19.94" y="9" class="st91" width="6.011" height="21"/>
	</g>
	<g>
		<path class="st91" d="M28.449,2H17.195c1.93,0,3.5,1.57,3.5,3.5c0,0.96-0.39,1.84-1.03,2.47C19.035,8.61,18.155,9,17.195,9h4.508
			h6.746c0.96,0,1.84-0.39,2.47-1.03c0.64-0.63,1.03-1.51,1.03-2.47C31.949,3.57,30.379,2,28.449,2z"/>
	</g>
	<g>
		<path class="st89" d="M31.451,2h-7.625c1.93,0,3.5,1.57,3.5,3.5c0,0.96-0.39,1.84-1.03,2.47C25.666,8.61,24.786,9,23.826,9h7.625
			c0.96,0,1.84-0.39,2.47-1.03c0.64-0.63,1.03-1.51,1.03-2.47C34.951,3.57,33.381,2,31.451,2z"/>
	</g>
	<g>
		<g>
			<path class="st90" d="M27.911,110.82c-0.53,0.12-1.09,0.18-1.66,0.18h-6.306v2c0,2.374-1.186,4.472-2.998,5.738
				c1.134,0.794,2.509,1.262,4.004,1.262c3.87,0,7-3.14,7-7v-2L27.911,110.82z"/>
		</g>
	</g>
	<g>
		<path class="st87" d="M19.94,59v44.3c0,3.68-2.59,6.76-6.04,7.52c-0.53,0.12-1.09,0.18-1.66,0.18h6.005
			c0.57,0,1.13-0.06,1.66-0.18c3.45-0.76,6.04-3.84,6.04-7.52V59H19.94z"/>
	</g>
	<path class="st92" d="M39.951,28h-12V11h3.5c1.479,0,2.862-0.578,3.872-1.604c1.05-1.033,1.628-2.417,1.628-3.896
		c0-3.033-2.468-5.5-5.5-5.5h-21C8.972,0,7.589,0.578,6.577,1.605C5.528,2.639,4.951,4.022,4.951,5.5c0,3.033,2.468,5.5,5.5,5.5h3.5
		v17h-12c-1.104,0-2,0.896-2,2s0.896,2,2,2h4v71.3c0,3.949,2.446,7.49,6,8.966V113c0,2.403,0.936,4.663,2.636,6.365
		c1.218,1.217,2.726,2.034,4.364,2.404v26.57c0,1.104,0.896,2,2,2s2-0.896,2-2v-26.572c4.002-0.913,7-4.494,7-8.768v-0.735
		c3.557-1.48,6-5.018,6-8.965V32h4c1.104,0,2-0.896,2-2S41.055,28,39.951,28z M8.951,5.5c0-0.398,0.154-0.77,0.455-1.067
		C9.681,4.154,10.052,4,10.451,4h21c0.827,0,1.5,0.673,1.5,1.5c0,0.399-0.153,0.77-0.455,1.067C32.22,6.846,31.849,7,31.451,7h-21
		C9.624,7,8.951,6.327,8.951,5.5z M23.951,11v17h-6V11H23.951z M20.951,118c-1.335,0-2.592-0.521-3.535-1.464
		c-0.944-0.944-1.465-2.201-1.465-3.536h10C25.951,115.757,23.708,118,20.951,118z M27.468,108.87
		c-0.381,0.086-0.79,0.13-1.218,0.13h-10.6c-0.427,0-0.837-0.044-1.229-0.133c-2.591-0.571-4.471-2.912-4.471-5.567V61h22v3h-5
		c-1.104,0-2,0.896-2,2s0.896,2,2,2h5v3h-9c-1.104,0-2,0.896-2,2s0.896,2,2,2h9v3h-5c-1.104,0-2,0.896-2,2s0.896,2,2,2h5v3h-9
		c-1.104,0-2,0.896-2,2s0.896,2,2,2h9v3h-5c-1.104,0-2,0.896-2,2s0.896,2,2,2h5v7.3C31.951,105.955,30.071,108.296,27.468,108.87z
		 M31.951,43h-9c-1.104,0-2,0.896-2,2s0.896,2,2,2h9v3h-5c-1.104,0-2,0.896-2,2s0.896,2,2,2h5v3h-22V32h4h2h10h2h4V43z"/>
</g>
</svg>
