<?xml version="1.0" encoding="utf-8"?>
<!-- Generator: Adobe Illustrator 21.0.0, SVG Export Plug-In . SVG Version: 6.00 Build 0)  -->
<svg version="1.1" id="Layer_1" xmlns="http://www.w3.org/2000/svg" xmlns:xlink="http://www.w3.org/1999/xlink" x="0px" y="0px"
	 viewBox="0 0 34.068 150" style="enable-background:new 0 0 34.068 150;" xml:space="preserve">
<style type="text/css">
	.st0{fill:#5BAF5D;}
	.st1{fill:#66C468;}
	.st2{fill:#76E378;}
	.st3{fill:#4D944F;}
	.st4{fill:#9AC4F0;}
	.st5{fill:#E0E1E2;}
	.st6{fill:#958079;}
	.st7{fill:#444B52;}
	.st8{fill:#6D6E71;}
	.st9{fill:#8D8F92;}
	.st10{fill:#855E3C;}
	.st11{fill:#A37C50;}
	.st12{fill:#805E3A;}
	.st13{fill:#6C4A30;}
	.st14{fill:#FFFFFF;}
	.st15{fill:#FCD75F;}
	.st16{fill:#EB5252;}
	.st17{fill:#B09A7D;}
	.st18{fill:#325743;}
	.st19{fill:#8C6645;}
	.st20{fill:#B58A64;}
	.st21{fill:#6E5036;}
	.st22{fill:#52351C;}
	.st23{fill:#D1D3D4;}
	.st24{fill:#6B6A6E;}
	.st25{fill:#68696B;}
	.st26{fill:#757578;}
	.st27{fill:#737476;}
	.st28{fill:#F1F2F2;}
	.st29{fill:#BABCBD;}
	.st30{fill:#38B077;}
	.st31{fill:#40A7FF;}
	.st32{fill:#4081FF;}
	.st33{fill:#4B5582;}
	.st34{fill:#3ECFCF;}
	.st35{fill:#89E2E2;}
	.st36{fill:#FF84C1;}
	.st37{fill:#FFB3D1;}
	.st38{fill:#FF99C1;}
	.st39{fill:#FFC642;}
	.st40{fill:#14E398;}
	.st41{fill:#FF91F6;}
	.st42{fill:#6BFFC9;}
	.st43{fill:#FF6BF3;}
	.st44{fill:#FFD67D;}
	.st45{fill:#425B80;}
	.st46{fill:#F2AC32;}
	.st47{fill:#F268EB;}
	.st48{fill:#00A7E8;}
	.st49{fill:#C7A983;}
	.st50{fill:#AD895D;}
	.st51{fill:#5E5755;}
	.st52{fill:#F24129;}
	.st53{fill:#C73522;}
	.st54{fill:#423E3A;}
	.st55{fill:#CC2121;}
	.st56{fill:#E0E0E0;}
	.st57{fill:#A31A1A;}
	.st58{fill:#2E292A;}
	.st59{fill:#EBEBEB;}
	.st60{fill:#58595B;}
	.st61{fill:#D2D3D4;}
	.st62{fill:#AFB1B5;}
	.st63{fill:#4CE637;}
	.st64{fill:#F03E3E;}
	.st65{fill:#DADADB;}
	.st66{opacity:0.3;}
	.st67{fill:#DFE0E1;}
	.st68{fill:#2CD4F5;}
	.st69{fill:#1BCDF0;}
	.st70{fill:none;stroke:#2CD4F5;stroke-width:4;stroke-linecap:round;stroke-miterlimit:10;}
	.st71{fill:#373F61;}
	.st72{opacity:0.2;}
	.st73{fill:#FF82A0;}
	.st74{fill:#E6E6E6;}
	.st75{fill:#FF5C83;}
	.st76{fill:#D4335B;}
	.st77{fill:#A0A2A5;}
	.st78{fill:#436C8C;}
	.st79{fill:#EDEDED;}
	.st80{fill:#2BAF73;}
	.st81{fill:#50DE9D;}
	.st82{fill:#D6D6D6;}
	.st83{fill:#1B8555;}
	.st84{fill:#3B434F;}
	.st85{fill:#73DEEF;}
	.st86{fill:#DCA0FF;}
	.st87{fill:#D78DFF;}
	.st88{fill:#DC92FF;}
	.st89{fill:#73D0E4;}
	.st90{fill:#726097;}
	.st91{fill:#C8CACC;}
	.st92{fill:#9D9EA1;}
	.st93{fill:#474747;}
	.st94{fill:#DBDBDB;}
	.st95{fill:#282829;}
	.st96{fill:#F7FFE0;}
	.st97{fill:#C862D4;}
	.st98{fill:#C8CFB5;}
	.st99{fill:#793B80;}
	.st100{fill:#46385E;}
</style>
<g>
	<g>
		<path class="st91" d="M20.068,81.99h0.21c2.67,0,4.87,2.1,4.99,4.77l2.29,50.24c0.27,5.99-4.51,10.99-10.5,10.99
			c-6,0-10.78-5-10.5-10.99l2.28-50.24c0.12-2.67,2.32-4.77,5-4.77h0.21H20.068z"/>
	</g>
	<g>
		<path class="st91" d="M20.088,60l-0.02,21.99h-6.02L14.068,60l0.1-0.41c0.94,0.26,1.91,0.4,2.9,0.4c0.26,0,0.52-0.01,0.77-0.03
			L20.088,60z"/>
	</g>
	<g>
		<path class="st91" d="M17.068,17.99c8.28,0,15,9.4,15,21c0,11.24-6.31,20.41-14.23,20.97c-0.25,0.02-0.51,0.03-0.77,0.03
			c-0.99,0-1.96-0.14-2.9-0.4c-6.9-1.89-12.1-10.39-12.1-20.6C2.068,27.39,8.788,17.99,17.068,17.99z"/>
	</g>
	<g>
		<path class="st92" d="M17.068,17.99c-5.078,0-9.562,3.545-12.276,8.956C6.704,25.709,8.825,25,11.068,25c8.28,0,15,9.4,15,21
			c0,4.501-1.024,8.657-2.746,12.074c5.159-3.319,8.746-10.611,8.746-19.084C32.068,27.39,25.348,17.99,17.068,17.99z"/>
	</g>
	<g>
		<path class="st92" d="M25.268,86.76c-0.12-2.67-2.32-4.77-4.99-4.77h-0.21h-6.02h-0.21c-0.096,0-0.186,0.022-0.281,0.027
			c2.54,0.143,4.595,2.168,4.71,4.743l2.29,50.24c0.215,4.76-2.765,8.886-7.002,10.383c1.096,0.387,2.271,0.607,3.502,0.607
			c5.99,0,10.77-5,10.5-10.99L25.268,86.76z"/>
	</g>
	<g>
		<path class="st93" d="M22.069,80.228l0.018-19.282c6.966-2.901,11.98-11.654,11.98-21.956c0-12.682-7.626-23-17-23
			s-17,10.318-17,23c0,10.158,4.96,19.072,11.999,21.982L12.05,80.227c-2.899,0.759-5.068,3.314-5.21,6.442l-2.28,50.237
			c-0.161,3.445,1.061,6.717,3.441,9.211c2.383,2.497,5.6,3.873,9.057,3.873c3.448,0,6.66-1.373,9.043-3.866
			c2.384-2.493,3.61-5.767,3.455-9.215l-2.29-50.239C27.125,83.543,24.961,80.99,22.069,80.228z M18.07,79.99h-2.02l0.016-18.044
			c0.334,0.027,0.668,0.044,1.002,0.044c0.314,0,0.628-0.013,0.911-0.035c0.036-0.003,0.071-0.012,0.108-0.015L18.07,79.99z
			 M4.068,38.99c0-10.477,5.832-19,13-19s13,8.523,13,19c0,9.98-5.55,18.492-12.389,18.976c-0.948,0.079-1.983-0.028-2.977-0.304
			c-0.002,0-0.004-0.001-0.006-0.002C8.537,55.974,4.068,48.122,4.068,38.99z M23.209,143.36c-1.621,1.696-3.806,2.63-6.151,2.63
			c-2.353,0-4.542-0.936-6.163-2.635c-1.618-1.695-2.448-3.919-2.339-6.265l2.28-50.241c0.072-1.604,1.391-2.859,3.002-2.859h0.061
			c0.05,0.004,0.097,0.015,0.148,0.015h0.001c0.049,0,0.095-0.011,0.143-0.015h5.729c0.049,0.004,0.096,0.015,0.146,0.015h0.001
			c0.049,0,0.095-0.011,0.143-0.015h0.067c1.605,0,2.92,1.256,2.992,2.86l2.29,50.239C25.666,139.437,24.831,141.664,23.209,143.36z
			"/>
		<path class="st93" d="M19.068,50.19c0-1.104-0.896-2-2-2c-3.252,0-6-4.213-6-9.2c0-1.104-0.896-2-2-2s-2,0.896-2,2
			c0,7.278,4.486,13.2,10,13.2C18.172,52.19,19.068,51.294,19.068,50.19z"/>
	</g>
</g>
</svg>
