<?xml version="1.0" encoding="utf-8"?>
<!-- Generator: Adobe Illustrator 21.0.0, SVG Export Plug-In . SVG Version: 6.00 Build 0)  -->
<svg version="1.1" id="Layer_1" xmlns="http://www.w3.org/2000/svg" xmlns:xlink="http://www.w3.org/1999/xlink" x="0px" y="0px"
	 viewBox="0 0 106.021 150" style="enable-background:new 0 0 106.021 150;" xml:space="preserve">
<style type="text/css">
	.st0{fill:#5BAF5D;}
	.st1{fill:#66C468;}
	.st2{fill:#76E378;}
	.st3{fill:#4D944F;}
	.st4{fill:#9AC4F0;}
	.st5{fill:#E0E1E2;}
	.st6{fill:#958079;}
	.st7{fill:#444B52;}
	.st8{fill:#6D6E71;}
	.st9{fill:#8D8F92;}
	.st10{fill:#855E3C;}
	.st11{fill:#A37C50;}
	.st12{fill:#805E3A;}
	.st13{fill:#6C4A30;}
	.st14{fill:#FFFFFF;}
	.st15{fill:#FCD75F;}
	.st16{fill:#EB5252;}
	.st17{fill:#B09A7D;}
	.st18{fill:#325743;}
	.st19{fill:#8C6645;}
	.st20{fill:#B58A64;}
	.st21{fill:#6E5036;}
	.st22{fill:#52351C;}
	.st23{fill:#D1D3D4;}
	.st24{fill:#6B6A6E;}
	.st25{fill:#68696B;}
	.st26{fill:#757578;}
	.st27{fill:#737476;}
	.st28{fill:#F1F2F2;}
	.st29{fill:#BABCBD;}
	.st30{fill:#38B077;}
	.st31{fill:#40A7FF;}
	.st32{fill:#4081FF;}
	.st33{fill:#4B5582;}
	.st34{fill:#3ECFCF;}
	.st35{fill:#89E2E2;}
	.st36{fill:#FF84C1;}
	.st37{fill:#FFB3D1;}
	.st38{fill:#FF99C1;}
	.st39{fill:#FFC642;}
	.st40{fill:#14E398;}
	.st41{fill:#FF91F6;}
	.st42{fill:#6BFFC9;}
	.st43{fill:#FF6BF3;}
	.st44{fill:#FFD67D;}
	.st45{fill:#425B80;}
	.st46{fill:#F2AC32;}
	.st47{fill:#F268EB;}
	.st48{fill:#00A7E8;}
	.st49{fill:#C7A983;}
	.st50{fill:#AD895D;}
	.st51{fill:#5E5755;}
	.st52{fill:#F24129;}
	.st53{fill:#C73522;}
	.st54{fill:#423E3A;}
	.st55{fill:#CC2121;}
	.st56{fill:#E0E0E0;}
	.st57{fill:#A31A1A;}
	.st58{fill:#2E292A;}
	.st59{fill:#EBEBEB;}
	.st60{fill:#58595B;}
	.st61{fill:#D2D3D4;}
	.st62{fill:#AFB1B5;}
	.st63{fill:#4CE637;}
	.st64{fill:#F03E3E;}
	.st65{fill:#DADADB;}
	.st66{opacity:0.3;}
	.st67{fill:#DFE0E1;}
	.st68{fill:#2CD4F5;}
	.st69{fill:#1BCDF0;}
	.st70{fill:none;stroke:#2CD4F5;stroke-width:4;stroke-linecap:round;stroke-miterlimit:10;}
	.st71{fill:#373F61;}
	.st72{opacity:0.2;}
	.st73{fill:#73DEEF;}
	.st74{fill:#DCA0FF;}
	.st75{fill:#D78DFF;}
	.st76{fill:#DC92FF;}
	.st77{fill:#73D0E4;}
	.st78{fill:#726097;}
	.st79{fill:#FF82A0;}
	.st80{fill:#E6E6E6;}
	.st81{fill:#FF5C83;}
	.st82{fill:#D4335B;}
	.st83{fill:#A0A2A5;}
	.st84{fill:#436C8C;}
	.st85{fill:#EDEDED;}
	.st86{fill:#2BAF73;}
	.st87{fill:#50DE9D;}
	.st88{fill:#D6D6D6;}
	.st89{fill:#1B8555;}
	.st90{fill:#3B434F;}
</style>
<g>
	<g>
		<path class="st68" d="M5.846,81.354c3.04-7.188,9.412-12.385,17.045-13.902c1.084-0.215,1.787-1.268,1.572-2.352
			c-0.215-1.083-1.271-1.788-2.352-1.571c-8.935,1.776-16.393,7.857-19.949,16.267C0.728,83.188,0,86.789,0,90.5v32
			c0,2.413,0.313,4.81,0.933,7.123c0.238,0.895,1.047,1.484,1.931,1.484c0.171,0,0.345-0.022,0.518-0.068
			c1.067-0.286,1.701-1.382,1.415-2.449C4.268,126.613,4,124.564,4,122.5v-32C4,87.327,4.621,84.25,5.846,81.354z"/>
		<path class="st68" d="M53,96.14c-1.104,0-2,0.896-2,2v24.36c0,12.958-10.542,23.5-23.5,23.5c-5.076,0-9.909-1.593-13.975-4.604
			c-0.887-0.659-2.141-0.472-2.797,0.416c-0.658,0.887-0.472,2.14,0.416,2.797C15.903,148.136,21.56,150,27.5,150
			c15.163,0,27.5-12.337,27.5-27.5V98.14C55,97.035,54.104,96.14,53,96.14z"/>
		<path class="st68" d="M24,116.899c-1.104,0-2,0.896-2,2v4.601c0,3.032,2.468,5.5,5.5,5.5s5.5-2.468,5.5-5.5v-11.601
			c0-1.104-0.896-2-2-2s-2,0.896-2,2V123.5c0,0.827-0.673,1.5-1.5,1.5s-1.5-0.673-1.5-1.5v-4.601
			C26,117.795,25.104,116.899,24,116.899z"/>
		<path class="st68" d="M27.5,143c1.104,0,2-0.896,2-2s-0.896-2-2-2c-8.547,0-15.5-6.953-15.5-15.5v-10.681l19.431-19.431
			c0.311-0.311,0.582-0.655,0.809-1.026c0.574-0.943,0.275-2.174-0.667-2.749c-0.945-0.576-2.175-0.276-2.749,0.667
			c-0.061,0.101-0.135,0.194-0.221,0.28l-20.01,20.01c-0.096,0.095-0.182,0.201-0.258,0.314c-0.024,0.037-0.041,0.077-0.062,0.114
			c-0.043,0.075-0.087,0.149-0.121,0.229c-0.024,0.057-0.037,0.117-0.055,0.177c-0.02,0.065-0.045,0.128-0.058,0.196
			c-0.024,0.123-0.036,0.247-0.037,0.371c0,0.006-0.002,0.012-0.002,0.019v11.51C8,134.252,16.748,143,27.5,143z"/>
		<path class="st68" d="M44.404,128.468c0.115,0.021,0.229,0.029,0.342,0.029c0.956,0,1.801-0.687,1.969-1.66
			C46.904,125.741,47,124.618,47,123.5V98.14c0-1.104-0.896-2-2-2s-2,0.896-2,2v25.36c0,0.891-0.076,1.785-0.227,2.657
			C42.586,127.245,43.315,128.28,44.404,128.468z"/>
		<path class="st68" d="M8.871,100.393c-0.781,0.781-0.781,2.047,0,2.828c0.391,0.391,0.902,0.586,1.414,0.586
			s1.023-0.195,1.414-0.586L26.48,88.439c0.145-0.145,0.312-0.255,0.496-0.33c1.023-0.416,1.517-1.582,1.102-2.605
			c-0.417-1.023-1.582-1.517-2.605-1.102c-0.684,0.278-1.296,0.685-1.82,1.209L8.871,100.393z"/>
		<path class="st68" d="M22.646,77.995c-1.476,0.628-2.803,1.525-3.943,2.666l-6.522,6.522c0.144-0.963,0.369-1.91,0.693-2.828
			c0.366-1.042-0.181-2.185-1.222-2.552c-1.046-0.365-2.184,0.181-2.552,1.222C8.371,85.101,8,87.279,8,89.5v2.691c0,0,0,0,0,0
			c0,0.132,0.014,0.263,0.04,0.393c0.01,0.052,0.031,0.1,0.045,0.151c0.021,0.075,0.039,0.15,0.069,0.223
			c0.024,0.057,0.057,0.108,0.085,0.162c0.032,0.061,0.06,0.124,0.099,0.182c0.055,0.083,0.121,0.157,0.188,0.23
			c0.021,0.023,0.037,0.05,0.06,0.073c0.029,0.029,0.064,0.05,0.094,0.077c0.067,0.059,0.133,0.12,0.207,0.169
			c0.067,0.045,0.14,0.078,0.211,0.115c0.044,0.023,0.086,0.05,0.132,0.07c0.089,0.037,0.182,0.062,0.274,0.085
			c0.033,0.008,0.064,0.022,0.098,0.029c0.131,0.026,0.263,0.041,0.396,0.041s0.266-0.015,0.396-0.041
			c0.034-0.007,0.065-0.021,0.098-0.029c0.093-0.024,0.185-0.048,0.274-0.085c0.046-0.019,0.088-0.047,0.132-0.07
			c0.071-0.036,0.144-0.069,0.211-0.115c0.074-0.05,0.14-0.11,0.207-0.169c0.031-0.027,0.065-0.048,0.094-0.077l10.117-10.117
			c0.777-0.776,1.679-1.387,2.682-1.812c1.016-0.433,1.489-1.607,1.058-2.624C24.838,78.037,23.665,77.562,22.646,77.995z"/>
		<path class="st68" d="M15,123.5c0,6.893,5.607,12.5,12.5,12.5S40,130.393,40,123.5v-18.991c0-1.104-0.896-2-2-2s-2,0.896-2,2
			V123.5c0,4.687-3.813,8.5-8.5,8.5s-8.5-3.813-8.5-8.5v-7.781l17.38-17.38c0.624-0.624,1.184-1.314,1.662-2.054
			c0.602-0.927,0.337-2.165-0.59-2.766c-0.927-0.604-2.165-0.338-2.766,0.59c-0.327,0.504-0.709,0.976-1.135,1.401L15,114.062V123.5
			z"/>
	</g>
	<g>
		<path class="st69" d="M56.999,99.099c-1.104,0-2-0.896-2-2V84.36c0-1.104,0.896-2,2-2s2,0.896,2,2v12.738
			C58.999,98.203,58.104,99.099,56.999,99.099z"/>
	</g>
	<g>
		<path class="st69" d="M47.431,100.064c-1.104,0-2-0.896-2-2v-14.9c0-10.417-8.459-18.897-18.869-18.931l-3.17,0.204
			c-1.075,0.062-2.053-0.765-2.124-1.868c-0.07-1.102,0.766-2.053,1.868-2.124l3.363-0.211c12.645,0,22.932,10.287,22.932,22.931
			v14.9C49.431,99.169,48.535,100.064,47.431,100.064z"/>
	</g>
	<g>
		<path class="st69" d="M28.898,88.734c-0.512,0-1.023-0.195-1.414-0.586c-0.781-0.781-0.781-2.047,0-2.828l0.61-0.61
			c0.853-0.853,0.853-2.239,0-3.092c-0.802-0.8-2.061-0.862-2.933-0.146c-0.853,0.702-2.112,0.581-2.814-0.273
			c-0.702-0.853-0.58-2.113,0.273-2.814c2.47-2.033,6.039-1.857,8.302,0.405c2.412,2.412,2.412,6.336,0,8.748l-0.61,0.61
			C29.922,88.539,29.41,88.734,28.898,88.734z"/>
	</g>
	<g>
		<path class="st69" d="M34.098,95.432c-0.499,0-0.998-0.186-1.386-0.558c-0.796-0.766-0.822-2.031-0.057-2.828l1.332-1.387
			c4.145-4.146,4.145-10.844,0.028-14.961c-2.956-2.955-7.384-3.891-11.285-2.381c-1.028,0.399-2.188-0.113-2.587-1.144
			c-0.398-1.03,0.113-2.188,1.144-2.587c5.375-2.082,11.48-0.792,15.557,3.283c5.677,5.677,5.677,14.914,0,20.59l-1.304,1.358
			C35.147,95.226,34.623,95.432,34.098,95.432z"/>
	</g>
	<path class="st71" d="M104.395,120.916L72.52,89.032c4.156-5.201,6.431-11.647,6.431-18.362c0-16.25-13.22-29.47-29.47-29.47
		S20.01,54.42,20.01,70.67c0,16.25,13.221,29.47,29.471,29.47c5.912,0,11.535-1.735,16.389-5.002l32.146,32.157
		c0.854,0.855,1.986,1.326,3.185,1.326c1.205,0,2.34-0.471,3.194-1.326c0.879-0.879,1.319-2.034,1.319-3.189
		C105.714,122.95,105.274,121.795,104.395,120.916z M24.01,70.67c0-14.044,11.426-25.47,25.471-25.47
		c14.044,0,25.47,11.426,25.47,25.47c0,6.36-2.354,12.445-6.629,17.134c-1.047,1.148-2.194,2.199-3.41,3.123
		c-0.002,0.001-0.003,0.002-0.005,0.003c-4.463,3.408-9.798,5.21-15.426,5.21C35.436,96.14,24.01,84.714,24.01,70.67z
		 M101.566,124.466c-0.128,0.128-0.27,0.154-0.366,0.154c-0.075,0-0.222-0.021-0.356-0.154L69.069,92.681
		c0.083-0.073,0.163-0.151,0.245-0.225c0.046-0.042,0.091-0.083,0.136-0.125c0.123-0.114,0.248-0.225,0.37-0.341l31.746,31.755
		C101.766,123.943,101.766,124.267,101.566,124.466z"/>
	<g class="st66">
		<circle class="st14" cx="49.482" cy="70.668" r="23.332"/>
	</g>
	<g>
		<path class="st14" d="M32.008,73.669c-1.104,0-2-0.896-2-2c0-11.29,9.185-20.476,20.475-20.476c1.104,0,2,0.896,2,2s-0.896,2-2,2
			c-9.084,0-16.475,7.391-16.475,16.476C34.008,72.773,33.112,73.669,32.008,73.669z"/>
	</g>
	<g class="st72">
		<path class="st14" d="M59.292,49.499c4.032,4.194,6.516,9.888,6.516,16.165c0,12.886-10.446,23.332-23.332,23.332
			c-3.505,0-6.827-0.778-9.81-2.163C36.911,91.248,42.873,94,49.482,94c12.886,0,23.332-10.446,23.332-23.332
			C72.814,61.287,67.275,53.205,59.292,49.499z"/>
	</g>
</g>
</svg>
