<?xml version="1.0" encoding="utf-8"?>
<!-- Generator: Adobe Illustrator 21.0.0, SVG Export Plug-In . SVG Version: 6.00 Build 0)  -->
<svg version="1.1" id="Layer_1" xmlns="http://www.w3.org/2000/svg" xmlns:xlink="http://www.w3.org/1999/xlink" x="0px" y="0px"
	 viewBox="0 0 49.034 150" style="enable-background:new 0 0 49.034 150;" xml:space="preserve">
<style type="text/css">
	.st0{fill:#5BAF5D;}
	.st1{fill:#66C468;}
	.st2{fill:#76E378;}
	.st3{fill:#4D944F;}
	.st4{fill:#9AC4F0;}
	.st5{fill:#E0E1E2;}
	.st6{fill:#958079;}
	.st7{fill:#444B52;}
	.st8{fill:#6D6E71;}
	.st9{fill:#8D8F92;}
	.st10{fill:#855E3C;}
	.st11{fill:#A37C50;}
	.st12{fill:#805E3A;}
	.st13{fill:#6C4A30;}
	.st14{fill:#FFFFFF;}
	.st15{fill:#FCD75F;}
	.st16{fill:#EB5252;}
	.st17{fill:#B09A7D;}
	.st18{fill:#325743;}
	.st19{fill:#8C6645;}
	.st20{fill:#B58A64;}
	.st21{fill:#6E5036;}
	.st22{fill:#52351C;}
	.st23{fill:#D1D3D4;}
	.st24{fill:#6B6A6E;}
	.st25{fill:#68696B;}
	.st26{fill:#757578;}
	.st27{fill:#737476;}
	.st28{fill:#F1F2F2;}
	.st29{fill:#BABCBD;}
	.st30{fill:#38B077;}
	.st31{fill:#40A7FF;}
	.st32{fill:#4081FF;}
	.st33{fill:#4B5582;}
	.st34{fill:#3ECFCF;}
	.st35{fill:#89E2E2;}
	.st36{fill:#FF84C1;}
	.st37{fill:#FFB3D1;}
	.st38{fill:#FF99C1;}
	.st39{fill:#FFC642;}
	.st40{fill:#14E398;}
	.st41{fill:#FF91F6;}
	.st42{fill:#6BFFC9;}
	.st43{fill:#FF6BF3;}
	.st44{fill:#FFD67D;}
	.st45{fill:#425B80;}
	.st46{fill:#F2AC32;}
	.st47{fill:#F268EB;}
	.st48{fill:#00A7E8;}
	.st49{fill:#C7A983;}
	.st50{fill:#AD895D;}
	.st51{fill:#5E5755;}
	.st52{fill:#F24129;}
	.st53{fill:#C73522;}
	.st54{fill:#423E3A;}
</style>
<g>
	<g>
		<g>
			<path class="st34" d="M19.825,64.361c-2.68,0.18-5.4-0.48-7.76-1.95l-0.78-0.04c0.58-13.56,2.51-25.28,2.51-25.28
				c0.02,2.2,4.95,3.95,11.01,3.91c6.06-0.05,10.95-1.86,10.95-4.06c0.07,0.41,2.06,12.04,2.73,25.44c-2.74-1.36-5.82-1.77-8.76-1.2
				c-0.85,0.15-1.69,0.39-2.5,0.72c-0.39,0.14-0.78,0.31-1.16,0.5l-1.21,0.61c-0.54,0.27-1.1,0.5-1.67,0.69
				c-0.54,0.19-1.1,0.34-1.65,0.44c-0.13,0.03-0.27,0.05-0.41,0.08c-0.23,0.04-0.45,0.07-0.68,0.08
				C20.235,64.331,20.035,64.351,19.825,64.361z"/>
		</g>
		<g>
			<path class="st35" d="M35.729,36.931v0.01c0,2.2-4.89,4.01-10.95,4.06c-6.06,0.04-10.99-1.71-11.01-3.91
				c-0.01-2.21,4.89-4.03,10.95-4.08C30.789,32.971,35.719,34.721,35.729,36.931z"/>
		</g>
		<g>
			<g>
				<path class="st36" d="M31.326,60.977c0.381-0.025,0.763-0.034,1.145-0.029C32.089,60.944,31.708,60.95,31.326,60.977z"/>
			</g>
			<g>
				<path class="st36" d="M32.471,60.949c0.02,0,0.041,0.001,0.061,0.002C32.512,60.95,32.491,60.949,32.471,60.949z"/>
			</g>
			<g>
				<path class="st36" d="M38.459,62.381c-1.76-0.874-3.661-1.342-5.575-1.421c-0.039-0.002-0.078-0.002-0.117-0.003
					c-0.078-0.003-0.157-0.005-0.235-0.006c0.045,0.001,0.089,0.007,0.134,0.008c-0.487-0.015-0.974-0.009-1.459,0.027
					c-0.505,0.04-1.009,0.098-1.508,0.195c-0.85,0.16-1.69,0.4-2.5,0.72c-0.39,0.14-0.78,0.31-1.16,0.5l-1.21,0.61
					c-0.54,0.27-1.1,0.5-1.67,0.69c-0.39,15.11,1.17,31.47,8.98,36.09C38.389,93.021,39.179,76.701,38.459,62.381z M34.584,61.15
					c0.465,0.079,0.928,0.174,1.384,0.301C35.512,61.324,35.049,61.229,34.584,61.15z M33.152,60.987
					c0.329,0.021,0.656,0.054,0.983,0.098C33.809,61.04,33.481,61.008,33.152,60.987z"/>
			</g>
		</g>
		<g>
			<path class="st37" d="M30.649,101.141c0.26-0.2,0.52-0.4,0.76-0.62C31.159,100.751,30.909,100.951,30.649,101.141z"/>
		</g>
		<g>
			<path class="st37" d="M30.249,101.421c0.14-0.09,0.27-0.18,0.4-0.28C30.519,101.241,30.389,101.341,30.249,101.421z"/>
		</g>
		<g>
			<path class="st37" d="M29.419,101.921c0.28-0.15,0.56-0.32,0.83-0.5C29.979,101.611,29.709,101.771,29.419,101.921z"/>
		</g>
		<g>
			<path class="st37" d="M28.069,102.501c0.16-0.05,0.31-0.1,0.46-0.17C28.379,102.401,28.229,102.451,28.069,102.501z"/>
		</g>
		<g>
			<path class="st37" d="M29.699,61.181c-0.85,0.16-1.69,0.4-2.5,0.72C28.009,61.571,28.849,61.331,29.699,61.181z"/>
		</g>
		<g>
			<path class="st37" d="M27.129,102.771c0.16-0.04,0.31-0.08,0.47-0.12C27.449,102.691,27.289,102.731,27.129,102.771z"/>
		</g>
		<g>
			<path class="st38" d="M26.499,102.881c0.13-0.02,0.27-0.04,0.4-0.07C26.769,102.841,26.629,102.871,26.499,102.881z"/>
		</g>
		<g>
			<path class="st38" d="M21.099,64.221c0.14-0.03,0.28-0.05,0.41-0.08C21.369,64.171,21.229,64.191,21.099,64.221z"/>
		</g>
		<g>
			<path class="st37" d="M19.799,64.361c0.21-0.01,0.41-0.03,0.62-0.06C20.219,64.331,20.009,64.351,19.799,64.361z"/>
		</g>
		<g>
			<path class="st37" d="M12.039,62.411c2.36,1.47,5.08,2.13,7.76,1.95c0.21-0.01,0.42-0.03,0.62-0.06
				c0.23-0.01,0.45-0.04,0.68-0.08c0.13-0.03,0.27-0.05,0.41-0.08c0.55-0.1,1.11-0.25,1.65-0.44c-0.39,15.11,1.17,31.47,8.98,36.09
				c-0.23,0.26-0.48,0.51-0.73,0.73c-0.24,0.22-0.5,0.42-0.76,0.62c-0.13,0.1-0.26,0.19-0.4,0.28c-0.27,0.18-0.55,0.35-0.83,0.5
				c-0.29,0.16-0.58,0.3-0.89,0.41c-0.15,0.07-0.3,0.12-0.46,0.17c-0.15,0.06-0.31,0.11-0.47,0.15s-0.31,0.08-0.47,0.12
				c-0.08,0.01-0.15,0.03-0.23,0.04c-0.13,0.03-0.27,0.05-0.4,0.07c-0.48,0.08-0.97,0.12-1.48,0.12c-0.09,0-0.18,0-0.27,0
				c-12.58-0.22-14.29-22.14-13.49-40.63L12.039,62.411z"/>
		</g>
		<g>
			<path class="st35" d="M24.779,41.001c-6.06,0.04-10.99-1.71-11.01-3.91c0,0-1.93,11.72-2.51,25.28l0.78,0.04
				c2.36,1.47,5.08,2.13,7.76,1.95c0.21-0.01,0.41-0.03,0.62-0.06c0.23-0.01,0.45-0.04,0.68-0.08c0.14-0.03,0.28-0.05,0.41-0.08
				c0.55-0.1,1.11-0.25,1.65-0.44c0.368-8.609,1.288-16.711,2.126-22.713C25.116,40.992,24.95,40.999,24.779,41.001z"/>
		</g>
	</g>
	<g>
		<path class="st8" d="M27.078,103.795c0.05-0.008,0.104-0.018,0.184-0.033c0.037-0.005,0.073-0.012,0.109-0.021l0.47-0.12
			c0.204-0.051,0.408-0.114,0.524-0.164c0.204-0.063,0.395-0.13,0.498-0.183c0.335-0.119,0.666-0.271,1.016-0.465
			c0.341-0.177,0.649-0.362,0.867-0.521c0.18-0.103,0.348-0.228,0.49-0.339c0.292-0.212,0.571-0.436,0.833-0.678
			c0.28-0.246,0.563-0.529,0.804-0.802c5.328-5.772,7.545-18.528,6.594-37.907c0.01-0.056,0.022-0.112,0.022-0.172
			c0-0.095-0.018-0.185-0.043-0.272c-0.662-12.939-2.551-24.282-2.723-25.288c-0.022-0.51-0.213-1.236-0.956-1.972
			c-1.757-1.737-5.998-2.848-10.848-2.848c-0.069,0-0.14,0-0.209,0c-5.826,0.048-11.7,1.745-11.921,4.897
			c-0.001,0.007-0.007,0.013-0.008,0.02c-0.02,0.118-1.946,11.936-2.522,25.399c-0.85,19.634,1.462,32.503,6.869,38.249
			c1.6,1.699,3.476,2.768,5.599,3.201l-0.915,36.392c-4.313,0.453-9.058,1.978-9.044,4.931c0.03,3.228,5.947,4.901,11.862,4.9
			c0.051,0,0.104,0,0.155,0c4.936-0.041,9.259-1.221,11.014-3.007c0.776-0.79,0.934-1.563,0.929-2.068
			c-0.014-3.074-5.198-4.527-9.734-4.843l0.026-36.278C27.039,103.801,27.059,103.799,27.078,103.795z M14.388,39.702
			c2.159,1.521,6.178,2.3,10.193,2.3c0.068,0,0.138,0,0.205,0c4.068-0.034,8.168-0.869,10.346-2.439
			c0.593,3.928,1.707,12.106,2.241,21.28c-2.513-0.912-5.246-1.151-7.848-0.646c-0.927,0.164-1.837,0.425-2.664,0.764
			c-0.413,0.148-0.841,0.333-1.272,0.548l-1.207,0.608c-0.487,0.244-1.006,0.458-1.555,0.641c-0.498,0.175-1.002,0.31-1.53,0.406
			l-0.163,0.032c-0.089,0.016-0.176,0.032-0.207,0.041c-0.186,0.033-0.364,0.059-0.648,0.075c-0.179,0.025-0.35,0.043-0.547,0.053
			c-2.532,0.167-5.001-0.454-7.163-1.801c-0.084-0.052-0.176-0.075-0.267-0.1C12.748,52.11,13.82,43.694,14.388,39.702z
			 M24.725,34.011c0.068,0,0.136,0,0.204,0c4.901,0,8.318,1.169,9.432,2.27c0.167,0.165,0.366,0.413,0.367,0.655v0
			c0,0.002,0,0.003,0,0.005c0,1.186-3.972,3.01-9.957,3.06c-6.033,0.057-9.992-1.731-10.003-2.915
			C14.764,35.895,18.732,34.061,24.725,34.011z M12.215,63.666c2.072,1.134,4.358,1.725,6.693,1.725c0.312,0,0.626-0.01,0.939-0.031
			c0.241-0.012,0.471-0.035,0.614-0.06c0.272-0.012,0.535-0.046,0.86-0.104l0.365-0.071c0.599-0.108,1.205-0.27,1.788-0.475
			c0.623-0.208,1.229-0.458,1.804-0.746l1.207-0.608c0.358-0.179,0.712-0.332,1.091-0.469c0.735-0.3,1.508-0.522,2.312-0.664
			c2.535-0.493,5.209-0.174,7.595,0.878c0.863,18.349-1.234,30.821-6.095,36.089c-0.202,0.229-0.421,0.447-0.658,0.656
			c-0.221,0.203-0.441,0.38-0.695,0.564c-0.093,0.072-0.185,0.146-0.36,0.252c-0.234,0.164-0.467,0.302-0.74,0.444
			c-0.275,0.152-0.512,0.261-0.828,0.378c-0.109,0.051-0.22,0.086-0.409,0.148c-0.109,0.043-0.226,0.079-0.358,0.112l-0.412,0.105
			c-0.04,0.007-0.086,0.016-0.15,0.028c-0.035,0.004-0.071,0.01-0.105,0.019c-0.084,0.02-0.174,0.032-0.337,0.058
			c-0.431,0.071-0.861,0.106-1.316,0.106h-0.252c-2.429-0.042-4.45-0.957-6.181-2.796C13.745,94.061,11.553,81.776,12.215,63.666z
			 M34.728,144.94c0.002,0.238-0.191,0.486-0.355,0.652c-1.111,1.131-4.591,2.367-9.629,2.408c-0.051,0-0.1,0-0.15,0
			c-5.896,0-9.814-1.747-9.825-2.915c-0.004-0.902,2.485-2.389,6.993-2.899l-0.015,0.591c0,0.005,0.002,0.009,0.002,0.014
			c0,0.004-0.002,0.008-0.002,0.012c0,0.962-0.783,1.744-1.745,1.744c-0.553,0-1,0.447-1,1s0.447,1,1,1
			c2.05,0,3.715-1.655,3.74-3.698c0-0.007,0.004-0.013,0.005-0.021l0.043-1.71l0.934-37.12c0.009,0,0.017,0.002,0.025,0.002h0.27
			c0,0,0.001,0,0.001,0l-0.027,37.091l-0.001,1.712c0,2.064,1.68,3.744,3.745,3.744c0.553,0,1-0.447,1-1s-0.447-1-1-1
			c-0.962,0-1.745-0.782-1.745-1.743l0-0.718C31.966,142.446,34.724,143.993,34.728,144.94z"/>
		<path class="st8" d="M19.967,78.354c0.084-0.546-0.289-1.057-0.835-1.142c-0.546-0.083-1.058,0.29-1.142,0.835
			c-0.422,2.726-0.091,9.846,4.182,17.281c0.186,0.322,0.521,0.502,0.868,0.502c0.169,0,0.34-0.043,0.497-0.133
			c0.479-0.275,0.645-0.887,0.369-1.365C19.762,87.12,19.657,80.354,19.967,78.354z"/>
		<path class="st8" d="M43.034,28.002h-1.001V27c0-0.552-0.447-1-1-1s-1,0.448-1,1v1.002h-0.999c-0.553,0-1,0.448-1,1s0.447,1,1,1
			h0.999V31c0,0.552,0.447,1,1,1s1-0.448,1-1v-0.998h1.001c0.553,0,1-0.448,1-1S43.587,28.002,43.034,28.002z"/>
		<path class="st8" d="M5.034,28.002H4.033V27c0-0.552-0.447-1-1-1s-1,0.448-1,1v1.002H1.034c-0.553,0-1,0.448-1,1s0.447,1,1,1
			h0.999V31c0,0.552,0.447,1,1,1s1-0.448,1-1v-0.998h1.001c0.553,0,1-0.448,1-1S5.587,28.002,5.034,28.002z"/>
		<path class="st8" d="M12.034,11.002h0.999V12c0,0.552,0.447,1,1,1s1-0.448,1-1v-0.998h1.001c0.553,0,1-0.448,1-1s-0.447-1-1-1
			h-1.001V8c0-0.552-0.447-1-1-1s-1,0.448-1,1v1.002h-0.999c-0.553,0-1,0.448-1,1S11.481,11.002,12.034,11.002z"/>
		<path class="st8" d="M46.673,13.277c-1.303,0-2.362,1.06-2.362,2.362S45.37,18,46.673,18c1.302,0,2.361-1.059,2.361-2.361
			S47.974,13.277,46.673,13.277z M46.673,16c-0.2,0-0.362-0.162-0.362-0.361c0-0.2,0.162-0.362,0.362-0.362
			c0.199,0,0.361,0.162,0.361,0.362C47.034,15.838,46.872,16,46.673,16z"/>
		<path class="st8" d="M29.673,21c1.302,0,2.361-1.059,2.361-2.361s-1.06-2.362-2.361-2.362c-1.303,0-2.362,1.06-2.362,2.362
			S28.37,21,29.673,21z M29.673,18.277c0.199,0,0.361,0.162,0.361,0.362c0,0.199-0.162,0.361-0.361,0.361
			c-0.2,0-0.362-0.162-0.362-0.361C29.31,18.439,29.473,18.277,29.673,18.277z"/>
		<path class="st8" d="M14.034,26.361c0,1.302,1.06,2.362,2.361,2.362s2.361-1.06,2.361-2.362S17.697,24,16.395,24
			S14.034,25.059,14.034,26.361z M16.757,26.361c0,0.2-0.162,0.362-0.361,0.362s-0.361-0.162-0.361-0.362
			c0-0.199,0.162-0.361,0.361-0.361S16.757,26.162,16.757,26.361z"/>
	</g>
</g>
</svg>
